<svg width="70" height="50" viewBox="0 0 70 50" fill="none" xmlns="http://www.w3.org/2000/svg">
<rect width="70" height="50" rx="4" fill="#016FD0"/>
<path fill-rule="evenodd" clip-rule="evenodd" d="M13.5977 37.2321V26.3492H25.1819L26.4248 27.9608L27.7087 26.3492H69.7567V36.4815C69.7567 36.4815 68.6571 37.2212 67.3853 37.2321H44.1025L42.7012 35.5166V37.2321H38.1093V34.3036C38.1093 34.3036 37.482 34.7124 36.1259 34.7124H34.563V37.2321H27.6105L26.3694 35.5859L25.1092 37.2321H13.5977Z" fill="white"/>
<path fill-rule="evenodd" clip-rule="evenodd" d="M0.0703125 18.1467L2.68261 12.0888H7.2003L8.6828 15.4822V12.0888H14.2987L15.1812 14.5414L16.0368 12.0888H41.2464V13.3218C41.2464 13.3218 42.5717 12.0888 44.7496 12.0888L52.9292 12.1172L54.3861 15.4662V12.0888H59.0858L60.3793 14.0125V12.0888H65.1221V22.9717H60.3793L59.1397 21.0417V22.9717H52.2348L51.5405 21.2562H49.6842L49.0011 22.9717H44.3185C42.4444 22.9717 41.2464 21.7638 41.2464 21.7638V22.9717H34.1861L32.7848 21.2562V22.9717H6.53103L5.83712 21.2562H3.98678L3.29778 22.9717H0.0703125L0.0703125 18.1467Z" fill="white"/>
<path fill-rule="evenodd" clip-rule="evenodd" d="M0.0820312 21.5792L3.60545 13.4304H6.27664L9.79668 21.5792H7.45223L6.80549 19.9474H3.02607L2.37596 21.5792H0.0820312ZM6.06106 18.1783L4.90904 15.3269L3.75366 18.1783H6.06106Z" fill="#016FD0"/>
<path fill-rule="evenodd" clip-rule="evenodd" d="M10.0391 21.5778V13.429L13.2989 13.4411L15.1949 18.6949L17.0455 13.429H20.2792V21.5778H18.2312V15.5734L16.0602 21.5778H14.2641L12.0871 15.5734V21.5778H10.0391Z" fill="#016FD0"/>
<path fill-rule="evenodd" clip-rule="evenodd" d="M21.6836 21.5778V13.429H28.3666V15.2518H23.7532V16.6456H28.2588V18.3612H23.7532V19.8087H28.3666V21.5778H21.6836Z" fill="#016FD0"/>
<path fill-rule="evenodd" clip-rule="evenodd" d="M29.5508 21.5792V13.4304H34.1083C35.6184 13.4304 36.9715 14.3593 36.9715 16.0741C36.9715 17.54 35.8307 18.4842 34.7247 18.577L37.4195 21.5792H34.9167L32.4611 18.6842H31.5988V21.5792H29.5508ZM33.9399 15.2531H31.5988V16.9687H33.9702C34.3807 16.9687 34.91 16.6523 34.91 16.1109C34.91 15.6901 34.5015 15.2531 33.9399 15.2531Z" fill="#016FD0"/>
<path fill-rule="evenodd" clip-rule="evenodd" d="M39.8997 21.5778H37.8086V13.429H39.8997V21.5778Z" fill="#016FD0"/>
<path fill-rule="evenodd" clip-rule="evenodd" d="M44.8558 21.5778H44.4045C42.2205 21.5778 40.8945 19.8663 40.8945 17.5369C40.8945 15.15 42.2057 13.429 44.9636 13.429H47.2272V15.359H44.8809C43.7613 15.359 42.9695 16.2281 42.9695 17.557C42.9695 19.1351 43.8749 19.7979 45.1792 19.7979H45.7182L44.8558 21.5778Z" fill="#016FD0"/>
<path fill-rule="evenodd" clip-rule="evenodd" d="M45.7891 21.5792L49.3125 13.4304H51.9837L55.5037 21.5792H53.1593L52.5125 19.9474H48.7331L48.083 21.5792H45.7891ZM51.7681 18.1783L50.6161 15.3269L49.4607 18.1783H51.7681Z" fill="#016FD0"/>
<path fill-rule="evenodd" clip-rule="evenodd" d="M55.7461 21.5778V13.429H58.3499L61.6746 18.5488V13.429H63.7226V21.5778H61.203L57.7941 16.324V21.5778H55.7461Z" fill="#016FD0"/>
<path fill-rule="evenodd" clip-rule="evenodd" d="M15 35.8382V27.6894H21.683V29.5122H17.0696V30.9061H21.5752V32.6216H17.0696V34.0691H21.683V35.8382H15Z" fill="#016FD0"/>
<path fill-rule="evenodd" clip-rule="evenodd" d="M47.7461 35.8382V27.6894H54.4291V29.5122H49.8157V30.9061H54.2998V32.6216H49.8157V34.0691H54.4291V35.8382H47.7461Z" fill="#016FD0"/>
<path fill-rule="evenodd" clip-rule="evenodd" d="M21.9408 35.8382L25.1947 31.8141L21.8633 27.6894H24.4435L26.4276 30.2393L28.4183 27.6894H30.8975L27.6099 31.7638L30.8698 35.8382H28.29L26.3636 33.3286L24.4839 35.8382H21.9408Z" fill="#016FD0"/>
<path fill-rule="evenodd" clip-rule="evenodd" d="M31.1133 35.8396V27.6908H35.6371C37.4934 27.6908 38.5778 28.8808 38.5778 30.4316C38.5778 32.3037 37.1951 33.2663 35.371 33.2663H33.2152V35.8396H31.1133ZM35.4855 29.5337H33.2152V31.41H35.4788C36.077 31.41 36.4961 31.0157 36.4961 30.4718C36.4961 29.8929 36.0749 29.5337 35.4855 29.5337Z" fill="#016FD0"/>
<path fill-rule="evenodd" clip-rule="evenodd" d="M39.4688 35.8382V27.6894H44.0263C45.5364 27.6894 46.8895 28.6183 46.8895 30.3331C46.8895 31.799 45.7487 32.7432 44.6427 32.836L47.3375 35.8382H44.8347L42.3791 32.9433H41.5168V35.8382H39.4688ZM43.8579 29.5122H41.5168V31.2277H43.8882C44.2987 31.2277 44.828 30.9113 44.828 30.3699C44.828 29.9492 44.4195 29.5122 43.8579 29.5122Z" fill="#016FD0"/>
<path fill-rule="evenodd" clip-rule="evenodd" d="M55.3772 35.8382V34.0691H59.476C60.0824 34.0691 60.345 33.7431 60.345 33.3855C60.345 33.043 60.0833 32.6967 59.476 32.6967H57.6238C56.0138 32.6967 55.1172 31.7209 55.1172 30.256C55.1172 28.9494 55.9383 27.6894 58.3307 27.6894H62.319L61.4566 29.5229H58.0073C57.348 29.5229 57.145 29.8671 57.145 30.1957C57.145 30.5335 57.3958 30.9061 57.8995 30.9061H59.8398C61.6345 30.9061 62.4133 31.9187 62.4133 33.2448C62.4133 34.6705 61.5455 35.8382 59.7421 35.8382H55.3772Z" fill="#016FD0"/>
<path fill-rule="evenodd" clip-rule="evenodd" d="M62.8929 35.8382V34.0691H66.9916C67.5981 34.0691 67.8607 33.7431 67.8607 33.3855C67.8607 33.043 67.5989 32.6967 66.9916 32.6967H65.1394C63.5294 32.6967 62.6328 31.7209 62.6328 30.256C62.6328 28.9494 63.4539 27.6894 65.8463 27.6894H69.8346L68.9723 29.5229H65.523C64.8636 29.5229 64.6606 29.8671 64.6606 30.1957C64.6606 30.5335 64.9115 30.9061 65.4152 30.9061H67.3554C69.1501 30.9061 69.9289 31.9187 69.9289 33.2448C69.9289 34.6705 69.0611 35.8382 67.2577 35.8382H62.8929Z" fill="#016FD0"/>
</svg>
