<svg width="70" height="50" viewBox="0 0 70 50" fill="none" xmlns="http://www.w3.org/2000/svg">
<rect width="70" height="50" rx="4" fill="#262626"/>
<g opacity="0.01">
<rect x="15" y="12" width="39.8152" height="25.9701" fill="white"/>
</g>
<rect x="29.6562" y="16.5246" width="10.503" height="16.9179" fill="#FF5F00"/>
<path fill-rule="evenodd" clip-rule="evenodd" d="M30.7411 24.9851C30.7384 21.6843 32.2749 18.5656 34.9077 16.5276C30.4349 13.0609 24.0118 13.5659 20.1524 17.6876C16.293 21.8093 16.293 28.1639 20.1524 32.2855C24.0118 36.4072 30.4349 36.9122 34.9077 33.4455C32.274 31.4069 30.7375 28.2869 30.7411 24.9851Z" fill="#EB001B"/>
<path fill-rule="evenodd" clip-rule="evenodd" d="M51.5347 31.3795V32.0825H51.4614V31.3795H51.3047V31.234H51.7014V31.3795H51.5347ZM52.3047 31.234V32.0825H52.2214V31.4401L52.0914 31.9916H52.0014L51.8714 31.4401V32.0825H51.7847V31.234H51.9047L52.0447 31.8401L52.1847 31.234H52.3047Z" fill="#F79E1B"/>
<path fill-rule="evenodd" clip-rule="evenodd" d="M52.5578 24.9851C52.5577 29.1042 50.1727 32.8618 46.4159 34.6618C42.659 36.4618 38.1898 35.9884 34.9062 33.4425C37.5379 31.4028 39.0745 28.2845 39.0745 24.9836C39.0745 21.6826 37.5379 18.5643 34.9062 16.5246C38.1898 13.9787 42.659 13.5053 46.4159 15.3053C50.1727 17.1054 52.5577 20.8629 52.5578 24.9821V24.9851Z" fill="#F79E1B"/>
</svg>
