<svg width="70" height="50" viewBox="0 0 70 50" fill="none" xmlns="http://www.w3.org/2000/svg">
<rect width="70" height="50" rx="4" fill="#0742A6"/>
<path fill-rule="evenodd" clip-rule="evenodd" d="M32.0202 31.744H28.4805L30.6944 18.4119H34.2339L32.0202 31.744Z" fill="white"/>
<path fill-rule="evenodd" clip-rule="evenodd" d="M44.8525 18.7378C44.1543 18.4681 43.0469 18.1702 41.6777 18.1702C38.1821 18.1702 35.7206 19.9856 35.7055 22.5809C35.6764 24.4958 37.4679 25.5594 38.8077 26.1979C40.1772 26.8503 40.6427 27.2761 40.6427 27.8577C40.6287 28.7508 39.5361 29.1626 38.517 29.1626C37.1038 29.1626 36.3465 28.9503 35.1958 28.4534L34.7297 28.2404L34.2344 31.2331C35.0646 31.6015 36.5941 31.9284 38.1821 31.9427C41.8962 31.9427 44.3142 30.1554 44.3428 27.3896C44.357 25.8719 43.411 24.709 41.3716 23.7588C40.1336 23.1487 39.3754 22.7374 39.3754 22.1133C39.3899 21.5458 40.0167 20.9647 41.4142 20.9647C42.565 20.9362 43.4104 21.2056 44.0509 21.4752L44.3711 21.6167L44.8525 18.7378Z" fill="white"/>
<path fill-rule="evenodd" clip-rule="evenodd" d="M51.1899 18.4119H53.9278L56.7835 31.7438H53.5061C53.5061 31.7438 53.1853 30.212 53.0837 29.7439H48.539C48.4076 30.0983 47.7961 31.7438 47.7961 31.7438H44.082L49.3398 19.5181C49.7041 18.6528 50.3456 18.4119 51.1899 18.4119ZM50.9717 23.2907C50.9717 23.2907 49.85 26.255 49.5585 27.0209H52.5007C52.3551 26.3543 51.6848 23.1631 51.6848 23.1631L51.4374 22.0143C51.3333 22.3101 51.1826 22.7168 51.081 22.9911C51.0121 23.1771 50.9658 23.3022 50.9717 23.2907Z" fill="white"/>
<path fill-rule="evenodd" clip-rule="evenodd" d="M25.5244 18.4119L22.0578 27.5031L21.679 25.6593C21.0381 23.5318 19.0282 21.2203 16.7852 20.0709L19.9604 31.7299H23.7035L29.2673 18.4119H25.5244V18.4119Z" fill="white"/>
<path fill-rule="evenodd" clip-rule="evenodd" d="M18.8392 18.4119H13.1442L13.0859 18.6813C17.5284 19.7876 20.4706 22.4545 21.6794 25.6599L20.4413 19.5326C20.2375 18.6811 19.6112 18.44 18.8392 18.4119Z" fill="white"/>
</svg>
