<svg width="70" height="50" viewBox="0 0 70 50" fill="none" xmlns="http://www.w3.org/2000/svg">
<rect width="70" height="50" rx="4" fill="#FEF200"/>
<path fill-rule="evenodd" clip-rule="evenodd" d="M31.2003 19.4H33.1157C33.7791 19.4 34.2713 19.5366 34.2713 20.2727C34.2713 21.0278 33.5245 21.2483 32.9319 21.2483H30.8253L31.2003 19.4ZM25.6562 28.6895H32.607C35.2585 28.6895 37.5984 27.523 37.5984 24.5775C37.5984 23.4499 36.8876 22.3692 35.7645 22.1288V22.0961H35.7815C37.2427 21.7043 38.0053 20.6917 38.0053 19.1527C38.0053 17.3864 37.0212 16.4631 34.3902 16.4631H28.1686L25.6562 28.6895ZM30.3663 23.5264H32.4184C33.2008 23.5264 33.8661 23.6632 33.8661 24.5739C33.8661 25.5651 32.9502 25.803 32.2846 25.803H29.89L30.3663 23.5264Z" fill="#0069AC"/>
<path fill-rule="evenodd" clip-rule="evenodd" d="M40.7797 28.6891H44.5113L46.3803 19.5943H49.7411L50.3889 16.4631H39.9289L39.2852 19.5943H42.6461L40.7797 28.6891Z" fill="#0069AC"/>
<path fill-rule="evenodd" clip-rule="evenodd" d="M49.1992 28.6891H52.7468L54.1549 21.8401H54.1878L56.4114 28.6891H60.0784L62.6269 16.4631H59.076L57.7186 23.1409H57.6866L55.4119 16.4631H51.7089L49.1992 28.6891Z" fill="#0069AC"/>
<mask id="mask0_2355_22947" style="mask-type:luminance" maskUnits="userSpaceOnUse" x="24" y="30" width="39" height="8">
<path fill-rule="evenodd" clip-rule="evenodd" d="M43.4943 37.1223H62.7152V30.908H24.2734V37.1223H43.4943Z" fill="white"/>
</mask>
<g mask="url(#mask0_2355_22947)">
<path fill-rule="evenodd" clip-rule="evenodd" d="M24.2734 37.1223C24.3855 36.7059 24.3393 36.7083 24.615 35.586C24.8132 34.4792 26.0214 32.785 28.151 32.6108C28.8767 32.5231 56.7572 31.3289 62.7153 30.908L62.5362 31.9469C56.9235 32.6789 31.5271 36.1519 24.2734 37.1223Z" fill="#E31C24"/>
</g>
<path fill-rule="evenodd" clip-rule="evenodd" d="M6.35938 18.6849L13.9944 14.2389L21.6305 18.6849V27.5773L19.721 28.6908V19.7986L13.9944 16.4622L8.2696 19.7986V28.6908L6.35938 27.5773V18.6849Z" fill="#0069AC"/>
<path fill-rule="evenodd" clip-rule="evenodd" d="M12.0859 28.6909V30.9114L13.9945 29.7996L15.904 30.9114V28.6909L13.9945 27.5774L12.0859 28.6909Z" fill="#A68561"/>
<path fill-rule="evenodd" clip-rule="evenodd" d="M19.719 28.6909V26.4646L13.9924 23.1302L8.26953 26.4646V28.6909L13.9924 25.3528L19.719 28.6909Z" fill="#A68561"/>
<path fill-rule="evenodd" clip-rule="evenodd" d="M13.9942 18.6848L17.8123 20.9092V29.8L15.9044 30.9101V22.0188L13.9942 20.9092L12.0868 22.0188V30.9101L10.1797 29.8V20.9092L13.9942 18.6848Z" fill="#0069AC"/>
</svg>
