<svg width="70" height="50" viewBox="0 0 70 50" fill="none" xmlns="http://www.w3.org/2000/svg">
<rect width="70" height="50" rx="4" fill="#EE3124"/>
<path fill-rule="evenodd" clip-rule="evenodd" d="M6 32.7969H21.9888V17H6V32.7969Z" fill="white"/>
<path fill-rule="evenodd" clip-rule="evenodd" d="M16.6568 19.9851H8.16016L11.9226 24.8978H20.42L16.6568 19.9851Z" fill="#ED3124"/>
<path fill-rule="evenodd" clip-rule="evenodd" d="M20.42 24.8979H11.9226L8.16016 29.8103H16.6568L20.42 24.8979Z" fill="#820024"/>
<path fill-rule="evenodd" clip-rule="evenodd" d="M60.4793 28.1976H58.4075V25.7627H60.4793C61.4457 25.7627 61.7915 26.3885 61.7915 26.9738C61.7915 27.5658 61.4457 28.1976 60.4793 28.1976ZM58.4075 21.5978H60.3475C61.1614 21.5978 61.6461 22.022 61.6461 22.7372C61.6461 23.4501 61.1614 23.8739 60.3475 23.8739H58.4075V21.5978ZM62.533 24.7669C62.9978 24.515 63.7601 23.8055 63.7601 22.6497C63.7601 20.8447 62.5138 19.7214 60.5072 19.7214H56.2924V30.0722H60.6846C62.6709 30.0722 63.9058 28.9255 63.9058 27.075C63.9058 25.6849 63.0803 25.0401 62.533 24.7669ZM48.0616 26.3346C47.9822 26.2002 44.3613 19.7009 44.3613 19.7009H42.2925V30.0525H44.4065V23.8687C44.5673 24.1396 48.0616 30.1362 48.0616 30.1362C48.0616 30.1362 51.5398 24.1403 51.6949 23.8702V30.0525H53.8112V19.7009H51.7435C51.7435 19.7009 48.1355 26.2002 48.0616 26.3346ZM37.5825 30.0722H39.704V19.7214H37.5825V30.0722ZM34.0795 27.5789C33.4626 28.0655 32.7158 28.3216 31.9286 28.3216C30.0172 28.3216 28.5307 26.8183 28.5307 24.8979C28.5307 22.9772 30.0172 21.4728 31.9286 21.4728C32.7158 21.4728 33.4626 21.7292 34.0795 22.2166L34.1089 22.2397L35.583 20.7841L35.5495 20.7532C34.5409 19.8922 33.2573 19.417 31.9286 19.417C28.8362 19.417 26.3203 21.8762 26.3203 24.8979C26.3203 27.9189 28.8362 30.3774 31.9286 30.3774C33.2573 30.3774 34.5409 29.9033 35.5495 29.0423L35.583 29.0099L34.1089 27.5558L34.0795 27.5789Z" fill="white"/>
</svg>
