<svg width="70" height="50" viewBox="0 0 70 50" fill="none" xmlns="http://www.w3.org/2000/svg">
<rect width="70" height="50" rx="4" fill="#FFCE4C"/>
<path fill-rule="evenodd" clip-rule="evenodd" d="M23.8364 28.7332L25.5864 23.9466L26.1588 28.7332H28.0076L27.0063 21.7031H24.75L23.2558 25.9263L21.7619 21.7031H19.5056L18.5039 28.7332H20.3531L20.9251 23.9466L22.6755 28.7332H23.8364Z" fill="#231F20"/>
<path fill-rule="evenodd" clip-rule="evenodd" d="M38.193 23.5052L36.9391 27.1614L35.6673 23.5052H33.5547L35.9321 28.7331L34.9904 30.7841H37.0379L40.3063 23.5052H38.193Z" fill="#231F20"/>
<path fill-rule="evenodd" clip-rule="evenodd" d="M58.9297 21.1235V28.727H60.845V26.0796L62.8092 28.727H64.9883L62.8261 25.932L64.7953 23.5052H62.5947L60.845 25.7884V21.1235H58.9297Z" fill="#231F20"/>
<path fill-rule="evenodd" clip-rule="evenodd" d="M42.5617 27.5207V24.7706C42.9497 24.6396 44.3552 24.2879 44.3552 26.0746C44.3552 27.8954 42.9134 27.6161 42.5617 27.5207ZM40.6133 28.4639C40.6133 28.4639 41.6261 28.8433 43.046 28.8433C44.4655 28.8433 46.3144 28.4016 46.3144 25.954C46.3144 23.5052 43.8605 23.417 43.5741 23.417C43.0338 23.417 42.6885 23.5643 42.5617 23.6294V21.112H40.6133V28.4639Z" fill="#231F20"/>
<path fill-rule="evenodd" clip-rule="evenodd" d="M48.3411 27.1223C48.3411 26.371 49.766 26.3174 50.1577 26.317V27.6551C49.7499 27.7041 48.3411 27.8204 48.3411 27.1223ZM47.3614 24.8288C50.1569 24.0015 50.1577 24.9947 50.1577 25.1265V25.304C47.8949 25.3231 46.5469 25.9707 46.5469 27.1447C46.5469 28.3355 47.8018 28.8539 49.4639 28.8539C51.1259 28.8539 51.9731 28.4677 51.9731 28.4677V25.2147C51.9731 24.0677 51.2359 23.3398 49.4639 23.3398C47.6915 23.3398 46.9216 23.7592 46.9216 23.7592L47.3614 24.8288Z" fill="#231F20"/>
<path fill-rule="evenodd" clip-rule="evenodd" d="M30.0482 27.1223C30.0482 26.371 31.4731 26.3174 31.864 26.317V27.6551C31.4565 27.7041 30.0482 27.8204 30.0482 27.1223ZM29.0684 24.8288C31.864 24.0015 31.864 24.9947 31.864 25.1265V25.304C29.6019 25.3231 28.2539 25.9707 28.2539 27.1447C28.2539 28.3355 29.5089 28.8539 31.1706 28.8539C32.8326 28.8539 33.6801 28.4677 33.6801 28.4677V25.2147C33.6801 24.0677 32.9429 23.3398 31.1706 23.3398C29.3986 23.3398 28.6283 23.7592 28.6283 23.7592L29.0684 24.8288Z" fill="#231F20"/>
<path fill-rule="evenodd" clip-rule="evenodd" d="M56.2768 28.722H58.2029V25.4136C58.2029 23.6931 56.9706 23.3288 55.4512 23.3288C53.9329 23.3288 52.7109 23.7478 52.7109 23.7478V28.722H54.6374V24.7663C56.1184 24.3325 56.2768 25.0453 56.2768 25.3912V28.722Z" fill="#231F20"/>
<path fill-rule="evenodd" clip-rule="evenodd" d="M8.32864 23.1665C8.32864 23.1665 8.45259 22.6784 8.65055 22.5131C8.84888 22.3475 9.56133 21.8759 10.5903 21.5451C10.7128 21.5055 10.8551 21.5509 10.8616 21.553C10.8547 21.5937 10.8508 21.6214 10.849 21.6304C10.8353 21.7078 10.7775 21.7571 10.7775 21.7571C10.9866 21.7849 11.1242 21.6362 11.1626 21.4648C11.2015 21.2945 11.3333 20.617 11.5482 20.6271C12.1478 20.6545 12.5771 22.5959 12.5333 22.6838C12.5042 22.7414 12.2689 22.6946 12.2689 22.6946C12.6429 23.2846 13.1326 23.2789 13.2429 23.1856C13.3528 23.0924 13.2925 22.7885 13.2925 22.7885C14.4702 23.4891 14.4041 24.3218 14.4041 24.3218C14.7562 22.9433 13.942 22.3529 13.942 22.3529C14.2611 22.3418 14.6078 22.5459 14.6078 22.5459C14.1123 21.8788 13.0888 21.5091 13.0888 21.5091C13.0888 21.5091 11.8949 20.1803 11.5097 20.23C11.1903 20.2714 11.0078 20.8582 10.9183 21.2593C10.8745 21.2557 10.7908 21.2524 10.6819 21.2654C10.5975 21.1603 10.24 20.7351 10.101 20.8751C10.0467 20.9291 10.0295 21.3122 10.0248 21.4731C9.44636 21.7035 8.46229 22.1366 8.26217 22.4545C8.08109 22.7443 8.03941 22.9595 8.03941 22.9595C8.03941 22.9595 6.85953 23.7202 6.57031 24.5482C6.57031 24.5482 7.36289 23.6212 8.32864 23.1665Z" fill="#231F20"/>
<mask id="mask0_2355_22981" style="mask-type:luminance" maskUnits="userSpaceOnUse" x="5" y="19" width="12" height="13">
<path fill-rule="evenodd" clip-rule="evenodd" d="M5 19.36H16.692V31.0757H5V19.36Z" fill="white"/>
</mask>
<g mask="url(#mask0_2355_22981)">
<path fill-rule="evenodd" clip-rule="evenodd" d="M10.8459 19.3598C7.62275 19.3598 5 21.9882 5 25.2174C5 28.4473 7.62275 31.0757 10.8459 31.0757C14.0697 31.0757 16.6921 28.4473 16.6921 25.2174C16.6921 21.9882 14.0697 19.3598 10.8459 19.3598ZM10.8459 19.8491C13.8046 19.8491 16.2035 22.2521 16.2035 25.2174C16.2035 28.1824 13.8046 30.5857 10.8459 30.5857C7.88755 30.5857 5.48898 28.1824 5.48898 25.2174C5.48898 22.2521 7.88755 19.8491 10.8459 19.8491Z" fill="#231F20"/>
</g>
<path fill-rule="evenodd" clip-rule="evenodd" d="M12.1261 22.552C12.1092 21.9393 11.8071 21.449 11.6526 21.4206C11.4988 21.3936 11.4492 21.9775 11.4492 21.9775C11.8566 22.2475 12.1261 22.552 12.1261 22.552Z" fill="#231F20"/>
<path fill-rule="evenodd" clip-rule="evenodd" d="M9.22533 22.4417C8.98856 22.5842 9.09347 22.7059 9.09347 22.7059C9.09347 22.7059 9.05503 22.5842 9.34676 22.5018C9.867 22.3545 10.3373 22.2037 10.3258 22.0773C10.315 21.9506 9.96293 21.9009 9.96293 21.9009C10.0621 22.0331 9.46209 22.298 9.22533 22.4417Z" fill="#231F20"/>
<path fill-rule="evenodd" clip-rule="evenodd" d="M9.4707 23.2517C9.5422 23.2517 9.60005 23.1941 9.60005 23.1224C9.60005 23.0832 9.58244 23.0493 9.55478 23.0256C9.64064 23.0198 9.83681 23.0306 9.83681 23.0306C9.8149 23.0256 9.76532 23.0807 9.65502 23.2185C9.54508 23.3568 9.44088 23.2517 9.44088 23.2517L9.43909 23.2455C9.44915 23.2477 9.45957 23.2517 9.4707 23.2517ZM9.05538 23.8417C9.05538 23.8417 9.20376 23.4947 9.31406 23.4507C9.31406 23.4507 9.50663 23.5001 9.61118 23.4612C9.71573 23.423 9.9137 23.1584 9.99094 23.1527C9.99094 23.1527 9.78723 24.0397 8.9616 24.0235C8.9616 24.0235 9.55621 24.3601 9.85873 24.1229C10.1616 23.8856 9.93023 23.7038 10.3211 23.3233C10.7117 22.9424 10.4533 22.9266 10.4368 22.9323C10.4203 22.9374 10.2988 22.8989 10.2988 22.8989C10.2988 22.8989 10.3538 22.8272 10.4645 22.7783C10.5744 22.7279 11.2071 22.4417 11.2182 22.2696C11.229 22.0993 10.7612 21.9063 10.5248 21.9114C10.5248 21.9114 10.739 21.9996 10.7282 22.1213C10.7174 22.2426 10.1012 22.5129 10.1012 22.8603C10.1012 22.8603 9.881 22.8765 9.72112 22.8441C9.5616 22.8103 9.39094 22.8272 9.2149 22.9424C9.03885 23.0587 9.02807 22.7999 9.04424 22.7664C9.04424 22.7664 8.70328 22.9813 9.13262 23.2571C9.13262 23.2571 8.95621 23.4392 8.93969 23.4835C8.92316 23.5274 8.85166 23.7643 9.05538 23.8417Z" fill="#231F20"/>
<path fill-rule="evenodd" clip-rule="evenodd" d="M8.50817 24.9778C8.50817 24.9778 8.49991 24.6635 8.21069 24.7298C7.72494 24.8407 7.55859 25.7054 7.55859 25.7054C8.10398 24.6967 8.50817 24.9778 8.50817 24.9778Z" fill="#231F20"/>
<path fill-rule="evenodd" clip-rule="evenodd" d="M8.69357 25.7467C8.95728 25.3172 8.63573 25.0439 8.22291 25.2751C7.81046 25.5069 7.71094 26.0613 7.71094 26.0613C8.5283 25.1681 8.69357 25.7467 8.69357 25.7467Z" fill="#231F20"/>
<path fill-rule="evenodd" clip-rule="evenodd" d="M12.589 25.1926C12.589 25.1926 12.2915 24.9288 12.3245 24.4399C12.3576 23.9517 12.4485 23.2166 11.6232 22.7032C11.6232 22.7032 11.9613 23.2245 11.8373 23.7372C11.7134 24.2502 11.3002 25.1253 11.334 25.4162C11.4084 26.053 12.0687 26.169 12.0191 27.0373C12.0191 27.0373 12.4072 26.5653 12.3331 26.0116C12.2588 25.4572 11.7716 25.2171 11.9861 24.7794C11.9861 24.7794 12.2336 25.143 12.589 25.1926Z" fill="#231F20"/>
<path fill-rule="evenodd" clip-rule="evenodd" d="M8.83754 27.7401C8.76281 27.716 8.69706 27.4427 8.69706 27.4427C8.80449 27.5298 9.02329 27.5338 9.02329 27.5338C8.91982 27.6324 8.91191 27.7649 8.83754 27.7401ZM9.66173 26.8692C9.66173 26.8692 9.92006 26.88 9.93119 26.8361C9.94233 26.7918 9.84856 26.4884 9.84856 26.4884C9.84856 26.4884 10.1733 26.5215 10.1791 26.6266C10.1845 26.7306 9.9973 26.9963 9.60101 27.167C9.60101 27.167 9.67287 26.9571 9.66173 26.8692ZM7.98245 26.5881C8.01802 26.5676 8.05143 26.5456 8.08197 26.5215C8.16245 26.4606 8.22281 26.4315 8.26341 26.4182C8.25514 26.5344 8.24832 26.7389 8.28461 26.9088C8.28461 26.9088 8.07083 26.7717 7.98245 26.5881ZM6.94844 25.529C6.82197 25.529 6.59634 25.1927 6.5579 25.1265C6.51946 25.0606 6.77203 24.9389 6.84964 24.917C6.92652 24.8946 7.00772 24.9134 7.01994 24.9508C7.03107 24.9828 6.86077 25.088 6.8385 25.1265C6.81658 25.1654 6.97359 25.3104 6.99802 25.341C7.04185 25.3972 7.07526 25.529 6.94844 25.529ZM14.9658 22.8848C14.9658 22.8848 15.6876 24.8511 14.8731 26.6374C14.8731 26.6374 14.9195 26.3778 14.719 25.8659C14.5041 25.3173 14.576 24.6084 14.664 24.4763C14.664 24.4763 14.2674 24.873 14.2896 25.5351C14.3119 26.196 14.4876 28.0601 13.1453 28.7549C13.1453 28.7549 13.6541 27.8229 13.464 26.7306C13.464 26.7306 13.6375 26.7976 13.7284 27.0291C13.7284 27.0291 14.0917 26.0697 13.621 24.8946C13.621 24.8946 13.8851 24.9447 14.0504 25.0851C14.0504 25.0851 14.2239 24.2445 13.2743 23.6541C13.035 23.505 13.0677 23.423 13.0677 23.423C13.0677 23.423 12.9937 23.613 13.1504 23.8031C13.307 23.9936 13.5222 24.3658 13.4892 24.5562C13.4892 24.5562 13.233 24.3737 12.8615 24.4238C12.8615 24.4238 13.5714 25.0271 13.464 26.326C13.464 26.326 13.2829 26.1276 12.8205 26.0448C12.8205 26.0448 13.3404 27.0212 12.878 27.9554C12.878 27.9554 12.845 27.6245 12.6966 27.4175C12.6966 27.4175 12.5809 28.1044 11.7556 28.3445C11.7556 28.3445 12.4239 27.5086 11.6317 27.0874C10.8391 26.6648 10.1705 27.5997 10.0386 28.419C10.0386 28.419 9.12245 28.4846 9.03155 28.1127C8.94065 27.7401 9.20473 27.5828 9.20473 27.5828C9.20473 27.5828 9.3452 27.6738 9.66748 27.5252C9.98904 27.3765 10.6659 26.9708 10.5998 26.4581C10.5337 25.9458 9.73323 25.4411 9.0973 25.6474C8.46209 25.8548 8.0985 26.4171 7.76832 26.4088C7.43814 26.4005 7.03359 25.8958 7.09179 25.6316C7.14928 25.3666 7.36377 25.2921 7.43814 24.8453C7.43814 24.8453 7.32281 24.8565 7.24592 24.8068C7.16868 24.7568 6.96497 24.6743 6.85503 24.7024C6.74473 24.7298 6.47526 24.9119 6.46413 24.8784C6.45299 24.8453 6.49179 24.6462 6.49179 24.6462C6.49179 24.6462 6.19467 24.9605 6.23886 25.088C6.28269 25.2147 6.54137 25.529 6.81083 25.7057C6.81083 25.7057 6.86077 26.0913 7.21287 26.4502C7.42305 26.6644 7.61922 26.7033 7.78664 26.6673C7.85742 26.772 8.0985 27.0881 8.48257 27.1572C8.48257 27.1572 8.4161 26.7141 8.46425 26.3793C8.47898 26.3714 8.49371 26.3627 8.50592 26.3505C8.56628 26.2904 9.27083 25.6395 9.79359 26.268C9.79359 26.268 9.55682 26.3562 9.46341 26.6536C9.37 26.952 9.31503 27.6908 8.53898 27.2166C8.53898 27.2166 8.47287 27.6411 8.70964 27.8952C8.70964 27.8952 8.67658 28.347 9.1882 28.5947C9.70017 28.8431 10.058 28.6559 10.3882 28.8212C10.3882 28.8212 10.3551 28.1426 10.6354 27.7293C10.9163 27.3156 11.3126 27.1778 11.5052 27.3383C11.6974 27.4978 11.8189 28.1044 11.0759 28.7333C11.0759 28.7333 11.9288 28.8431 12.5123 28.3967C12.5123 28.3967 12.4397 29.1844 11.8508 29.8518C13.9846 29.3932 15.5773 27.4924 15.5773 25.2172C15.5773 24.3694 15.3549 23.5734 14.9658 22.8848Z" fill="#231F20"/>
<path fill-rule="evenodd" clip-rule="evenodd" d="M11.535 23.0696C11.535 23.0696 10.9792 22.756 10.7317 23.0807C10.4985 23.3871 10.6501 23.9116 10.5132 24.2396C10.5093 24.236 10.5042 24.2316 10.5003 24.228C10.192 23.9516 9.81261 24.421 9.74076 24.5585C9.66962 24.6968 9.57585 24.7126 9.57585 24.7126C8.89896 24.8508 9.04196 24.3051 8.81633 24.1398C8.59106 23.9739 8.21094 24.2172 8.21094 24.2172C8.5907 24.1445 8.67872 24.4098 8.66794 24.5142C8.65681 24.6194 8.73369 24.9286 8.83824 25.0992C8.94279 25.2699 9.36675 25.1486 9.71345 25.177C10.0602 25.204 10.2581 25.6281 10.2581 25.6281C10.4672 25.1208 9.90603 24.8897 9.90603 24.8897C9.90603 24.8897 10.0699 24.578 10.2635 24.6852C10.88 25.0269 10.7259 26.4111 10.7259 26.4111C11.2569 25.411 11.023 24.8238 10.746 24.4808C10.7809 24.169 10.9386 23.1855 11.535 23.0696Z" fill="#231F20"/>
</svg>
