<svg width="70" height="50" viewBox="0 0 70 50" fill="none" xmlns="http://www.w3.org/2000/svg">
<rect width="70" height="50" rx="4" fill="#003D79"/>
<path fill-rule="evenodd" clip-rule="evenodd" d="M5.06316 26.481C5.06316 25.5843 5.04737 24.8318 5 24.1609H6.64337L6.72042 25.3136H6.76653C7.139 24.7044 7.82016 23.9841 9.09074 23.9841C10.0825 23.9841 10.8571 24.5616 11.1819 25.4255H11.2138C11.4776 24.9934 11.7865 24.6736 12.1425 24.4487C12.5613 24.145 13.0417 23.9841 13.6615 23.9841C14.9161 23.9841 16.1857 24.8641 16.1857 27.3611V31.9536H14.3268V27.6496C14.3268 26.3535 13.8937 25.5843 12.9802 25.5843C12.3284 25.5843 11.8476 26.0653 11.6475 26.6257C11.6005 26.8171 11.5541 27.0574 11.5541 27.2798V31.9536H9.69453V27.4408C9.69453 26.3535 9.2769 25.5843 8.39363 25.5843C7.68089 25.5843 7.20121 26.1614 7.03037 26.7043C6.95237 26.8976 6.92111 27.121 6.92111 27.3446V31.9536H5.06316V26.481Z" fill="white"/>
<path fill-rule="evenodd" clip-rule="evenodd" d="M23.4301 30.0818C23.4301 30.7855 23.461 31.4725 23.5386 31.9539H21.8183L21.6948 31.09H21.6478C21.1832 31.6987 20.3931 32.1301 19.4172 32.1301C17.8986 32.1301 17.0469 30.9948 17.0469 29.8099C17.0469 27.8409 18.7349 26.8496 21.5238 26.8654V26.7369C21.5238 26.2246 21.3222 25.3771 19.99 25.3771C19.246 25.3771 18.4711 25.6173 17.9601 25.9528L17.5878 24.6736C18.1466 24.3209 19.1235 23.9844 20.3155 23.9844C22.7333 23.9844 23.4301 25.5697 23.4301 27.2652V30.0818ZM21.5702 28.1457C20.2226 28.1134 18.937 28.4174 18.937 29.6018C18.937 30.3691 19.4172 30.7219 20.0216 30.7219C20.7798 30.7219 21.3385 30.2096 21.5083 29.6497C21.5545 29.5057 21.5702 29.3451 21.5702 29.2175V28.1457Z" fill="white"/>
<path fill-rule="evenodd" clip-rule="evenodd" d="M24.7458 26.481C24.7458 25.5843 24.7288 24.8318 24.6836 24.1609H26.3554L26.4489 25.3289H26.4946C26.8204 24.7216 27.6414 23.9841 28.8961 23.9841C30.2134 23.9841 31.5766 24.8641 31.5766 27.3291V31.9536H29.6713V27.5537C29.6713 26.4327 29.2685 25.5843 28.2304 25.5843C27.4712 25.5843 26.9446 26.1446 26.7427 26.7369C26.6818 26.9134 26.6656 27.1539 26.6656 27.3764V31.9536H24.7458V26.481Z" fill="white"/>
<path fill-rule="evenodd" clip-rule="evenodd" d="M39.839 21.0297V29.7608C39.839 30.5608 39.8695 31.4265 39.9006 31.9539H38.1963L38.12 30.7219H38.0884C37.6389 31.5865 36.7234 32.1301 35.6246 32.1301C33.8283 32.1301 32.4025 30.5461 32.4025 28.1457C32.3867 25.5371 33.9669 23.9844 35.7794 23.9844C36.817 23.9844 37.5614 24.4331 37.9016 25.0096H37.933V21.0297H39.839ZM37.933 27.4084C37.933 27.25 37.9171 27.0571 37.8873 26.8976C37.7166 26.1294 37.112 25.5049 36.2444 25.5049C35.0205 25.5049 34.3387 26.6257 34.3387 28.082C34.3387 29.5058 35.0205 30.5461 36.2289 30.5461C37.0032 30.5461 37.6853 30.0022 37.871 29.1543C37.9171 28.9775 37.933 28.7857 37.933 28.577V27.4084Z" fill="white"/>
<path fill-rule="evenodd" clip-rule="evenodd" d="M41.1836 31.9535H43.1066V24.1613H41.1836V31.9535Z" fill="white"/>
<path fill-rule="evenodd" clip-rule="evenodd" d="M44.453 26.673C44.453 25.6173 44.4369 24.8641 44.3906 24.1607H46.0487L46.1093 25.6484H46.1736C46.5448 24.5443 47.428 24.1607 48.2333 24.1607C48.4188 24.1607 48.5272 24.1279 48.6825 24.1607V25.8895C48.5272 25.8575 48.3571 25.8255 48.1247 25.8255C47.2108 25.8255 46.5906 26.4331 46.4204 27.3126C46.3902 27.4887 46.3589 27.6977 46.3589 27.9227V31.9539H44.453V26.673Z" fill="white"/>
<path fill-rule="evenodd" clip-rule="evenodd" d="M49.5664 31.9535H51.4866V24.1613H49.5664V31.9535Z" fill="white"/>
<path fill-rule="evenodd" clip-rule="evenodd" d="M49.1132 14.7396C47.9598 15.4295 45.2393 17.0412 44.2237 17.6414C43.6047 17.9671 42.1712 18.1093 41.3604 16.98C41.3459 16.9596 40.282 15.5866 40.2386 15.5349C40.2081 15.4983 39.5203 14.4446 37.9878 14.4116C37.7614 14.4061 36.6356 14.3999 35.5371 15.0448C34.077 15.9064 30.6814 17.9116 30.6814 17.9116C30.6804 17.9116 30.6804 17.9134 30.6787 17.9134C29.2829 18.7383 28.1953 19.3806 28.1953 19.3806L29.4803 21.0107C30.0814 21.7816 31.4369 22.378 32.6124 21.681C32.6124 21.681 36.9559 19.0829 36.9719 19.0754C38.8504 18.0112 40.2998 18.0112 41.2619 18.4072C42.1254 18.7841 42.8767 19.7232 42.8767 19.7232C42.8767 19.7232 43.8585 20.98 44.0317 21.1999C44.5903 21.9101 45.5149 21.6311 45.5149 21.6311C45.5149 21.6311 45.8576 21.591 46.3741 21.2742C46.3741 21.2742 50.5813 18.7545 50.584 18.7536C51.9199 17.9441 53.1452 17.7929 53.7714 17.8524C55.7328 18.0365 56.3421 19.4518 57.1925 20.4392C57.6934 21.02 58.1453 21.3497 58.8364 21.3331C59.2905 21.3232 59.8035 21.0387 59.8791 20.9874L64.9172 17.9842C64.9172 17.9842 64.4003 17.18 63.3416 15.9287C62.3941 14.8124 61.3876 15.3175 60.5852 15.728C60.2481 15.9002 59.0266 16.7395 57.8165 17.325C56.9543 17.742 55.7157 17.6166 55.0369 16.7502C54.9964 16.6975 53.8982 15.3243 53.7828 15.1553C53.3396 14.5819 52.4748 14.0683 51.3665 14.0683C50.6926 14.0683 49.9279 14.2582 49.1132 14.7396Z" fill="url(#paint0_linear_2355_23035)"/>
<defs>
<linearGradient id="paint0_linear_2355_23035" x1="28.1953" y1="21.9897" x2="64.9172" y2="21.9897" gradientUnits="userSpaceOnUse">
<stop stop-color="#FFCA06"/>
<stop offset="0.330844" stop-color="#FBAA18"/>
<stop offset="0.694742" stop-color="#FFC907"/>
<stop offset="1" stop-color="#FAA619"/>
</linearGradient>
</defs>
</svg>
