<svg width="70" height="50" viewBox="0 0 70 50" fill="none" xmlns="http://www.w3.org/2000/svg">
<rect width="70" height="50" rx="4" fill="white"/>
<path fill-rule="evenodd" clip-rule="evenodd" d="M8.0203 25.6298H8.95104C9.48636 25.6298 9.91581 25.6717 10.3894 26.2167C10.7216 26.5908 11.0906 27.4258 11.0906 28.7693C11.0906 29.2543 11.0979 29.7317 11.0069 30.2232C10.8564 31.0004 10.4976 32.2415 8.44126 32.2415C7.89285 32.2415 8.0203 32.2275 8.0203 32.2275V25.6298ZM9.08061 33.3873C11.8467 33.3873 13.0869 32.1586 13.0869 28.8037C13.0869 27.916 12.8244 26.4301 11.9921 25.5215C11.1335 24.5914 10.024 24.4731 9.0829 24.4731H6V33.3873H9.08061Z" fill="#004F38"/>
<path fill-rule="evenodd" clip-rule="evenodd" d="M17.8157 31.0792C17.8157 31.374 17.8026 31.7706 17.4915 32.0532C17.2267 32.2845 16.8571 32.3035 16.7109 32.3035C16.3615 32.3035 16.0492 32.176 15.9139 31.7471C15.88 31.6091 15.8651 31.4716 15.8651 31.339C15.8651 30.6875 16.2991 30.4134 16.7824 30.2982C17.0375 30.2408 17.2053 30.2272 17.8157 30.1773V31.0792ZM17.8157 29.3728L16.8068 29.4709C15.7169 29.5979 15.3051 29.6959 14.8376 30.0021C14.0878 30.5105 14.0781 31.253 14.0781 31.498C14.0781 32.1057 14.2621 32.5651 14.5151 32.83C14.8496 33.2152 15.3775 33.3577 15.8883 33.3577C17.1395 33.3577 17.736 32.7921 17.736 32.7921L17.7485 33.195H19.4306V28.977C19.4306 28.501 19.4442 27.8365 18.8959 27.3628C18.6114 27.1167 18.3595 27.006 17.9742 26.9492C17.5872 26.8824 17.4507 26.8554 17.0779 26.8554C15.941 26.8554 15.0809 27.0525 14.5899 27.9198C14.3788 28.2946 14.3939 28.6704 14.3939 28.9579H15.941C15.9535 28.7073 15.9636 28.3609 16.1639 28.1195C16.2635 27.9822 16.4973 27.7871 16.9289 27.7871C17.0693 27.7871 17.4803 27.7871 17.689 28.125C17.8026 28.3252 17.8157 28.5873 17.8157 28.8818V29.3728Z" fill="#004F38"/>
<path fill-rule="evenodd" clip-rule="evenodd" d="M31.2493 31.0792C31.2493 31.374 31.2373 31.7706 30.9222 32.0532C30.6653 32.2845 30.2913 32.3035 30.1413 32.3035C29.7934 32.3035 29.4809 32.176 29.348 31.7471C29.313 31.6091 29.3016 31.4716 29.3016 31.339C29.3016 30.6875 29.7317 30.4134 30.2178 30.2982C30.4729 30.2408 30.6403 30.2272 31.2493 30.1773V31.0792ZM31.2493 29.3728L30.2415 29.4709C29.1477 29.5979 28.7414 29.6959 28.2712 30.0021C27.5249 30.5105 27.5117 31.253 27.5117 31.498C27.5117 32.1057 27.6957 32.5651 27.9469 32.83C28.2836 33.2152 28.8154 33.3577 29.3238 33.3577C30.5759 33.3577 31.1711 32.7921 31.1711 32.7921L31.1813 33.195H32.8644V28.977C32.8644 28.501 32.8756 27.8365 32.3318 27.3628C32.0461 27.1167 31.7902 27.006 31.4077 26.9492C31.0218 26.8824 30.8866 26.8554 30.5114 26.8554C29.374 26.8554 28.5145 27.0525 28.0256 27.9198C27.8139 28.2946 27.8281 28.6704 27.8281 28.9579H29.374C29.3882 28.7073 29.3989 28.3609 29.5981 28.1195C29.6943 27.9822 29.9286 27.7871 30.3649 27.7871C30.5036 27.7871 30.9148 27.7871 31.1264 28.125C31.2373 28.3252 31.2493 28.5873 31.2493 28.8818V29.3728Z" fill="#004F38"/>
<path fill-rule="evenodd" clip-rule="evenodd" d="M56.6687 33.1951H54.9099V29.4204C54.9099 29.1768 54.9099 28.9773 54.8856 28.7709C54.8726 28.5739 54.8115 27.931 54.0453 27.931C53.8417 27.931 53.6695 27.9822 53.5588 28.0278C53.0397 28.2662 53.0273 28.6842 53.0159 29.0186V33.1951H51.25V27.0164H53.0159V27.7202C53.4608 27.3254 53.8598 26.8943 54.8477 26.8943C55.6795 26.8943 56.0908 27.2134 56.2607 27.4105C56.6529 27.8473 56.6529 28.4157 56.6687 28.8592V33.1951Z" fill="#004F38"/>
<path fill-rule="evenodd" clip-rule="evenodd" d="M26.2183 33.1951H24.4579V29.4204C24.4579 29.1768 24.4579 28.9773 24.4296 28.7709C24.4195 28.5739 24.3583 27.931 23.5831 27.931C23.3896 27.931 23.2158 27.9822 23.1055 28.0278C22.5838 28.2662 22.569 28.6842 22.5578 29.0186V33.1951H20.793V27.0164H22.5578V27.7202C23.0071 27.3254 23.4021 26.8943 24.3928 26.8943C25.2263 26.8943 25.6332 27.2134 25.8069 27.4105C26.2036 27.8473 26.2036 28.4157 26.2183 28.8592V33.1951Z" fill="#004F38"/>
<path fill-rule="evenodd" clip-rule="evenodd" d="M34.1523 27.0132H35.9177V27.7329C36.255 27.4299 36.8509 26.8872 37.9119 26.8872C39.1211 26.8872 39.4579 27.6073 39.5421 27.8409C40.2609 27.1499 40.7362 26.8872 41.4281 26.8872C41.7643 26.8872 41.9986 26.9426 42.2227 27.0238C43.1689 27.3847 43.192 28.2261 43.2071 28.7697V33.189H41.4174V29.165C41.4062 28.7259 41.3937 28.4811 41.2765 28.2859C41.2568 28.2364 41.0802 27.9269 40.6359 27.9269C40.486 27.9269 40.198 27.9636 40.0617 28.0389C39.5711 28.2747 39.5512 28.6786 39.5421 29.01V33.189H37.793V29.189C37.793 28.715 37.8017 27.9269 37.0014 27.9269C36.8243 27.9269 36.5108 27.9775 36.3559 28.0636C35.9177 28.3332 35.9053 28.7259 35.9177 29.2759V33.189H34.1523V27.0132Z" fill="#004F38"/>
<path fill-rule="evenodd" clip-rule="evenodd" d="M48.4137 29.9706C48.4137 30.3245 48.3996 30.6581 48.3645 31C48.3272 31.339 48.2695 32.0242 47.7393 32.3127C47.587 32.3849 47.4274 32.423 47.2629 32.423C46.2628 32.423 46.1734 31.3809 46.1509 31C46.1287 30.7154 46.1119 30.4352 46.1119 30.159C46.1119 29.913 46.1287 29.57 46.1656 29.1654C46.2012 28.8383 46.2721 28.2111 46.7818 27.9161C46.9566 27.8288 47.1242 27.7922 47.3178 27.7922C48.2695 27.7922 48.3538 28.7811 48.3765 29.1654C48.3996 29.4353 48.4137 29.7081 48.4137 29.9706ZM50.2115 30.0022C50.2115 29.456 50.2115 28.4306 49.6015 27.7325C48.8592 26.8554 47.7987 26.8554 47.4274 26.8554C46.9916 26.8554 45.9913 26.8734 45.2077 27.5792C44.3203 28.3692 44.3203 29.6235 44.3203 30.2605C44.3203 31.4673 44.5937 32.7453 46.1287 33.189C46.5754 33.3267 46.814 33.3489 47.2629 33.3489C47.6855 33.3489 48.7358 33.3489 49.5173 32.4834C50.2115 31.721 50.2115 30.5717 50.2115 30.0022Z" fill="#004F38"/>
<path fill-rule="evenodd" clip-rule="evenodd" d="M6 12V16.2402H15.1786V13.931L6 12Z" fill="#F15B22"/>
<path fill-rule="evenodd" clip-rule="evenodd" d="M26.1569 16.2402L15.1758 12L15.178 13.931L26.1569 16.2402Z" fill="#FFC222"/>
<path fill-rule="evenodd" clip-rule="evenodd" d="M15.1758 16.2402H26.1528L15.1758 13.931V16.2402Z" fill="#F7931D"/>
<path fill-rule="evenodd" clip-rule="evenodd" d="M26.1562 16.2364V16.2402L49.2146 21.0944V16.2364H26.1562Z" fill="#F15B22"/>
<path fill-rule="evenodd" clip-rule="evenodd" d="M63.9998 24.2065V16.2362H49.2148V21.0961L63.9998 24.2065Z" fill="#F7931D"/>
<path fill-rule="evenodd" clip-rule="evenodd" d="M49.2135 21.0961L26.1602 16.2417L49.2135 24.2103V21.0961Z" fill="#FFC222"/>
</svg>
