<svg width="70" height="50" viewBox="0 0 70 50" fill="none" xmlns="http://www.w3.org/2000/svg">
<rect width="70" height="50" rx="4" fill="white"/>
<path fill-rule="evenodd" clip-rule="evenodd" d="M39.3061 32.2347L37.7661 35.2671L36.2261 32.2347H34.5703V39.1083H36.2555V35.6718C36.2555 35.6718 37.0827 37.1213 37.2067 37.3377C37.3307 37.554 37.5423 37.6663 37.7659 37.6663C37.99 37.6663 38.2018 37.554 38.3257 37.3377C38.4497 37.1213 39.2769 35.6718 39.2769 35.6718V39.1083H40.9621V32.2347H39.3061Z" fill="#595A59"/>
<path fill-rule="evenodd" clip-rule="evenodd" d="M42.3789 39.1083V32.2345H47.0402V33.7409H44.0639V34.8886H46.6065V36.3963H44.0639V37.6038H47.0402V39.1083H42.3789Z" fill="#595A59"/>
<path fill-rule="evenodd" clip-rule="evenodd" d="M52.6053 38.4525C52.0176 39.0602 51.3627 39.2235 50.6122 39.2235C49.813 39.2235 49.2058 38.9554 48.7057 38.4525C47.983 37.728 48.0119 36.6839 48.0119 35.6523C48.0119 34.6194 47.983 33.5842 48.7057 32.859C49.2058 32.3575 49.7853 32.0881 50.6122 32.0881C52.3734 32.0881 53.1253 33.2357 53.2882 34.366H51.5948C51.4587 33.844 51.1889 33.5925 50.6122 33.5925C50.304 33.5925 50.0723 33.7291 49.9477 33.8931C49.7931 34.0955 49.6975 34.397 49.6975 35.6523C49.6975 36.9065 49.7931 37.2265 49.9477 37.4292C50.0723 37.5954 50.304 37.7188 50.6122 37.7188C50.9684 37.7188 51.2085 37.6132 51.3627 37.4482C51.5555 37.2553 51.6236 36.9118 51.6236 36.6516V36.5547H50.6122V35.1432H53.2984V36.0995C53.2984 37.2118 53.1253 37.9225 52.6053 38.4525Z" fill="#595A59"/>
<path fill-rule="evenodd" clip-rule="evenodd" d="M56.1615 36.7093L56.7917 34.7187L57.4221 36.7093H56.1615ZM57.4416 32.2346H56.142L53.6484 39.1083H55.3813L55.718 38.0846H57.8656L58.2024 39.1083H59.9352L57.4416 32.2346Z" fill="#595A59"/>
<path fill-rule="evenodd" clip-rule="evenodd" d="M12.6825 35.9315H10.8141V38.4518H12.6825C13.53 38.4518 14.0597 37.9592 14.0597 37.1867C14.0597 36.4143 13.53 35.9315 12.6825 35.9315ZM12.6055 32.8898H10.8141V35.2749H12.6055C13.3663 35.2749 13.9538 34.8982 13.9538 34.0775C13.9538 33.2566 13.3663 32.8898 12.6055 32.8898ZM12.7499 39.1084H10.082V32.2331H12.6632C13.8575 32.2331 14.6857 32.9186 14.6857 34.0678C14.6857 34.792 14.2523 35.3617 13.6745 35.5742C14.3295 35.8156 14.7917 36.3853 14.7917 37.206C14.7917 38.4518 13.9634 39.1084 12.7499 39.1084Z" fill="#595A59"/>
<path fill-rule="evenodd" clip-rule="evenodd" d="M18.0951 33.2856L16.8045 36.9163H19.3664L18.0951 33.2856ZM20.1272 39.1084L19.5782 37.5538H16.5829L16.034 39.1084H15.2539L17.7772 32.2331H18.3936L20.9073 39.1084H20.1272Z" fill="#595A59"/>
<path fill-rule="evenodd" clip-rule="evenodd" d="M26.0014 39.1084L22.3609 33.5946V39.1084H21.6289V32.2331H22.3223L25.9629 37.7276V32.2331H26.6948V39.1084H26.0014Z" fill="#595A59"/>
<path fill-rule="evenodd" clip-rule="evenodd" d="M32.5595 39.1084L30.4696 35.4487L29.0249 37.1866V39.1084H28.293V32.2331H29.0249V36.1825L32.2224 32.2331H33.1181L30.9608 34.8886L33.4264 39.1084H32.5595Z" fill="#595A59"/>
<path fill-rule="evenodd" clip-rule="evenodd" d="M37.5314 10.0242L35.0078 15.7057L39.004 24.7029L45.5228 10.0242H37.5314Z" fill="#949594"/>
<path fill-rule="evenodd" clip-rule="evenodd" d="M45.5227 10.0242H37.5312L45.2807 27.4739H53.2734L45.5227 10.0242Z" fill="#595A59"/>
<path fill-rule="evenodd" clip-rule="evenodd" d="M32.4875 10.0242H24.4961L31.0147 24.7029L35.0111 15.7057L32.4875 10.0242Z" fill="#EC952D"/>
<path fill-rule="evenodd" clip-rule="evenodd" d="M24.4968 10.0242L16.7461 27.4739H24.739L32.4882 10.0242H24.4968Z" fill="#F9C623"/>
<path fill-rule="evenodd" clip-rule="evenodd" d="M35.0108 15.7057L31.0156 24.703C31.7125 26.2156 33.2403 27.2605 35.0108 27.2605C36.7813 27.2605 38.309 26.2156 39.0057 24.703L35.0108 15.7057Z" fill="#E3672A"/>
</svg>
