<svg width="300" height="225" viewBox="0 0 300 225" fill="none" xmlns="http://www.w3.org/2000/svg">
<path d="M137.703 170.595C172.841 170.595 201.325 142.111 201.325 106.974C201.325 71.8368 172.841 43.3525 137.703 43.3525C102.566 43.3525 74.082 71.8368 74.082 106.974C74.082 142.111 102.566 170.595 137.703 170.595Z" fill="#FCFBD9"/>
<path d="M141.346 91.2183C143.321 94.7771 147.116 96.3633 149.778 95.4337C153.099 94.2742 155.34 88.9638 152.622 84.1668C143.779 70.0276 134.936 55.8878 126.094 41.7476L141.346 91.2183Z" fill="#081F2D" stroke="#081F2D" stroke-width="0.7635" stroke-linecap="round" stroke-linejoin="round"/>
<path d="M158.855 72.9091L132.337 36.251C128.771 40.2127 124.363 43.3254 119.437 45.3605C110.028 49.1375 105.394 45.9459 95.9995 48.9777C94.603 49.4232 83.7445 53.1005 77.4674 63.5735C72.2013 72.3571 70.7317 84.9646 75.6059 91.1551C74.6404 94.7853 74.5673 98.5951 75.3929 102.26C75.6389 103.297 76.2974 106.089 77.5679 108.197C74.1232 113.391 72.8932 118.158 74.6752 121.091C74.9677 121.583 75.5797 122.587 76.7099 122.913C80.4802 123.99 84.829 115.984 92.3163 107.659C96.4547 103.083 101.041 98.9327 106.007 95.2711C106.409 97.4982 107.202 99.6367 108.348 101.588C103.722 104.338 99.8019 108.129 96.8977 112.659C94.8097 115.944 92.5477 119.628 93.5977 123.764C94.0964 125.745 95.5991 128.784 97.9331 129.143C99.8613 129.443 101.205 127.74 106.438 122.374C110.7 118.019 112.828 115.838 115.1 113.949C119.781 110.079 121.457 110.172 125.353 107.274C131.158 102.965 133.705 98.0911 135.946 94.607C139.698 88.7622 146.308 80.9949 158.855 72.9091Z" fill="url(#paint0_linear_2715_8380)"/>
<path d="M96.8284 84.9932C91.875 87.7183 89.6764 90.7974 88.5892 93.158C87.5531 95.408 87.0202 98.1039 86.472 100.88C85.512 105.736 85.6219 108.421 83.4799 109.922C82.6783 110.523 81.6844 110.81 80.6857 110.729C79.0264 110.522 77.586 109.046 76.917 106.957" stroke="#081F2D" stroke-width="0.7635" stroke-miterlimit="10"/>
<path d="M89.0921 69.6973C86.4296 72.692 85.4433 75.3973 85.0353 77.324C84.3558 80.5336 85.2116 81.9316 84.7106 87.224C84.3393 91.1499 84.0588 93.7783 82.4388 94.526C80.5638 95.3923 77.7019 93.3125 76.4351 92.0923C75.7231 91.4038 75.1232 90.6082 74.6572 89.7343" stroke="#081F2D" stroke-width="0.7635" stroke-miterlimit="10"/>
<path d="M94.9321 189.808C101.959 189.808 107.656 184.111 107.656 177.083C107.656 170.056 101.959 164.359 94.9321 164.359C87.9048 164.359 82.208 170.056 82.208 177.083C82.208 184.111 87.9048 189.808 94.9321 189.808Z" fill="#1BB5C8"/>
<path d="M123.693 177.084H66.1728C65.1322 177.084 64.1076 176.828 63.1886 176.34C62.2696 175.852 61.4844 175.146 60.9017 174.284C60.319 173.422 59.9567 172.43 59.8464 171.395C59.7361 170.361 59.8813 169.315 60.2692 168.349L72.7192 137.364C78.9865 121.766 82.2071 105.111 82.2067 88.3013H107.655C107.655 105.111 110.876 121.766 117.143 137.364L129.593 168.349C129.981 169.314 130.126 170.36 130.016 171.395C129.906 172.429 129.544 173.421 128.961 174.283C128.379 175.145 127.594 175.851 126.676 176.339C125.757 176.828 124.733 177.083 123.693 177.084Z" fill="#F1E302"/>
<path d="M94.9321 101.025C101.959 101.025 107.656 95.3286 107.656 88.3013C107.656 81.2739 101.959 75.5771 94.9321 75.5771C87.9048 75.5771 82.208 81.2739 82.208 88.3013C82.208 95.3286 87.9048 101.025 94.9321 101.025Z" fill="#F1E302"/>
<path d="M94.0738 61.6206C95.6341 65.4798 97.9519 68.9872 100.89 71.9356C103.829 74.8841 107.328 77.2139 111.182 78.7874C107.98 82.067 106.052 86.3811 105.745 90.9546C105.548 94.6769 106.453 98.3746 108.344 101.586C103.721 104.338 99.8005 108.126 96.8926 112.653C94.8106 115.939 92.5486 119.628 93.5953 123.761C94.0959 125.74 95.5966 128.78 97.934 129.142C99.8626 129.442 101.201 127.734 106.439 122.373C110.698 118.013 112.828 115.832 115.104 113.948C119.78 110.077 121.461 110.17 125.357 107.273C131.157 102.961 133.708 98.086 135.944 94.6034C139.694 88.7601 146.309 80.9927 158.854 72.9081" fill="url(#paint1_linear_2715_8380)"/>
<path d="M106.21 96.2513C105.523 93.1566 105.618 89.9398 106.487 86.8911C107.355 83.8424 108.968 81.058 111.182 78.7891" stroke="#081F2D" stroke-width="0.7635" stroke-miterlimit="10"/>
<path d="M102.979 73.8501C106.064 76.3793 109.555 78.3667 113.304 79.7275" stroke="#081F2D" stroke-width="0.7635" stroke-miterlimit="10"/>
<path d="M152.671 14.8711L126.094 41.7477C134.936 55.8875 143.779 70.0272 152.622 84.167C153.614 85.8778 154.013 87.8686 153.756 89.8295C153.394 92.4897 151.949 94.1637 150.873 94.8781L150.937 94.8368C155.365 91.9537 159.354 88.4476 162.781 84.4265C169.552 76.514 181.702 62.2816 182.175 61.4783" fill="#DAA080"/>
<path d="M161.897 85.4347C161.037 80.3348 159.169 75.4574 156.403 71.0875L133.25 34.5142" stroke="#081F2D" stroke-width="0.7635" stroke-miterlimit="10"/>
<path d="M126.094 41.7476C134.936 55.8873 143.779 70.0271 152.622 84.1668C153.614 85.8777 154.013 87.8684 153.756 89.8293C153.394 92.4896 151.949 94.1636 150.873 94.8779L150.937 94.8367" stroke="#081F2D" stroke-width="0.7635" stroke-miterlimit="10"/>
<path d="M94.9326 200.967V210.129" stroke="#F16091" stroke-width="1.27237" stroke-miterlimit="10"/>
<path d="M75.2727 193.484L68.9746 199.782" stroke="#F16091" stroke-width="1.27237" stroke-miterlimit="10"/>
<path d="M114.682 193.484L120.98 199.782" stroke="#F16091" stroke-width="1.27237" stroke-miterlimit="10"/>
<path d="M152.619 152.641L221.013 169.657C222.695 170.075 224.474 169.82 225.971 168.946C227.468 168.073 228.564 166.649 229.027 164.978L240.197 124.645L158.734 103.056L147.795 144.491C147.57 145.343 147.517 146.232 147.639 147.104C147.76 147.977 148.054 148.817 148.502 149.576C148.951 150.334 149.546 150.995 150.253 151.522C150.96 152.048 151.764 152.429 152.619 152.641Z" fill="#DAA080"/>
<path d="M240.196 124.645L192.746 137.605L158.733 103.056" stroke="#081F2D" stroke-width="0.7635" stroke-miterlimit="10"/>
<defs>
<linearGradient id="paint0_linear_2715_8380" x1="169.398" y1="17.0262" x2="75.7248" y2="110.699" gradientUnits="userSpaceOnUse">
<stop stop-color="#FF5607"/>
<stop offset="1" stop-color="#FFA700"/>
</linearGradient>
<linearGradient id="paint1_linear_2715_8380" x1="140.53" y1="37.3424" x2="112.656" y2="96.6415" gradientUnits="userSpaceOnUse">
<stop stop-color="#FF5607"/>
<stop offset="1" stop-color="#FFA700"/>
</linearGradient>
</defs>
</svg>
