<svg width="400" height="300" viewBox="0 0 400 300" fill="none" xmlns="http://www.w3.org/2000/svg">
<path d="M212.133 288.509C258.983 288.509 296.962 250.53 296.962 203.68C296.962 156.831 258.983 118.852 212.133 118.852C165.284 118.852 127.305 156.831 127.305 203.68C127.305 250.53 165.284 288.509 212.133 288.509Z" fill="#FCFBD9"/>
<path d="M137.714 246.933C136.82 242.746 134.308 228.444 142.025 213.118C150.454 196.377 165.256 189.994 168.959 188.521L130.752 169.838C129.14 169.048 127.363 168.656 125.568 168.695C123.773 168.734 122.014 169.204 120.439 170.064C111.224 175.058 103.742 182.733 98.984 192.072C91.267 207.398 93.7795 221.7 94.6735 225.887L137.714 246.933Z" fill="#FFECAF"/>
<path d="M180.953 87.1881L138.512 111.419L257.061 229.95L281.285 187.522C284.974 181.059 286.437 173.563 285.448 166.188C284.459 158.813 281.073 151.967 275.811 146.705L221.77 92.6621C216.508 87.4002 209.663 84.0139 202.287 83.0248C194.912 82.0356 187.416 83.4985 180.953 87.1881Z" fill="#DAA080"/>
<path d="M274.091 200.122L168.336 94.3936" stroke="#081F2D" stroke-width="1.018" stroke-miterlimit="10"/>
<path d="M267.909 138.802L216.895 189.803" stroke="#081F2D" stroke-width="1.018" stroke-miterlimit="10"/>
<path d="M228.199 99.0889L177.188 150.086" stroke="#081F2D" stroke-width="1.018" stroke-miterlimit="10"/>
<path d="M216.895 189.803C214.288 192.411 211.192 194.479 207.785 195.891C204.378 197.302 200.726 198.028 197.039 198.028C193.351 198.028 189.699 197.302 186.292 195.891C182.885 194.479 179.79 192.411 177.182 189.803C174.574 187.196 172.506 184.1 171.095 180.693C169.683 177.286 168.957 173.634 168.957 169.947C168.957 166.259 169.683 162.607 171.095 159.2C172.506 155.793 174.574 152.697 177.182 150.09" stroke="#081F2D" stroke-width="1.018" stroke-miterlimit="10"/>
<path d="M238.323 79.854C235.206 78.239 225.556 73.0705 221.151 63.351C220.415 61.726 218.707 57.8545 220.229 56.1975C222.097 54.1635 227.832 56.4975 230.046 57.576C237.167 61.0375 257.815 75.206 284.854 95.604C274.374 93.403 255.437 88.719 238.323 79.854Z" fill="#081F2D" stroke="#081F2D" stroke-width="1.018" stroke-linecap="round" stroke-linejoin="round"/>
<path d="M227.907 132.77C221.213 138.558 215.457 141.953 216.13 146.963C216.256 147.934 216.593 148.866 217.117 149.693C217.641 150.52 218.339 151.222 219.163 151.751C223.223 154.129 230.419 150.782 237.432 145.031C237.025 145.831 235.037 149.996 236.919 152.391C237.583 153.159 238.494 153.671 239.494 153.841C244.744 154.975 254.739 147.382 261.236 137.518C261.993 136.368 262.836 134.981 263.689 133.364C264.411 141.267 267.489 147.072 271.234 147.691C272.582 147.897 273.96 147.641 275.143 146.963C279.206 144.528 279.066 137.404 279.059 134.688C279.059 134.688 279.023 122.06 284.853 95.6017C286.861 86.695 290.277 78.1658 294.973 70.3362L254.794 55.4707C230.486 66.7432 223.123 77.2207 221.204 85.0462C219.891 90.4007 219.947 99.3292 213.381 104.896C211.422 106.558 207.724 108.896 206.644 113.337C206.428 114.223 205.776 116.905 207.215 118.797C209.256 121.479 214.199 120.86 217.039 119.731C218.637 119.087 220.074 118.1 221.248 116.839C216.506 121.83 211.228 125.119 211.156 130.849C211.146 131.582 211.115 134.082 212.75 135.649C215.35 138.141 221.231 137.39 227.332 133.258" fill="url(#paint0_linear_2559_6924)"/>
<path d="M269.135 117.077C267.964 124.369 265.273 131.333 261.238 137.519" stroke="#081F2D" stroke-width="1.018" stroke-miterlimit="10"/>
<path d="M225.707 134.27C235.172 127.518 242.014 117.703 245.073 106.486" stroke="#081F2D" stroke-width="1.018" stroke-miterlimit="10"/>
<path d="M259.009 112.704C257.266 119.034 254.496 125.036 250.811 130.47C246.518 136.685 241.264 142.179 235.246 146.745" stroke="#081F2D" stroke-width="1.018" stroke-miterlimit="10"/>
<path d="M217.641 120.376C219.026 119.066 220.491 117.697 221.891 116.16C225 112.737 228.919 107.2 231.507 98.3369" stroke="#081F2D" stroke-width="1.018" stroke-miterlimit="10"/>
<path d="M306.438 49.8667L235.111 11.4912C230.527 26.8252 226.669 37.2752 224.261 44.2272C222.805 48.4382 221.336 52.615 219.855 56.7577C219.871 56.7292 219.916 56.6452 219.971 56.5577C220.01 56.4851 220.054 56.4156 220.103 56.3497C220.141 56.2944 220.184 56.2428 220.231 56.1957C222.093 54.1642 227.827 56.4957 230.045 57.5742C237.164 61.0337 257.811 75.1997 284.853 95.5982L306.438 49.8667Z" fill="#DCB29A"/>
<path d="M223.859 45.3939C230.176 44.7363 236.529 46.2432 241.878 49.6679L291.528 81.4589" stroke="#081F2D" stroke-width="1.018" stroke-miterlimit="10"/>
<path d="M221.151 63.35C220.415 61.725 218.707 57.8535 220.229 56.1965C222.097 54.1625 227.832 56.4965 230.046 57.575C237.167 61.0365 257.815 75.205 284.854 95.603" stroke="#081F2D" stroke-width="1.018" stroke-linecap="round" stroke-linejoin="round"/>
<defs>
<linearGradient id="paint0_linear_2559_6924" x1="293.249" y1="13.6952" x2="243.626" y2="124.805" gradientUnits="userSpaceOnUse">
<stop stop-color="#FF5607"/>
<stop offset="1" stop-color="#FFA700"/>
</linearGradient>
</defs>
</svg>
