<svg width="51" height="21" viewBox="0 0 51 21" fill="none" xmlns="http://www.w3.org/2000/svg">
<path d="M6.66602 2.16699V4.66699" stroke="#1B1B1B" stroke-width="1.5" stroke-miterlimit="10" stroke-linecap="round" stroke-linejoin="round"/>
<path d="M13.334 2.16699V4.66699" stroke="#1B1B1B" stroke-width="1.5" stroke-miterlimit="10" stroke-linecap="round" stroke-linejoin="round"/>
<path d="M5.83398 11.333H12.5007" stroke="#1B1B1B" stroke-width="1.5" stroke-miterlimit="10" stroke-linecap="round" stroke-linejoin="round"/>
<path d="M5.83398 14.667H10.0007" stroke="#1B1B1B" stroke-width="1.5" stroke-miterlimit="10" stroke-linecap="round" stroke-linejoin="round"/>
<path d="M13.3333 3.41699C16.1083 3.56699 17.5 4.62533 17.5 8.54199V13.692C17.5 17.1253 16.6667 18.842 12.5 18.842H7.5C3.33333 18.842 2.5 17.1253 2.5 13.692V8.54199C2.5 4.62533 3.89167 3.57533 6.66667 3.41699H13.3333Z" stroke="#1B1B1B" stroke-width="1.5" stroke-miterlimit="10" stroke-linecap="round" stroke-linejoin="round"/>
<path d="M25.162 16V5.57H31.952V6.83H26.534V10.134H31.672V11.394H26.534V14.74H31.952V16H25.162ZM36.9282 16.168C36.2189 16.168 35.5796 15.9953 35.0102 15.65C34.4502 15.3047 34.0069 14.8333 33.6802 14.236C33.3536 13.6387 33.1902 12.9713 33.1902 12.234C33.1902 11.478 33.3536 10.806 33.6802 10.218C34.0069 9.62067 34.4502 9.14933 35.0102 8.804C35.5796 8.45867 36.2189 8.286 36.9282 8.286C37.5536 8.286 38.1089 8.42133 38.5942 8.692C39.0796 8.95333 39.4622 9.308 39.7422 9.756L39.5322 10.078V5.402H40.8482V16H39.5742V14.39L39.7422 14.614C39.4809 15.1087 39.0982 15.4913 38.5942 15.762C38.0996 16.0327 37.5442 16.168 36.9282 16.168ZM37.0402 14.908C37.5162 14.908 37.9409 14.7913 38.3142 14.558C38.6876 14.3247 38.9816 14.0073 39.1962 13.606C39.4202 13.1953 39.5322 12.738 39.5322 12.234C39.5322 11.7207 39.4202 11.2633 39.1962 10.862C38.9816 10.4513 38.6876 10.1293 38.3142 9.896C37.9409 9.66267 37.5162 9.546 37.0402 9.546C36.5736 9.546 36.1489 9.66733 35.7662 9.91C35.3929 10.1433 35.0989 10.4607 34.8842 10.862C34.6696 11.254 34.5622 11.7113 34.5622 12.234C34.5622 12.738 34.6696 13.1953 34.8842 13.606C35.0989 14.0073 35.3929 14.3247 35.7662 14.558C36.1396 14.7913 36.5642 14.908 37.0402 14.908ZM42.8635 16V8.454H44.1655V16H42.8635ZM42.8635 7.25V5.57H44.1655V7.25H42.8635ZM49.2517 16.084C48.5144 16.084 47.9451 15.874 47.5437 15.454C47.1517 15.034 46.9557 14.4413 46.9557 13.676V9.7H45.5837V8.454H45.8637C46.1997 8.454 46.4657 8.35133 46.6617 8.146C46.8577 7.94067 46.9557 7.67 46.9557 7.334V6.718H48.2577V8.454H49.9517V9.7H48.2577V13.634C48.2577 13.886 48.2951 14.1053 48.3697 14.292C48.4537 14.4787 48.5891 14.628 48.7757 14.74C48.9624 14.8427 49.2097 14.894 49.5177 14.894C49.5831 14.894 49.6624 14.8893 49.7557 14.88C49.8584 14.8707 49.9517 14.8613 50.0357 14.852V16C49.9144 16.028 49.7791 16.0467 49.6297 16.056C49.4804 16.0747 49.3544 16.084 49.2517 16.084Z" fill="#1B1B1B"/>
</svg>
