<svg width="17" height="17" viewBox="0 0 17 17" fill="none" xmlns="http://www.w3.org/2000/svg">
<path d="M5.5 15.8749H1.75C1.58424 15.8749 1.42527 15.8091 1.30806 15.6918C1.19085 15.5746 1.125 15.4157 1.125 15.2499V11.7588C1.125 11.6767 1.14117 11.5954 1.17258 11.5196C1.20398 11.4438 1.25002 11.3749 1.30806 11.3168L10.6831 1.94185C10.8003 1.82464 10.9592 1.75879 11.125 1.75879C11.2908 1.75879 11.4497 1.82464 11.5669 1.94185L15.0581 5.43296C15.1753 5.55017 15.2411 5.70915 15.2411 5.87491C15.2411 6.04067 15.1753 6.19964 15.0581 6.31685L5.5 15.8749Z" stroke="#AD6B46" stroke-width="2" stroke-linecap="round" stroke-linejoin="round"/>
</svg>
