<svg width="400" height="300" viewBox="0 0 400 300" fill="none" xmlns="http://www.w3.org/2000/svg">
<g clip-path="url(#clip0_2588_7216)">
<path d="M212.918 252.602C259.768 252.602 297.747 214.623 297.747 167.774C297.747 120.924 259.768 82.9453 212.918 82.9453C166.069 82.9453 128.09 120.924 128.09 167.774C128.09 214.623 166.069 252.602 212.918 252.602Z" fill="#FCFBD9"/>
<path d="M146.607 218.096C165.347 218.096 180.539 202.905 180.539 184.165C180.539 165.425 165.347 150.233 146.607 150.233C127.867 150.233 112.676 165.425 112.676 184.165C112.676 202.905 127.867 218.096 146.607 218.096Z" fill="#F16091"/>
<path d="M158.483 181.468L151.137 177.227" stroke="#081F2D" stroke-width="1.6965" stroke-miterlimit="10"/>
<path d="M152.688 183.021L156.929 175.675" stroke="#081F2D" stroke-width="1.6965" stroke-miterlimit="10"/>
<path d="M139.214 186.632L131.867 182.391" stroke="#081F2D" stroke-width="1.6965" stroke-miterlimit="10"/>
<path d="M133.418 188.184L137.659 180.838" stroke="#081F2D" stroke-width="1.6965" stroke-miterlimit="10"/>
<path d="M156.786 198.31C154.418 197.878 151.984 197.961 149.65 198.553C147.317 199.145 145.138 200.233 143.262 201.741" stroke="#081F2D" stroke-width="1.6965" stroke-miterlimit="10"/>
<path d="M84.7305 163.307C84.7306 152.428 89.0523 141.994 96.7448 134.302C104.437 126.609 114.871 122.287 125.749 122.287" stroke="#081F2D" stroke-width="1.6965" stroke-miterlimit="10"/>
<path d="M105.242 163.307C105.243 157.868 107.404 152.652 111.25 148.806C115.096 144.96 120.313 142.8 125.752 142.8" stroke="#081F2D" stroke-width="1.6965" stroke-miterlimit="10"/>
<path d="M253.4 181.958C250.05 183.008 239.65 186.419 233.621 195.226C232.614 196.698 230.259 200.213 231.471 202.11C232.957 204.438 239.011 203.134 241.379 202.46C248.992 200.288 271.788 189.924 301.961 174.534C291.258 174.88 271.796 176.2 253.4 181.958Z" fill="#081F2D" stroke="#081F2D" stroke-width="1.018" stroke-linecap="round" stroke-linejoin="round"/>
<path d="M307.335 200.1L251.418 205.4C247.548 195.094 242.177 185.418 235.477 176.683C219.164 155.547 190.953 135.413 192.061 128.701C192.176 127.791 192.602 126.948 193.267 126.316C195.306 124.676 199.242 126.369 201.567 127.469C206.283 129.694 212.17 133.134 217.277 136.281C195.148 122.335 184.943 117.255 185.617 110.872C185.667 109.821 186.059 108.815 186.734 108.008C191.469 102.848 210.3 112.37 226.108 121.795C212.374 113.079 191.495 98.4597 192.417 90.2142C192.497 89.4252 192.763 87.0847 194.483 85.7727C198.898 82.4302 208.553 89.0882 209.502 89.7622C202.48 83.9817 198.145 79.2297 198.845 74.3622C198.934 73.7502 199.253 71.7622 200.804 70.4967C203.57 68.2357 208.722 69.5037 215.708 72.9527C231.755 80.8877 257.599 100.453 265.073 106.173C263.71 104.115 262.83 101.774 262.5 99.3277C261.906 95.0187 262.526 88.2892 265.833 86.8977C271.392 84.5657 282.723 98.1572 288.69 107.537C295.505 118.372 299.902 130.55 301.581 143.24C303.708 160.29 299.506 167.852 303.877 187.79C304.789 191.957 305.944 196.067 307.335 200.1Z" fill="url(#paint0_linear_2588_7216)"/>
<path d="M204.531 128.35C208.224 130.647 212.469 133.258 217.277 136.287C222.101 139.327 225.922 141.798 228 143.149" stroke="#081F2D" stroke-width="1.018" stroke-miterlimit="10"/>
<path d="M213.074 113.035C221.779 119.296 230.877 124.81 235.188 127.375" stroke="#081F2D" stroke-width="1.018" stroke-miterlimit="10"/>
<path d="M204.004 84.8438C206.835 87.588 209.828 90.1593 212.968 92.5438C221.476 99.2115 230.329 105.426 239.49 111.163" stroke="#081F2D" stroke-width="1.018" stroke-miterlimit="10"/>
<path d="M261.683 47.3975H212.921C208.024 47.3975 204.055 51.3669 204.055 56.2635V153.788C204.055 158.685 208.024 162.654 212.921 162.654H261.683C266.579 162.654 270.549 158.685 270.549 153.788V56.2635C270.549 51.3669 266.579 47.3975 261.683 47.3975Z" fill="#F1E302"/>
<path d="M228.82 53.166H245.786" stroke="#081F2D" stroke-width="1.018" stroke-miterlimit="10"/>
<path d="M224.746 155.867H249.855" stroke="white" stroke-width="1.018" stroke-miterlimit="10"/>
<path d="M262.528 166.95C262.138 164.663 259.239 146.15 270.528 136.93C272.212 135.594 274.082 134.51 276.078 133.712C276.317 125.635 274.394 120.05 272.275 116.202C268.551 109.428 263.542 106.786 262.504 99.3304C261.91 95.0214 262.531 88.2919 265.838 86.9004C271.397 84.5684 282.727 98.1599 288.694 107.54C295.51 118.375 299.907 130.553 301.585 143.243C303.713 160.293 299.519 167.854 303.882 187.793C304.798 191.958 305.952 196.066 307.339 200.099" fill="url(#paint1_linear_2588_7216)"/>
<path d="M276.074 133.71C276.074 123.61 274.187 119.68 272.271 116.2C268.547 109.426 263.538 106.784 262.5 99.3281" stroke="#081F2D" stroke-width="1.018" stroke-miterlimit="10"/>
<path d="M262.528 166.95C262.138 164.662 259.239 146.15 270.525 136.93C273.043 134.941 275.956 133.514 279.071 132.744" stroke="#081F2D" stroke-width="1.018" stroke-miterlimit="10"/>
<path d="M315.269 223.326L238.358 248.722C236.508 232.825 234.526 221.864 233.364 214.599C232.661 210.199 231.941 205.831 231.203 201.494C231.213 201.524 231.244 201.615 231.282 201.709C231.308 201.787 231.339 201.863 231.377 201.936C231.404 201.997 231.438 202.056 231.477 202.111C232.956 204.435 239.008 203.135 241.38 202.461C248.992 200.291 271.787 189.928 301.962 174.539L315.269 223.326Z" fill="#DCB29A"/>
<path d="M233.168 213.379C239.274 215.125 245.793 214.745 251.655 212.302L306.075 189.622" stroke="#081F2D" stroke-width="1.018" stroke-miterlimit="10"/>
<path d="M233.621 195.226C232.614 196.698 230.259 200.213 231.471 202.11C232.957 204.438 239.011 203.134 241.379 202.46C248.992 200.288 271.788 189.924 301.961 174.534" stroke="#081F2D" stroke-width="1.018" stroke-linecap="round" stroke-linejoin="round"/>
</g>
<defs>
<linearGradient id="paint0_linear_2588_7216" x1="317.864" y1="202.713" x2="231.773" y2="116.622" gradientUnits="userSpaceOnUse">
<stop stop-color="#FF5607"/>
<stop offset="1" stop-color="#FFA700"/>
</linearGradient>
<linearGradient id="paint1_linear_2588_7216" x1="284.624" y1="207.894" x2="284.624" y2="126.54" gradientUnits="userSpaceOnUse">
<stop stop-color="#FF5607"/>
<stop offset="1" stop-color="#FFA700"/>
</linearGradient>
<clipPath id="clip0_2588_7216">
<rect width="400" height="300" fill="white"/>
</clipPath>
</defs>
</svg>
