<svg width="1010" height="364" viewBox="0 0 1010 364" fill="none" xmlns="http://www.w3.org/2000/svg">
<rect width="1010" height="364" rx="12" fill="white"/>
<path d="M35 42.5L27.5 35L35 27.5" stroke="black" stroke-width="2" stroke-linecap="round" stroke-linejoin="round"/>
<path d="M53.54 43V28.1H58.96C59.96 28.1 60.84 28.2867 61.6 28.66C62.3733 29.02 62.9733 29.5533 63.4 30.26C63.8267 30.9533 64.04 31.7867 64.04 32.76C64.04 33.72 63.82 34.5467 63.38 35.24C62.9533 35.9333 62.36 36.4667 61.6 36.84C60.84 37.2133 59.96 37.4 58.96 37.4H55.9V43H53.54ZM55.9 35.3H59.02C59.5533 35.3 60.02 35.1933 60.42 34.98C60.82 34.7667 61.1333 34.4733 61.36 34.1C61.5867 33.7133 61.7 33.26 61.7 32.74C61.7 32.22 61.5867 31.7733 61.36 31.4C61.1333 31.0133 60.82 30.72 60.42 30.52C60.02 30.3067 59.5533 30.2 59.02 30.2H55.9V35.3ZM68.7866 43.24C68.0532 43.24 67.4066 43.1133 66.8466 42.86C66.2999 42.5933 65.8732 42.2333 65.5666 41.78C65.2599 41.3133 65.1066 40.7667 65.1066 40.14C65.1066 39.5533 65.2332 39.0267 65.4866 38.56C65.7532 38.0933 66.1599 37.7 66.7066 37.38C67.2532 37.06 67.9399 36.8333 68.7666 36.7L72.5266 36.08V37.86L69.2066 38.44C68.6066 38.5467 68.1666 38.74 67.8866 39.02C67.6066 39.2867 67.4666 39.6333 67.4666 40.06C67.4666 40.4733 67.6199 40.8133 67.9266 41.08C68.2466 41.3333 68.6532 41.46 69.1466 41.46C69.7599 41.46 70.2932 41.3267 70.7466 41.06C71.2132 40.7933 71.5732 40.44 71.8266 40C72.0799 39.5467 72.2066 39.0467 72.2066 38.5V35.72C72.2066 35.1867 72.0066 34.7533 71.6066 34.42C71.2199 34.0733 70.6999 33.9 70.0466 33.9C69.4466 33.9 68.9199 34.06 68.4666 34.38C68.0266 34.6867 67.6999 35.0867 67.4866 35.58L65.6066 34.64C65.8066 34.1067 66.1332 33.64 66.5866 33.24C67.0399 32.8267 67.5666 32.5067 68.1666 32.28C68.7799 32.0533 69.4266 31.94 70.1066 31.94C70.9599 31.94 71.7132 32.1 72.3666 32.42C73.0332 32.74 73.5466 33.1867 73.9066 33.76C74.2799 34.32 74.4666 34.9733 74.4666 35.72V43H72.3066V41.04L72.7666 41.1C72.5132 41.54 72.1866 41.92 71.7866 42.24C71.3999 42.56 70.9532 42.8067 70.4466 42.98C69.9532 43.1533 69.3999 43.24 68.7866 43.24ZM78.0691 47.42C77.8024 47.42 77.5357 47.3933 77.2691 47.34C77.0157 47.3 76.7824 47.2333 76.5691 47.14V45.2C76.7291 45.24 76.9224 45.2733 77.1491 45.3C77.3757 45.34 77.5957 45.36 77.8091 45.36C78.4357 45.36 78.8957 45.22 79.1891 44.94C79.4957 44.6733 79.7691 44.2533 80.0091 43.68L80.7291 42.04L80.6891 43.94L76.0091 32.18H78.4291L81.8891 41.2H81.0691L84.5091 32.18H86.9491L82.1691 44.18C81.9157 44.82 81.5957 45.38 81.2091 45.86C80.8357 46.3533 80.3891 46.7333 79.8691 47C79.3624 47.28 78.7624 47.42 78.0691 47.42ZM88.4958 43V32.18H90.6558V34.52L90.3758 34.16C90.6024 33.4267 91.0158 32.8733 91.6158 32.5C92.2158 32.1267 92.9024 31.94 93.6758 31.94C94.5424 31.94 95.3091 32.1733 95.9758 32.64C96.6558 33.0933 97.1091 33.7 97.3358 34.46L96.6958 34.52C97.0158 33.6533 97.5024 33.0067 98.1558 32.58C98.8224 32.1533 99.5824 31.94 100.436 31.94C101.182 31.94 101.856 32.1133 102.456 32.46C103.069 32.8067 103.556 33.2867 103.916 33.9C104.276 34.5133 104.456 35.2133 104.456 36V43H102.196V36.62C102.196 36.0733 102.096 35.6133 101.896 35.24C101.709 34.8533 101.442 34.56 101.096 34.36C100.762 34.1467 100.369 34.04 99.9158 34.04C99.4624 34.04 99.0624 34.1467 98.7158 34.36C98.3691 34.56 98.0958 34.8533 97.8958 35.24C97.6958 35.6267 97.5958 36.0867 97.5958 36.62V43H95.3558V36.62C95.3558 36.0733 95.2558 35.6133 95.0558 35.24C94.8691 34.8533 94.6024 34.56 94.2558 34.36C93.9224 34.1467 93.5224 34.04 93.0558 34.04C92.6024 34.04 92.2024 34.1467 91.8558 34.36C91.5091 34.56 91.2358 34.8533 91.0358 35.24C90.8491 35.6267 90.7558 36.0867 90.7558 36.62V43H88.4958ZM111.955 43.24C110.875 43.24 109.915 42.9933 109.075 42.5C108.248 41.9933 107.601 41.3133 107.135 40.46C106.668 39.5933 106.435 38.6267 106.435 37.56C106.435 36.4667 106.668 35.5 107.135 34.66C107.615 33.82 108.255 33.16 109.055 32.68C109.855 32.1867 110.761 31.94 111.775 31.94C112.588 31.94 113.315 32.08 113.955 32.36C114.595 32.64 115.135 33.0267 115.575 33.52C116.015 34 116.348 34.5533 116.575 35.18C116.815 35.8067 116.935 36.4733 116.935 37.18C116.935 37.3533 116.928 37.5333 116.915 37.72C116.901 37.9067 116.875 38.08 116.835 38.24H108.215V36.44H115.555L114.475 37.26C114.608 36.6067 114.561 36.0267 114.335 35.52C114.121 35 113.788 34.5933 113.335 34.3C112.895 33.9933 112.375 33.84 111.775 33.84C111.175 33.84 110.641 33.9933 110.175 34.3C109.708 34.5933 109.348 35.02 109.095 35.58C108.841 36.1267 108.741 36.7933 108.795 37.58C108.728 38.3133 108.828 38.9533 109.095 39.5C109.375 40.0467 109.761 40.4733 110.255 40.78C110.761 41.0867 111.335 41.24 111.975 41.24C112.628 41.24 113.181 41.0933 113.635 40.8C114.101 40.5067 114.468 40.1267 114.735 39.66L116.575 40.56C116.361 41.0667 116.028 41.5267 115.575 41.94C115.135 42.34 114.601 42.66 113.975 42.9C113.361 43.1267 112.688 43.24 111.955 43.24ZM119.14 43V32.18H121.3V34.3L121.04 34.02C121.307 33.34 121.734 32.8267 122.32 32.48C122.907 32.12 123.587 31.94 124.36 31.94C125.16 31.94 125.867 32.1133 126.48 32.46C127.094 32.8067 127.574 33.2867 127.92 33.9C128.267 34.5133 128.44 35.22 128.44 36.02V43H126.2V36.62C126.2 36.0733 126.1 35.6133 125.9 35.24C125.7 34.8533 125.414 34.56 125.04 34.36C124.68 34.1467 124.267 34.04 123.8 34.04C123.334 34.04 122.914 34.1467 122.54 34.36C122.18 34.56 121.9 34.8533 121.7 35.24C121.5 35.6267 121.4 36.0867 121.4 36.62V43H119.14ZM135.539 43.12C134.406 43.12 133.526 42.8 132.899 42.16C132.272 41.52 131.959 40.62 131.959 39.46V34.22H130.059V32.18H130.359C130.866 32.18 131.259 32.0333 131.539 31.74C131.819 31.4467 131.959 31.0467 131.959 30.54V29.7H134.219V32.18H136.679V34.22H134.219V39.36C134.219 39.7333 134.279 40.0533 134.399 40.32C134.519 40.5733 134.712 40.7733 134.979 40.92C135.246 41.0533 135.592 41.12 136.019 41.12C136.126 41.12 136.246 41.1133 136.379 41.1C136.512 41.0867 136.639 41.0733 136.759 41.06V43C136.572 43.0267 136.366 43.0533 136.139 43.08C135.912 43.1067 135.712 43.12 135.539 43.12ZM142.681 43V28.1H145.041V43H142.681ZM147.91 43V32.18H150.07V34.3L149.81 34.02C150.077 33.34 150.503 32.8267 151.09 32.48C151.677 32.12 152.357 31.94 153.13 31.94C153.93 31.94 154.637 32.1133 155.25 32.46C155.863 32.8067 156.343 33.2867 156.69 33.9C157.037 34.5133 157.21 35.22 157.21 36.02V43H154.97V36.62C154.97 36.0733 154.87 35.6133 154.67 35.24C154.47 34.8533 154.183 34.56 153.81 34.36C153.45 34.1467 153.037 34.04 152.57 34.04C152.103 34.04 151.683 34.1467 151.31 34.36C150.95 34.56 150.67 34.8533 150.47 35.24C150.27 35.6267 150.17 36.0867 150.17 36.62V43H147.91ZM160.849 43V34.22H158.849V32.18H160.849V31.62C160.849 30.8067 161.015 30.1267 161.349 29.58C161.682 29.02 162.142 28.5933 162.729 28.3C163.329 28.0067 164.015 27.86 164.789 27.86C164.935 27.86 165.102 27.8733 165.289 27.9C165.475 27.9133 165.629 27.9333 165.749 27.96V29.92C165.642 29.8933 165.522 29.88 165.389 29.88C165.255 29.8667 165.149 29.86 165.069 29.86C164.469 29.86 163.989 30 163.629 30.28C163.269 30.5467 163.089 30.9933 163.089 31.62V32.18H165.569V34.22H163.089V43H160.849ZM172.485 43.24C171.445 43.24 170.492 42.9933 169.625 42.5C168.772 42.0067 168.092 41.3333 167.585 40.48C167.079 39.6267 166.825 38.66 166.825 37.58C166.825 36.4867 167.079 35.52 167.585 34.68C168.092 33.8267 168.772 33.16 169.625 32.68C170.479 32.1867 171.432 31.94 172.485 31.94C173.552 31.94 174.505 32.1867 175.345 32.68C176.199 33.16 176.872 33.8267 177.365 34.68C177.872 35.52 178.125 36.4867 178.125 37.58C178.125 38.6733 177.872 39.6467 177.365 40.5C176.859 41.3533 176.179 42.0267 175.325 42.52C174.472 43 173.525 43.24 172.485 43.24ZM172.485 41.14C173.125 41.14 173.692 40.9867 174.185 40.68C174.679 40.3733 175.065 39.9533 175.345 39.42C175.639 38.8733 175.785 38.26 175.785 37.58C175.785 36.9 175.639 36.2933 175.345 35.76C175.065 35.2267 174.679 34.8067 174.185 34.5C173.692 34.1933 173.125 34.04 172.485 34.04C171.859 34.04 171.292 34.1933 170.785 34.5C170.292 34.8067 169.899 35.2267 169.605 35.76C169.325 36.2933 169.185 36.9 169.185 37.58C169.185 38.26 169.325 38.8733 169.605 39.42C169.899 39.9533 170.292 40.3733 170.785 40.68C171.292 40.9867 171.859 41.14 172.485 41.14ZM180.332 43V32.18H182.492V34.36L182.292 34.04C182.532 33.3333 182.918 32.8267 183.452 32.52C183.985 32.2 184.625 32.04 185.372 32.04H186.032V34.1H185.092C184.345 34.1 183.738 34.3333 183.272 34.8C182.818 35.2533 182.592 35.9067 182.592 36.76V43H180.332ZM187.578 43V32.18H189.738V34.52L189.458 34.16C189.684 33.4267 190.098 32.8733 190.698 32.5C191.298 32.1267 191.984 31.94 192.758 31.94C193.624 31.94 194.391 32.1733 195.058 32.64C195.738 33.0933 196.191 33.7 196.418 34.46L195.778 34.52C196.098 33.6533 196.584 33.0067 197.238 32.58C197.904 32.1533 198.664 31.94 199.518 31.94C200.264 31.94 200.938 32.1133 201.538 32.46C202.151 32.8067 202.638 33.2867 202.998 33.9C203.358 34.5133 203.538 35.2133 203.538 36V43H201.278V36.62C201.278 36.0733 201.178 35.6133 200.978 35.24C200.791 34.8533 200.524 34.56 200.178 34.36C199.844 34.1467 199.451 34.04 198.998 34.04C198.544 34.04 198.144 34.1467 197.798 34.36C197.451 34.56 197.178 34.8533 196.978 35.24C196.778 35.6267 196.678 36.0867 196.678 36.62V43H194.438V36.62C194.438 36.0733 194.338 35.6133 194.138 35.24C193.951 34.8533 193.684 34.56 193.338 34.36C193.004 34.1467 192.604 34.04 192.138 34.04C191.684 34.04 191.284 34.1467 190.938 34.36C190.591 34.56 190.318 34.8533 190.118 35.24C189.931 35.6267 189.838 36.0867 189.838 36.62V43H187.578ZM209.197 43.24C208.463 43.24 207.817 43.1133 207.257 42.86C206.71 42.5933 206.283 42.2333 205.977 41.78C205.67 41.3133 205.517 40.7667 205.517 40.14C205.517 39.5533 205.643 39.0267 205.897 38.56C206.163 38.0933 206.57 37.7 207.117 37.38C207.663 37.06 208.35 36.8333 209.177 36.7L212.937 36.08V37.86L209.617 38.44C209.017 38.5467 208.577 38.74 208.297 39.02C208.017 39.2867 207.877 39.6333 207.877 40.06C207.877 40.4733 208.03 40.8133 208.337 41.08C208.657 41.3333 209.063 41.46 209.557 41.46C210.17 41.46 210.703 41.3267 211.157 41.06C211.623 40.7933 211.983 40.44 212.237 40C212.49 39.5467 212.617 39.0467 212.617 38.5V35.72C212.617 35.1867 212.417 34.7533 212.017 34.42C211.63 34.0733 211.11 33.9 210.457 33.9C209.857 33.9 209.33 34.06 208.877 34.38C208.437 34.6867 208.11 35.0867 207.897 35.58L206.017 34.64C206.217 34.1067 206.543 33.64 206.997 33.24C207.45 32.8267 207.977 32.5067 208.577 32.28C209.19 32.0533 209.837 31.94 210.517 31.94C211.37 31.94 212.123 32.1 212.777 32.42C213.443 32.74 213.957 33.1867 214.317 33.76C214.69 34.32 214.877 34.9733 214.877 35.72V43H212.717V41.04L213.177 41.1C212.923 41.54 212.597 41.92 212.197 42.24C211.81 42.56 211.363 42.8067 210.857 42.98C210.363 43.1533 209.81 43.24 209.197 43.24ZM222.004 43.12C220.871 43.12 219.991 42.8 219.364 42.16C218.737 41.52 218.424 40.62 218.424 39.46V34.22H216.524V32.18H216.824C217.331 32.18 217.724 32.0333 218.004 31.74C218.284 31.4467 218.424 31.0467 218.424 30.54V29.7H220.684V32.18H223.144V34.22H220.684V39.36C220.684 39.7333 220.744 40.0533 220.864 40.32C220.984 40.5733 221.177 40.7733 221.444 40.92C221.711 41.0533 222.057 41.12 222.484 41.12C222.591 41.12 222.711 41.1133 222.844 41.1C222.977 41.0867 223.104 41.0733 223.224 41.06V43C223.037 43.0267 222.831 43.0533 222.604 43.08C222.377 43.1067 222.177 43.12 222.004 43.12ZM225.429 43V32.18H227.689V43H225.429ZM225.429 30.7V28.1H227.689V30.7H225.429ZM235.552 43.24C234.512 43.24 233.558 42.9933 232.692 42.5C231.838 42.0067 231.158 41.3333 230.652 40.48C230.145 39.6267 229.892 38.66 229.892 37.58C229.892 36.4867 230.145 35.52 230.652 34.68C231.158 33.8267 231.838 33.16 232.692 32.68C233.545 32.1867 234.498 31.94 235.552 31.94C236.618 31.94 237.572 32.1867 238.412 32.68C239.265 33.16 239.938 33.8267 240.432 34.68C240.938 35.52 241.192 36.4867 241.192 37.58C241.192 38.6733 240.938 39.6467 240.432 40.5C239.925 41.3533 239.245 42.0267 238.392 42.52C237.538 43 236.592 43.24 235.552 43.24ZM235.552 41.14C236.192 41.14 236.758 40.9867 237.252 40.68C237.745 40.3733 238.132 39.9533 238.412 39.42C238.705 38.8733 238.852 38.26 238.852 37.58C238.852 36.9 238.705 36.2933 238.412 35.76C238.132 35.2267 237.745 34.8067 237.252 34.5C236.758 34.1933 236.192 34.04 235.552 34.04C234.925 34.04 234.358 34.1933 233.852 34.5C233.358 34.8067 232.965 35.2267 232.672 35.76C232.392 36.2933 232.252 36.9 232.252 37.58C232.252 38.26 232.392 38.8733 232.672 39.42C232.965 39.9533 233.358 40.3733 233.852 40.68C234.358 40.9867 234.925 41.14 235.552 41.14ZM243.398 43V32.18H245.558V34.3L245.298 34.02C245.565 33.34 245.991 32.8267 246.578 32.48C247.165 32.12 247.845 31.94 248.618 31.94C249.418 31.94 250.125 32.1133 250.738 32.46C251.351 32.8067 251.831 33.2867 252.178 33.9C252.525 34.5133 252.698 35.22 252.698 36.02V43H250.458V36.62C250.458 36.0733 250.358 35.6133 250.158 35.24C249.958 34.8533 249.671 34.56 249.298 34.36C248.938 34.1467 248.525 34.04 248.058 34.04C247.591 34.04 247.171 34.1467 246.798 34.36C246.438 34.56 246.158 34.8533 245.958 35.24C245.758 35.6267 245.658 36.0867 245.658 36.62V43H243.398Z" fill="#1B1B1B"/>
<path d="M26.784 85.192C25.9413 85.192 25.1573 85.0373 24.432 84.728C23.7173 84.4187 23.0933 83.992 22.56 83.448C22.0373 82.8933 21.6267 82.2427 21.328 81.496C21.0293 80.7493 20.88 79.928 20.88 79.032C20.88 78.1467 21.024 77.3307 21.312 76.584C21.6107 75.8267 22.0267 75.176 22.56 74.632C23.0933 74.0773 23.7173 73.6507 24.432 73.352C25.1467 73.0427 25.9307 72.888 26.784 72.888C27.6267 72.888 28.3787 73.032 29.04 73.32C29.712 73.608 30.2773 73.9867 30.736 74.456C31.1947 74.9147 31.5253 75.416 31.728 75.96L30.032 76.76C29.776 76.12 29.3653 75.6027 28.8 75.208C28.2453 74.8027 27.5733 74.6 26.784 74.6C25.9947 74.6 25.296 74.7867 24.688 75.16C24.08 75.5333 23.6053 76.0507 23.264 76.712C22.9333 77.3733 22.768 78.1467 22.768 79.032C22.768 79.9173 22.9333 80.696 23.264 81.368C23.6053 82.0293 24.08 82.5467 24.688 82.92C25.296 83.2827 25.9947 83.464 26.784 83.464C27.5733 83.464 28.2453 83.2667 28.8 82.872C29.3653 82.4773 29.776 81.96 30.032 81.32L31.728 82.12C31.5253 82.6533 31.1947 83.1547 30.736 83.624C30.2773 84.0933 29.712 84.472 29.04 84.76C28.3787 85.048 27.6267 85.192 26.784 85.192ZM35.9293 85.192C35.3426 85.192 34.8253 85.0907 34.3773 84.888C33.9399 84.6747 33.5986 84.3867 33.3533 84.024C33.1079 83.6507 32.9853 83.2133 32.9853 82.712C32.9853 82.2427 33.0866 81.8213 33.2893 81.448C33.5026 81.0747 33.8279 80.76 34.2653 80.504C34.7026 80.248 35.2519 80.0667 35.9133 79.96L38.9213 79.464V80.888L36.2653 81.352C35.7853 81.4373 35.4333 81.592 35.2093 81.816C34.9853 82.0293 34.8733 82.3067 34.8733 82.648C34.8733 82.9787 34.9959 83.2507 35.2413 83.464C35.4973 83.6667 35.8226 83.768 36.2173 83.768C36.7079 83.768 37.1346 83.6613 37.4973 83.448C37.8706 83.2347 38.1586 82.952 38.3613 82.6C38.5639 82.2373 38.6653 81.8373 38.6653 81.4V79.176C38.6653 78.7493 38.5053 78.4027 38.1853 78.136C37.8759 77.8587 37.4599 77.72 36.9373 77.72C36.4573 77.72 36.0359 77.848 35.6733 78.104C35.3213 78.3493 35.0599 78.6693 34.8893 79.064L33.3853 78.312C33.5453 77.8853 33.8066 77.512 34.1693 77.192C34.5319 76.8613 34.9533 76.6053 35.4333 76.424C35.9239 76.2427 36.4413 76.152 36.9852 76.152C37.6679 76.152 38.2706 76.28 38.7933 76.536C39.3266 76.792 39.7373 77.1493 40.0253 77.608C40.3239 78.056 40.4733 78.5787 40.4733 79.176V85H38.7453V83.432L39.1133 83.48C38.9106 83.832 38.6493 84.136 38.3293 84.392C38.0199 84.648 37.6626 84.8453 37.2573 84.984C36.8626 85.1227 36.4199 85.192 35.9293 85.192ZM42.5872 85V76.344H44.3153V78.088L44.1553 77.832C44.3473 77.2667 44.6566 76.8613 45.0833 76.616C45.5099 76.36 46.0219 76.232 46.6193 76.232H47.1473V77.88H46.3953C45.7979 77.88 45.3126 78.0667 44.9393 78.44C44.5766 78.8027 44.3953 79.3253 44.3953 80.008V85H42.5872ZM52.3841 85.192C51.5521 85.192 50.8055 84.9947 50.1441 84.6C49.4935 84.1947 48.9761 83.6507 48.5921 82.968C48.2188 82.2853 48.0321 81.5173 48.0321 80.664C48.0321 79.8107 48.2241 79.0427 48.6081 78.36C48.9921 77.6773 49.5095 77.1387 50.1601 76.744C50.8108 76.3493 51.5468 76.152 52.3681 76.152C53.0615 76.152 53.6748 76.2907 54.2081 76.568C54.7415 76.8453 55.1628 77.2293 55.4721 77.72L55.2001 78.136V72.888H56.9921V85H55.2801V83.24L55.4881 83.576C55.1895 84.0987 54.7628 84.4987 54.2081 84.776C53.6535 85.0533 53.0455 85.192 52.3841 85.192ZM52.5601 83.512C53.0615 83.512 53.5095 83.3893 53.9041 83.144C54.3095 82.8987 54.6241 82.5627 54.8481 82.136C55.0828 81.6987 55.2001 81.208 55.2001 80.664C55.2001 80.12 55.0828 79.6347 54.8481 79.208C54.6241 78.7813 54.3095 78.4453 53.9041 78.2C53.5095 77.9547 53.0615 77.832 52.5601 77.832C52.0588 77.832 51.6055 77.9547 51.2001 78.2C50.7948 78.4453 50.4801 78.7813 50.2561 79.208C50.0321 79.6347 49.9201 80.12 49.9201 80.664C49.9201 81.208 50.0321 81.6987 50.2561 82.136C50.4801 82.5627 50.7895 82.8987 51.1841 83.144C51.5895 83.3893 52.0481 83.512 52.5601 83.512Z" fill="#1B1B1B"/>
<rect x="20" y="98" width="70" height="50" rx="4" fill="#016FD0"/>
<path fill-rule="evenodd" clip-rule="evenodd" d="M33.5977 135.232V124.349H45.1819L46.4248 125.961L47.7087 124.349H89.7567V134.482C89.7567 134.482 88.6571 135.221 87.3853 135.232H64.1025L62.7012 133.517V135.232H58.1093V132.304C58.1093 132.304 57.482 132.712 56.1259 132.712H54.563V135.232H47.6105L46.3694 133.586L45.1092 135.232H33.5977Z" fill="white"/>
<path fill-rule="evenodd" clip-rule="evenodd" d="M20.0703 116.147L22.6826 110.089H27.2003L28.6828 113.482V110.089H34.2987L35.1812 112.541L36.0368 110.089H61.2464V111.322C61.2464 111.322 62.5717 110.089 64.7496 110.089L72.9292 110.117L74.3861 113.466V110.089H79.0858L80.3793 112.013V110.089H85.1221V120.972H80.3793L79.1397 119.042V120.972H72.2348L71.5405 119.256H69.6842L69.0011 120.972H64.3185C62.4444 120.972 61.2464 119.764 61.2464 119.764V120.972H54.1861L52.7848 119.256V120.972H26.531L25.8371 119.256H23.9868L23.2978 120.972H20.0703L20.0703 116.147Z" fill="white"/>
<path fill-rule="evenodd" clip-rule="evenodd" d="M20.082 119.579L23.6054 111.43H26.2766L29.7967 119.579H27.4522L26.8055 117.947H23.0261L22.376 119.579H20.082ZM26.0611 116.178L24.909 113.327L23.7537 116.178H26.0611Z" fill="#016FD0"/>
<path fill-rule="evenodd" clip-rule="evenodd" d="M30.0391 119.578V111.429L33.2989 111.441L35.1949 116.695L37.0455 111.429H40.2792V119.578H38.2312V113.573L36.0602 119.578H34.2641L32.0871 113.573V119.578H30.0391Z" fill="#016FD0"/>
<path fill-rule="evenodd" clip-rule="evenodd" d="M41.6836 119.578V111.429H48.3666V113.252H43.7532V114.646H48.2588V116.361H43.7532V117.809H48.3666V119.578H41.6836Z" fill="#016FD0"/>
<path fill-rule="evenodd" clip-rule="evenodd" d="M49.5508 119.579V111.43H54.1083C55.6184 111.43 56.9715 112.359 56.9715 114.074C56.9715 115.54 55.8307 116.484 54.7247 116.577L57.4195 119.579H54.9167L52.4611 116.684H51.5988V119.579H49.5508ZM53.9399 113.253H51.5988V114.969H53.9702C54.3807 114.969 54.91 114.652 54.91 114.111C54.91 113.69 54.5015 113.253 53.9399 113.253Z" fill="#016FD0"/>
<path fill-rule="evenodd" clip-rule="evenodd" d="M59.8997 119.578H57.8086V111.429H59.8997V119.578Z" fill="#016FD0"/>
<path fill-rule="evenodd" clip-rule="evenodd" d="M64.8558 119.578H64.4045C62.2205 119.578 60.8945 117.866 60.8945 115.537C60.8945 113.15 62.2057 111.429 64.9636 111.429H67.2272V113.359H64.8809C63.7613 113.359 62.9695 114.228 62.9695 115.557C62.9695 117.135 63.8749 117.798 65.1792 117.798H65.7182L64.8558 119.578Z" fill="#016FD0"/>
<path fill-rule="evenodd" clip-rule="evenodd" d="M65.7891 119.579L69.3125 111.43H71.9837L75.5037 119.579H73.1593L72.5125 117.947H68.7331L68.083 119.579H65.7891ZM71.7681 116.178L70.6161 113.327L69.4607 116.178H71.7681Z" fill="#016FD0"/>
<path fill-rule="evenodd" clip-rule="evenodd" d="M75.7461 119.578V111.429H78.3499L81.6746 116.549V111.429H83.7226V119.578H81.203L77.7941 114.324V119.578H75.7461Z" fill="#016FD0"/>
<path fill-rule="evenodd" clip-rule="evenodd" d="M35 133.838V125.689H41.683V127.512H37.0696V128.906H41.5752V130.622H37.0696V132.069H41.683V133.838H35Z" fill="#016FD0"/>
<path fill-rule="evenodd" clip-rule="evenodd" d="M67.7461 133.838V125.689H74.4291V127.512H69.8157V128.906H74.2998V130.622H69.8157V132.069H74.4291V133.838H67.7461Z" fill="#016FD0"/>
<path fill-rule="evenodd" clip-rule="evenodd" d="M41.9408 133.838L45.1947 129.814L41.8633 125.689H44.4435L46.4276 128.239L48.4183 125.689H50.8975L47.6099 129.764L50.8698 133.838H48.29L46.3636 131.329L44.4839 133.838H41.9408Z" fill="#016FD0"/>
<path fill-rule="evenodd" clip-rule="evenodd" d="M51.1133 133.84V125.691H55.6371C57.4934 125.691 58.5778 126.881 58.5778 128.432C58.5778 130.304 57.1951 131.266 55.371 131.266H53.2152V133.84H51.1133ZM55.4855 127.534H53.2152V129.41H55.4788C56.077 129.41 56.4961 129.016 56.4961 128.472C56.4961 127.893 56.0749 127.534 55.4855 127.534Z" fill="#016FD0"/>
<path fill-rule="evenodd" clip-rule="evenodd" d="M59.4688 133.838V125.689H64.0263C65.5364 125.689 66.8895 126.618 66.8895 128.333C66.8895 129.799 65.7487 130.743 64.6427 130.836L67.3375 133.838H64.8347L62.3791 130.943H61.5168V133.838H59.4688ZM63.8579 127.512H61.5168V129.228H63.8882C64.2987 129.228 64.828 128.911 64.828 128.37C64.828 127.949 64.4195 127.512 63.8579 127.512Z" fill="#016FD0"/>
<path fill-rule="evenodd" clip-rule="evenodd" d="M75.3772 133.838V132.069H79.476C80.0824 132.069 80.345 131.743 80.345 131.386C80.345 131.043 80.0833 130.697 79.476 130.697H77.6238C76.0138 130.697 75.1172 129.721 75.1172 128.256C75.1172 126.949 75.9383 125.689 78.3307 125.689H82.319L81.4566 127.523H78.0073C77.348 127.523 77.145 127.867 77.145 128.196C77.145 128.534 77.3958 128.906 77.8995 128.906H79.8398C81.6345 128.906 82.4133 129.919 82.4133 131.245C82.4133 132.671 81.5455 133.838 79.7421 133.838H75.3772Z" fill="#016FD0"/>
<path fill-rule="evenodd" clip-rule="evenodd" d="M82.8929 133.838V132.069H86.9916C87.5981 132.069 87.8607 131.743 87.8607 131.386C87.8607 131.043 87.5989 130.697 86.9916 130.697H85.1394C83.5294 130.697 82.6328 129.721 82.6328 128.256C82.6328 126.949 83.4539 125.689 85.8463 125.689H89.8346L88.9723 127.523H85.523C84.8636 127.523 84.6606 127.867 84.6606 128.196C84.6606 128.534 84.9115 128.906 85.4152 128.906H87.3554C89.1501 128.906 89.9289 129.919 89.9289 131.245C89.9289 132.671 89.0611 133.838 87.2577 133.838H82.8929Z" fill="#016FD0"/>
<rect x="110" y="98" width="70" height="50" rx="4" fill="#262626"/>
<g opacity="0.01">
<rect x="125" y="110" width="39.8152" height="25.9701" fill="white"/>
</g>
<rect x="139.656" y="114.525" width="10.503" height="16.9179" fill="#FF5F00"/>
<path fill-rule="evenodd" clip-rule="evenodd" d="M140.741 122.985C140.738 119.684 142.275 116.566 144.908 114.528C140.435 111.061 134.012 111.566 130.152 115.688C126.293 119.809 126.293 126.164 130.152 130.286C134.012 134.407 140.435 134.912 144.908 131.446C142.274 129.407 140.737 126.287 140.741 122.985Z" fill="#EB001B"/>
<path fill-rule="evenodd" clip-rule="evenodd" d="M161.535 129.379V130.083H161.461V129.379H161.305V129.234H161.701V129.379H161.535ZM162.305 129.234V130.083H162.221V129.44L162.091 129.992H162.001L161.871 129.44V130.083H161.785V129.234H161.905L162.045 129.84L162.185 129.234H162.305Z" fill="#F79E1B"/>
<path fill-rule="evenodd" clip-rule="evenodd" d="M162.558 122.985C162.558 127.104 160.173 130.862 156.416 132.662C152.659 134.462 148.19 133.988 144.906 131.443C147.538 129.403 149.075 126.285 149.075 122.984C149.075 119.683 147.538 116.564 144.906 114.525C148.19 111.979 152.659 111.505 156.416 113.305C160.173 115.105 162.558 118.863 162.558 122.982V122.985Z" fill="#F79E1B"/>
<rect x="200" y="98" width="70" height="50" rx="4" fill="#0742A6"/>
<path fill-rule="evenodd" clip-rule="evenodd" d="M232.02 129.744H228.48L230.694 116.412H234.234L232.02 129.744Z" fill="white"/>
<path fill-rule="evenodd" clip-rule="evenodd" d="M244.852 116.738C244.154 116.468 243.047 116.17 241.678 116.17C238.182 116.17 235.721 117.986 235.705 120.581C235.676 122.496 237.468 123.559 238.808 124.198C240.177 124.85 240.643 125.276 240.643 125.858C240.629 126.751 239.536 127.163 238.517 127.163C237.104 127.163 236.347 126.95 235.196 126.453L234.73 126.24L234.234 129.233C235.065 129.601 236.594 129.928 238.182 129.943C241.896 129.943 244.314 128.155 244.343 125.39C244.357 123.872 243.411 122.709 241.372 121.759C240.134 121.149 239.375 120.737 239.375 120.113C239.39 119.546 240.017 118.965 241.414 118.965C242.565 118.936 243.41 119.206 244.051 119.475L244.371 119.617L244.852 116.738Z" fill="white"/>
<path fill-rule="evenodd" clip-rule="evenodd" d="M251.19 116.412H253.928L256.783 129.744H253.506C253.506 129.744 253.185 128.212 253.084 127.744H248.539C248.408 128.098 247.796 129.744 247.796 129.744H244.082L249.34 117.518C249.704 116.653 250.346 116.412 251.19 116.412ZM250.972 121.291C250.972 121.291 249.85 124.255 249.559 125.021H252.501C252.355 124.354 251.685 121.163 251.685 121.163L251.437 120.014C251.333 120.31 251.183 120.717 251.081 120.991C251.012 121.177 250.966 121.302 250.972 121.291Z" fill="white"/>
<path fill-rule="evenodd" clip-rule="evenodd" d="M225.524 116.412L222.058 125.503L221.679 123.659C221.038 121.532 219.028 119.22 216.785 118.071L219.96 129.73H223.704L229.267 116.412H225.524V116.412Z" fill="white"/>
<path fill-rule="evenodd" clip-rule="evenodd" d="M218.839 116.412H213.144L213.086 116.681C217.528 117.788 220.471 120.454 221.679 123.66L220.441 117.533C220.238 116.681 219.611 116.44 218.839 116.412Z" fill="white"/>
<path d="M24.4 183L20.176 171.08H22.208L25.664 181.256H25.264L28.704 171.08H30.736L26.512 183H24.4ZM31.9622 183V174.344H33.7703V183H31.9622ZM31.9622 173.16V171.08H33.7703V173.16H31.9622ZM35.8841 183V174.344H37.6121V176.088L37.4521 175.832C37.6441 175.267 37.9535 174.861 38.3801 174.616C38.8068 174.36 39.3188 174.232 39.9161 174.232H40.4441V175.88H39.6921C39.0948 175.88 38.6095 176.067 38.2361 176.44C37.8735 176.803 37.6921 177.325 37.6921 178.008V183H35.8841ZM45.5813 183.096C44.6746 183.096 43.9706 182.84 43.4693 182.328C42.9679 181.816 42.7173 181.096 42.7173 180.168V175.976H41.1973V174.344H41.4373C41.8426 174.344 42.1573 174.227 42.3813 173.992C42.6053 173.757 42.7173 173.437 42.7173 173.032V172.36H44.5253V174.344H46.4933V175.976H44.5253V180.088C44.5253 180.387 44.5733 180.643 44.6693 180.856C44.7653 181.059 44.9199 181.219 45.1333 181.336C45.3466 181.443 45.6239 181.496 45.9653 181.496C46.0506 181.496 46.1466 181.491 46.2533 181.48C46.3599 181.469 46.4613 181.459 46.5573 181.448V183C46.4079 183.021 46.2426 183.043 46.0613 183.064C45.8799 183.085 45.7199 183.096 45.5813 183.096ZM51.4096 183.192C50.759 183.192 50.1883 183.048 49.6976 182.76C49.207 182.461 48.823 182.051 48.5456 181.528C48.279 180.995 48.1456 180.381 48.1456 179.688V174.344H49.9536V179.528C49.9536 179.923 50.0336 180.269 50.1936 180.568C50.3536 180.867 50.5776 181.101 50.8656 181.272C51.1536 181.432 51.4843 181.512 51.8576 181.512C52.2416 181.512 52.5776 181.427 52.8656 181.256C53.1536 181.085 53.3776 180.845 53.5376 180.536C53.7083 180.227 53.7936 179.864 53.7936 179.448V174.344H55.5856V183H53.8736V181.304L54.0656 181.528C53.863 182.061 53.527 182.472 53.0576 182.76C52.5883 183.048 52.039 183.192 51.4096 183.192ZM60.2886 183.192C59.702 183.192 59.1846 183.091 58.7366 182.888C58.2993 182.675 57.958 182.387 57.7126 182.024C57.4673 181.651 57.3446 181.213 57.3446 180.712C57.3446 180.243 57.446 179.821 57.6486 179.448C57.862 179.075 58.1873 178.76 58.6246 178.504C59.062 178.248 59.6113 178.067 60.2726 177.96L63.2806 177.464V178.888L60.6246 179.352C60.1446 179.437 59.7926 179.592 59.5686 179.816C59.3446 180.029 59.2326 180.307 59.2326 180.648C59.2326 180.979 59.3553 181.251 59.6006 181.464C59.8566 181.667 60.182 181.768 60.5766 181.768C61.0673 181.768 61.494 181.661 61.8566 181.448C62.23 181.235 62.518 180.952 62.7206 180.6C62.9233 180.237 63.0246 179.837 63.0246 179.4V177.176C63.0246 176.749 62.8646 176.403 62.5446 176.136C62.2353 175.859 61.8193 175.72 61.2966 175.72C60.8166 175.72 60.3953 175.848 60.0326 176.104C59.6806 176.349 59.4193 176.669 59.2486 177.064L57.7446 176.312C57.9046 175.885 58.166 175.512 58.5286 175.192C58.8913 174.861 59.3126 174.605 59.7926 174.424C60.2833 174.243 60.8006 174.152 61.3446 174.152C62.0273 174.152 62.63 174.28 63.1526 174.536C63.686 174.792 64.0966 175.149 64.3846 175.608C64.6833 176.056 64.8326 176.579 64.8326 177.176V183H63.1046V181.432L63.4726 181.48C63.27 181.832 63.0086 182.136 62.6886 182.392C62.3793 182.648 62.022 182.845 61.6166 182.984C61.222 183.123 60.7793 183.192 60.2886 183.192ZM66.9466 183V170.888H68.7546V183H66.9466ZM72.7854 183L76.9774 171.08H79.3134L83.5054 183H81.4894L80.5774 180.328H75.7294L74.8014 183H72.7854ZM76.2734 178.648H80.0014L77.8894 172.408H78.4174L76.2734 178.648ZM88.543 183.192C87.679 183.192 86.911 182.995 86.239 182.6C85.5777 182.195 85.0497 181.651 84.655 180.968C84.271 180.285 84.079 179.512 84.079 178.648C84.079 177.795 84.271 177.027 84.655 176.344C85.039 175.661 85.567 175.128 86.239 174.744C86.911 174.349 87.679 174.152 88.543 174.152C89.1297 174.152 89.679 174.259 90.191 174.472C90.703 174.675 91.1457 174.957 91.519 175.32C91.903 175.683 92.1857 176.104 92.367 176.584L90.783 177.32C90.6017 176.872 90.3083 176.515 89.903 176.248C89.5083 175.971 89.055 175.832 88.543 175.832C88.0523 175.832 87.6097 175.955 87.215 176.2C86.831 176.435 86.527 176.771 86.303 177.208C86.079 177.635 85.967 178.12 85.967 178.664C85.967 179.208 86.079 179.699 86.303 180.136C86.527 180.563 86.831 180.899 87.215 181.144C87.6097 181.389 88.0523 181.512 88.543 181.512C89.0657 181.512 89.519 181.379 89.903 181.112C90.2977 180.835 90.591 180.467 90.783 180.008L92.367 180.76C92.1963 181.219 91.919 181.635 91.535 182.008C91.1617 182.371 90.719 182.659 90.207 182.872C89.695 183.085 89.1403 183.192 88.543 183.192ZM98.2461 183.192C97.3821 183.192 96.6141 182.995 95.9421 182.6C95.2808 182.195 94.7528 181.651 94.3581 180.968C93.9741 180.285 93.7821 179.512 93.7821 178.648C93.7821 177.795 93.9741 177.027 94.3581 176.344C94.7421 175.661 95.2701 175.128 95.9421 174.744C96.6141 174.349 97.3821 174.152 98.2461 174.152C98.8328 174.152 99.3821 174.259 99.8941 174.472C100.406 174.675 100.849 174.957 101.222 175.32C101.606 175.683 101.889 176.104 102.07 176.584L100.486 177.32C100.305 176.872 100.011 176.515 99.6061 176.248C99.2115 175.971 98.7581 175.832 98.2461 175.832C97.7555 175.832 97.3128 175.955 96.9181 176.2C96.5341 176.435 96.2301 176.771 96.0061 177.208C95.7821 177.635 95.6701 178.12 95.6701 178.664C95.6701 179.208 95.7821 179.699 96.0061 180.136C96.2301 180.563 96.5341 180.899 96.9181 181.144C97.3128 181.389 97.7555 181.512 98.2461 181.512C98.7688 181.512 99.2221 181.379 99.6061 181.112C100.001 180.835 100.294 180.467 100.486 180.008L102.07 180.76C101.899 181.219 101.622 181.635 101.238 182.008C100.865 182.371 100.422 182.659 99.9101 182.872C99.3981 183.085 98.8435 183.192 98.2461 183.192ZM108.013 183.192C107.181 183.192 106.419 182.995 105.725 182.6C105.043 182.205 104.499 181.667 104.093 180.984C103.688 180.301 103.485 179.528 103.485 178.664C103.485 177.789 103.688 177.016 104.093 176.344C104.499 175.661 105.043 175.128 105.725 174.744C106.408 174.349 107.171 174.152 108.013 174.152C108.867 174.152 109.629 174.349 110.301 174.744C110.984 175.128 111.523 175.661 111.917 176.344C112.323 177.016 112.525 177.789 112.525 178.664C112.525 179.539 112.323 180.317 111.917 181C111.512 181.683 110.968 182.221 110.285 182.616C109.603 183 108.845 183.192 108.013 183.192ZM108.013 181.512C108.525 181.512 108.979 181.389 109.373 181.144C109.768 180.899 110.077 180.563 110.301 180.136C110.536 179.699 110.653 179.208 110.653 178.664C110.653 178.12 110.536 177.635 110.301 177.208C110.077 176.781 109.768 176.445 109.373 176.2C108.979 175.955 108.525 175.832 108.013 175.832C107.512 175.832 107.059 175.955 106.653 176.2C106.259 176.445 105.944 176.781 105.709 177.208C105.485 177.635 105.373 178.12 105.373 178.664C105.373 179.208 105.485 179.699 105.709 180.136C105.944 180.563 106.259 180.899 106.653 181.144C107.059 181.389 107.512 181.512 108.013 181.512ZM117.378 183.192C116.728 183.192 116.157 183.048 115.666 182.76C115.176 182.461 114.792 182.051 114.514 181.528C114.248 180.995 114.114 180.381 114.114 179.688V174.344H115.922V179.528C115.922 179.923 116.002 180.269 116.162 180.568C116.322 180.867 116.546 181.101 116.834 181.272C117.122 181.432 117.453 181.512 117.826 181.512C118.21 181.512 118.546 181.427 118.834 181.256C119.122 181.085 119.346 180.845 119.506 180.536C119.677 180.227 119.762 179.864 119.762 179.448V174.344H121.554V183H119.842V181.304L120.034 181.528C119.832 182.061 119.496 182.472 119.026 182.76C118.557 183.048 118.008 183.192 117.378 183.192ZM123.665 183V174.344H125.393V176.04L125.185 175.816C125.399 175.272 125.74 174.861 126.209 174.584C126.679 174.296 127.223 174.152 127.841 174.152C128.481 174.152 129.047 174.291 129.537 174.568C130.028 174.845 130.412 175.229 130.689 175.72C130.967 176.211 131.105 176.776 131.105 177.416V183H129.313V177.896C129.313 177.459 129.233 177.091 129.073 176.792C128.913 176.483 128.684 176.248 128.385 176.088C128.097 175.917 127.767 175.832 127.393 175.832C127.02 175.832 126.684 175.917 126.385 176.088C126.097 176.248 125.873 176.483 125.713 176.792C125.553 177.101 125.473 177.469 125.473 177.896V183H123.665ZM136.784 183.096C135.878 183.096 135.174 182.84 134.672 182.328C134.171 181.816 133.92 181.096 133.92 180.168V175.976H132.4V174.344H132.64C133.046 174.344 133.36 174.227 133.584 173.992C133.808 173.757 133.92 173.437 133.92 173.032V172.36H135.728V174.344H137.696V175.976H135.728V180.088C135.728 180.387 135.776 180.643 135.872 180.856C135.968 181.059 136.123 181.219 136.336 181.336C136.55 181.443 136.827 181.496 137.168 181.496C137.254 181.496 137.35 181.491 137.456 181.48C137.563 181.469 137.664 181.459 137.76 181.448V183C137.611 183.021 137.446 183.043 137.264 183.064C137.083 183.085 136.923 183.096 136.784 183.096Z" fill="#1B1B1B"/>
<rect x="20" y="196" width="70" height="50" rx="4" fill="#FEF200"/>
<path fill-rule="evenodd" clip-rule="evenodd" d="M51.2003 215.4H53.1157C53.7791 215.4 54.2713 215.537 54.2713 216.273C54.2713 217.028 53.5245 217.248 52.9319 217.248H50.8253L51.2003 215.4ZM45.6562 224.69H52.607C55.2585 224.69 57.5984 223.523 57.5984 220.577C57.5984 219.45 56.8876 218.369 55.7645 218.129V218.096H55.7815C57.2427 217.704 58.0053 216.692 58.0053 215.153C58.0053 213.386 57.0212 212.463 54.3902 212.463H48.1686L45.6562 224.69ZM50.3663 219.526H52.4184C53.2008 219.526 53.8661 219.663 53.8661 220.574C53.8661 221.565 52.9502 221.803 52.2846 221.803H49.89L50.3663 219.526Z" fill="#0069AC"/>
<path fill-rule="evenodd" clip-rule="evenodd" d="M60.7797 224.689H64.5113L66.3803 215.594H69.7411L70.3889 212.463H59.9289L59.2852 215.594H62.6461L60.7797 224.689Z" fill="#0069AC"/>
<path fill-rule="evenodd" clip-rule="evenodd" d="M69.1992 224.689H72.7468L74.1549 217.84H74.1878L76.4114 224.689H80.0784L82.6269 212.463H79.076L77.7186 219.141H77.6866L75.4119 212.463H71.7089L69.1992 224.689Z" fill="#0069AC"/>
<mask id="mask0_1132_44230" style="mask-type:luminance" maskUnits="userSpaceOnUse" x="44" y="226" width="39" height="8">
<path fill-rule="evenodd" clip-rule="evenodd" d="M63.4943 233.122H82.7152V226.908H44.2734V233.122H63.4943Z" fill="white"/>
</mask>
<g mask="url(#mask0_1132_44230)">
<path fill-rule="evenodd" clip-rule="evenodd" d="M44.2734 233.122C44.3855 232.706 44.3393 232.708 44.615 231.586C44.8132 230.479 46.0214 228.785 48.151 228.611C48.8767 228.523 76.7572 227.329 82.7153 226.908L82.5362 227.947C76.9235 228.679 51.5271 232.152 44.2734 233.122Z" fill="#E31C24"/>
</g>
<path fill-rule="evenodd" clip-rule="evenodd" d="M26.3594 214.685L33.9944 210.239L41.6305 214.685V223.577L39.721 224.691V215.799L33.9944 212.462L28.2696 215.799V224.691L26.3594 223.577V214.685Z" fill="#0069AC"/>
<path fill-rule="evenodd" clip-rule="evenodd" d="M32.0859 224.691V226.911L33.9945 225.8L35.904 226.911V224.691L33.9945 223.577L32.0859 224.691Z" fill="#A68561"/>
<path fill-rule="evenodd" clip-rule="evenodd" d="M39.719 224.691V222.465L33.9924 219.13L28.2695 222.465V224.691L33.9924 221.353L39.719 224.691Z" fill="#A68561"/>
<path fill-rule="evenodd" clip-rule="evenodd" d="M33.9942 214.685L37.8123 216.909V225.8L35.9044 226.91V218.019L33.9942 216.909L32.0868 218.019V226.91L30.1797 225.8V216.909L33.9942 214.685Z" fill="#0069AC"/>
<rect x="110" y="196" width="70" height="50" rx="4" fill="#EE3124"/>
<path fill-rule="evenodd" clip-rule="evenodd" d="M116 228.797H131.989V213H116V228.797Z" fill="white"/>
<path fill-rule="evenodd" clip-rule="evenodd" d="M126.657 215.985H118.16L121.923 220.898H130.42L126.657 215.985Z" fill="#ED3124"/>
<path fill-rule="evenodd" clip-rule="evenodd" d="M130.42 220.898H121.923L118.16 225.81H126.657L130.42 220.898Z" fill="#820024"/>
<path fill-rule="evenodd" clip-rule="evenodd" d="M170.479 224.198H168.407V221.763H170.479C171.446 221.763 171.791 222.389 171.791 222.974C171.791 223.566 171.446 224.198 170.479 224.198ZM168.407 217.598H170.347C171.161 217.598 171.646 218.022 171.646 218.737C171.646 219.45 171.161 219.874 170.347 219.874H168.407V217.598ZM172.533 220.767C172.998 220.515 173.76 219.805 173.76 218.65C173.76 216.845 172.514 215.721 170.507 215.721H166.292V226.072H170.685C172.671 226.072 173.906 224.925 173.906 223.075C173.906 221.685 173.08 221.04 172.533 220.767ZM158.062 222.335C157.982 222.2 154.361 215.701 154.361 215.701H152.293V226.053H154.407V219.869C154.567 220.14 158.062 226.136 158.062 226.136C158.062 226.136 161.54 220.14 161.695 219.87V226.053H163.811V215.701H161.744C161.744 215.701 158.135 222.2 158.062 222.335ZM147.582 226.072H149.704V215.721H147.582V226.072ZM144.08 223.579C143.463 224.066 142.716 224.322 141.929 224.322C140.017 224.322 138.531 222.818 138.531 220.898C138.531 218.977 140.017 217.473 141.929 217.473C142.716 217.473 143.463 217.729 144.08 218.217L144.109 218.24L145.583 216.784L145.549 216.753C144.541 215.892 143.257 215.417 141.929 215.417C138.836 215.417 136.32 217.876 136.32 220.898C136.32 223.919 138.836 226.377 141.929 226.377C143.257 226.377 144.541 225.903 145.549 225.042L145.583 225.01L144.109 223.556L144.08 223.579Z" fill="white"/>
<rect x="200" y="196" width="70" height="50" rx="4" fill="#FFCE4C"/>
<path fill-rule="evenodd" clip-rule="evenodd" d="M223.836 224.733L225.586 219.947L226.159 224.733H228.008L227.006 217.703H224.75L223.256 221.926L221.762 217.703H219.506L218.504 224.733H220.353L220.925 219.947L222.676 224.733H223.836Z" fill="#231F20"/>
<path fill-rule="evenodd" clip-rule="evenodd" d="M238.193 219.505L236.939 223.161L235.667 219.505H233.555L235.932 224.733L234.99 226.784H237.038L240.306 219.505H238.193Z" fill="#231F20"/>
<path fill-rule="evenodd" clip-rule="evenodd" d="M258.93 217.123V224.727H260.845V222.08L262.809 224.727H264.988L262.826 221.932L264.795 219.505H262.595L260.845 221.788V217.123H258.93Z" fill="#231F20"/>
<path fill-rule="evenodd" clip-rule="evenodd" d="M242.562 223.521V220.771C242.95 220.64 244.355 220.288 244.355 222.075C244.355 223.895 242.913 223.616 242.562 223.521ZM240.613 224.464C240.613 224.464 241.626 224.843 243.046 224.843C244.465 224.843 246.314 224.402 246.314 221.954C246.314 219.505 243.86 219.417 243.574 219.417C243.034 219.417 242.688 219.564 242.562 219.629V217.112H240.613V224.464Z" fill="#231F20"/>
<path fill-rule="evenodd" clip-rule="evenodd" d="M248.341 223.122C248.341 222.371 249.766 222.317 250.158 222.317V223.655C249.75 223.704 248.341 223.82 248.341 223.122ZM247.361 220.829C250.157 220.001 250.158 220.995 250.158 221.126V221.304C247.895 221.323 246.547 221.971 246.547 223.145C246.547 224.336 247.802 224.854 249.464 224.854C251.126 224.854 251.973 224.468 251.973 224.468V221.215C251.973 220.068 251.236 219.34 249.464 219.34C247.692 219.34 246.922 219.759 246.922 219.759L247.361 220.829Z" fill="#231F20"/>
<path fill-rule="evenodd" clip-rule="evenodd" d="M230.048 223.122C230.048 222.371 231.473 222.317 231.864 222.317V223.655C231.457 223.704 230.048 223.82 230.048 223.122ZM229.068 220.829C231.864 220.001 231.864 220.995 231.864 221.126V221.304C229.602 221.323 228.254 221.971 228.254 223.145C228.254 224.336 229.509 224.854 231.171 224.854C232.833 224.854 233.68 224.468 233.68 224.468V221.215C233.68 220.068 232.943 219.34 231.171 219.34C229.399 219.34 228.628 219.759 228.628 219.759L229.068 220.829Z" fill="#231F20"/>
<path fill-rule="evenodd" clip-rule="evenodd" d="M256.277 224.722H258.203V221.414C258.203 219.693 256.971 219.329 255.451 219.329C253.933 219.329 252.711 219.748 252.711 219.748V224.722H254.637V220.766C256.118 220.332 256.277 221.045 256.277 221.391V224.722Z" fill="#231F20"/>
<path fill-rule="evenodd" clip-rule="evenodd" d="M208.329 219.167C208.329 219.167 208.453 218.678 208.651 218.513C208.849 218.348 209.561 217.876 210.59 217.545C210.713 217.506 210.855 217.551 210.862 217.553C210.855 217.594 210.851 217.621 210.849 217.63C210.835 217.708 210.777 217.757 210.777 217.757C210.987 217.785 211.124 217.636 211.163 217.465C211.201 217.295 211.333 216.617 211.548 216.627C212.148 216.654 212.577 218.596 212.533 218.684C212.504 218.741 212.269 218.695 212.269 218.695C212.643 219.285 213.133 219.279 213.243 219.186C213.353 219.092 213.292 218.789 213.292 218.789C214.47 219.489 214.404 220.322 214.404 220.322C214.756 218.943 213.942 218.353 213.942 218.353C214.261 218.342 214.608 218.546 214.608 218.546C214.112 217.879 213.089 217.509 213.089 217.509C213.089 217.509 211.895 216.18 211.51 216.23C211.19 216.271 211.008 216.858 210.918 217.259C210.875 217.256 210.791 217.252 210.682 217.265C210.597 217.16 210.24 216.735 210.101 216.875C210.047 216.929 210.029 217.312 210.025 217.473C209.446 217.704 208.462 218.137 208.262 218.454C208.081 218.744 208.039 218.96 208.039 218.96C208.039 218.96 206.86 219.72 206.57 220.548C206.57 220.548 207.363 219.621 208.329 219.167Z" fill="#231F20"/>
<mask id="mask1_1132_44230" style="mask-type:luminance" maskUnits="userSpaceOnUse" x="205" y="215" width="12" height="13">
<path fill-rule="evenodd" clip-rule="evenodd" d="M205 215.36H216.692V227.076H205V215.36Z" fill="white"/>
</mask>
<g mask="url(#mask1_1132_44230)">
<path fill-rule="evenodd" clip-rule="evenodd" d="M210.846 215.36C207.623 215.36 205 217.988 205 221.217C205 224.447 207.623 227.076 210.846 227.076C214.07 227.076 216.692 224.447 216.692 221.217C216.692 217.988 214.07 215.36 210.846 215.36ZM210.846 215.849C213.805 215.849 216.203 218.252 216.203 221.217C216.203 224.182 213.805 226.586 210.846 226.586C207.888 226.586 205.489 224.182 205.489 221.217C205.489 218.252 207.888 215.849 210.846 215.849Z" fill="#231F20"/>
</g>
<path fill-rule="evenodd" clip-rule="evenodd" d="M212.126 218.552C212.109 217.939 211.807 217.449 211.653 217.421C211.499 217.394 211.449 217.977 211.449 217.977C211.857 218.247 212.126 218.552 212.126 218.552Z" fill="#231F20"/>
<path fill-rule="evenodd" clip-rule="evenodd" d="M209.225 218.442C208.989 218.584 209.093 218.706 209.093 218.706C209.093 218.706 209.055 218.584 209.347 218.502C209.867 218.355 210.337 218.204 210.326 218.077C210.315 217.951 209.963 217.901 209.963 217.901C210.062 218.033 209.462 218.298 209.225 218.442Z" fill="#231F20"/>
<path fill-rule="evenodd" clip-rule="evenodd" d="M209.471 219.252C209.542 219.252 209.6 219.194 209.6 219.122C209.6 219.083 209.582 219.049 209.555 219.026C209.641 219.02 209.837 219.031 209.837 219.031C209.815 219.026 209.765 219.081 209.655 219.219C209.545 219.357 209.441 219.252 209.441 219.252L209.439 219.246C209.449 219.248 209.46 219.252 209.471 219.252ZM209.055 219.842C209.055 219.842 209.204 219.495 209.314 219.451C209.314 219.451 209.507 219.5 209.611 219.461C209.716 219.423 209.914 219.158 209.991 219.153C209.991 219.153 209.787 220.04 208.962 220.024C208.962 220.024 209.556 220.36 209.859 220.123C210.162 219.886 209.93 219.704 210.321 219.323C210.712 218.942 210.453 218.927 210.437 218.932C210.42 218.937 210.299 218.899 210.299 218.899C210.299 218.899 210.354 218.827 210.464 218.778C210.574 218.728 211.207 218.442 211.218 218.27C211.229 218.099 210.761 217.906 210.525 217.911C210.525 217.911 210.739 218 210.728 218.121C210.717 218.243 210.101 218.513 210.101 218.86C210.101 218.86 209.881 218.877 209.721 218.844C209.562 218.81 209.391 218.827 209.215 218.942C209.039 219.059 209.028 218.8 209.044 218.766C209.044 218.766 208.703 218.981 209.133 219.257C209.133 219.257 208.956 219.439 208.94 219.484C208.923 219.527 208.852 219.764 209.055 219.842Z" fill="#231F20"/>
<path fill-rule="evenodd" clip-rule="evenodd" d="M208.508 220.978C208.508 220.978 208.5 220.664 208.211 220.73C207.725 220.841 207.559 221.705 207.559 221.705C208.104 220.697 208.508 220.978 208.508 220.978Z" fill="#231F20"/>
<path fill-rule="evenodd" clip-rule="evenodd" d="M208.694 221.747C208.957 221.317 208.636 221.044 208.223 221.275C207.81 221.507 207.711 222.061 207.711 222.061C208.528 221.168 208.694 221.747 208.694 221.747Z" fill="#231F20"/>
<path fill-rule="evenodd" clip-rule="evenodd" d="M212.589 221.193C212.589 221.193 212.291 220.929 212.325 220.44C212.358 219.952 212.448 219.217 211.623 218.703C211.623 218.703 211.961 219.225 211.837 219.737C211.713 220.25 211.3 221.125 211.334 221.416C211.408 222.053 212.069 222.169 212.019 223.037C212.019 223.037 212.407 222.565 212.333 222.012C212.259 221.457 211.772 221.217 211.986 220.779C211.986 220.779 212.234 221.143 212.589 221.193Z" fill="#231F20"/>
<path fill-rule="evenodd" clip-rule="evenodd" d="M208.838 223.74C208.763 223.716 208.697 223.443 208.697 223.443C208.804 223.53 209.023 223.534 209.023 223.534C208.92 223.632 208.912 223.765 208.838 223.74ZM209.662 222.869C209.662 222.869 209.92 222.88 209.931 222.836C209.942 222.792 209.849 222.488 209.849 222.488C209.849 222.488 210.173 222.521 210.179 222.627C210.184 222.731 209.997 222.996 209.601 223.167C209.601 223.167 209.673 222.957 209.662 222.869ZM207.982 222.588C208.018 222.568 208.051 222.546 208.082 222.521C208.162 222.461 208.223 222.431 208.263 222.418C208.255 222.534 208.248 222.739 208.285 222.909C208.285 222.909 208.071 222.772 207.982 222.588ZM206.948 221.529C206.822 221.529 206.596 221.193 206.558 221.126C206.519 221.061 206.772 220.939 206.85 220.917C206.927 220.895 207.008 220.913 207.02 220.951C207.031 220.983 206.861 221.088 206.838 221.126C206.817 221.165 206.974 221.31 206.998 221.341C207.042 221.397 207.075 221.529 206.948 221.529ZM214.966 218.885C214.966 218.885 215.688 220.851 214.873 222.637C214.873 222.637 214.919 222.378 214.719 221.866C214.504 221.317 214.576 220.608 214.664 220.476C214.664 220.476 214.267 220.873 214.29 221.535C214.312 222.196 214.488 224.06 213.145 224.755C213.145 224.755 213.654 223.823 213.464 222.731C213.464 222.731 213.638 222.798 213.728 223.029C213.728 223.029 214.092 222.07 213.621 220.895C213.621 220.895 213.885 220.945 214.05 221.085C214.05 221.085 214.224 220.244 213.274 219.654C213.035 219.505 213.068 219.423 213.068 219.423C213.068 219.423 212.994 219.613 213.15 219.803C213.307 219.994 213.522 220.366 213.489 220.556C213.489 220.556 213.233 220.374 212.861 220.424C212.861 220.424 213.571 221.027 213.464 222.326C213.464 222.326 213.283 222.128 212.821 222.045C212.821 222.045 213.34 223.021 212.878 223.955C212.878 223.955 212.845 223.625 212.697 223.418C212.697 223.418 212.581 224.104 211.756 224.345C211.756 224.345 212.424 223.509 211.632 223.087C210.839 222.665 210.17 223.6 210.039 224.419C210.039 224.419 209.122 224.485 209.032 224.113C208.941 223.74 209.205 223.583 209.205 223.583C209.205 223.583 209.345 223.674 209.667 223.525C209.989 223.376 210.666 222.971 210.6 222.458C210.534 221.946 209.733 221.441 209.097 221.647C208.462 221.855 208.098 222.417 207.768 222.409C207.438 222.401 207.034 221.896 207.092 221.632C207.149 221.367 207.364 221.292 207.438 220.845C207.438 220.845 207.323 220.856 207.246 220.807C207.169 220.757 206.965 220.674 206.855 220.702C206.745 220.73 206.475 220.912 206.464 220.878C206.453 220.845 206.492 220.646 206.492 220.646C206.492 220.646 206.195 220.961 206.239 221.088C206.283 221.215 206.541 221.529 206.811 221.706C206.811 221.706 206.861 222.091 207.213 222.45C207.423 222.664 207.619 222.703 207.787 222.667C207.857 222.772 208.098 223.088 208.483 223.157C208.483 223.157 208.416 222.714 208.464 222.379C208.479 222.371 208.494 222.363 208.506 222.35C208.566 222.29 209.271 221.639 209.794 222.268C209.794 222.268 209.557 222.356 209.463 222.654C209.37 222.952 209.315 223.691 208.539 223.217C208.539 223.217 208.473 223.641 208.71 223.895C208.71 223.895 208.677 224.347 209.188 224.595C209.7 224.843 210.058 224.656 210.388 224.821C210.388 224.821 210.355 224.143 210.635 223.729C210.916 223.316 211.313 223.178 211.505 223.338C211.697 223.498 211.819 224.104 211.076 224.733C211.076 224.733 211.929 224.843 212.512 224.397C212.512 224.397 212.44 225.184 211.851 225.852C213.985 225.393 215.577 223.492 215.577 221.217C215.577 220.369 215.355 219.573 214.966 218.885Z" fill="#231F20"/>
<path fill-rule="evenodd" clip-rule="evenodd" d="M211.535 219.07C211.535 219.07 210.979 218.756 210.732 219.081C210.498 219.387 210.65 219.912 210.513 220.24C210.509 220.236 210.504 220.232 210.5 220.228C210.192 219.952 209.813 220.421 209.741 220.559C209.67 220.697 209.576 220.713 209.576 220.713C208.899 220.851 209.042 220.305 208.816 220.14C208.591 219.974 208.211 220.217 208.211 220.217C208.591 220.145 208.679 220.41 208.668 220.514C208.657 220.619 208.734 220.929 208.838 221.099C208.943 221.27 209.367 221.149 209.713 221.177C210.06 221.204 210.258 221.628 210.258 221.628C210.467 221.121 209.906 220.89 209.906 220.89C209.906 220.89 210.07 220.578 210.264 220.685C210.88 221.027 210.726 222.411 210.726 222.411C211.257 221.411 211.023 220.824 210.746 220.481C210.781 220.169 210.939 219.185 211.535 219.07Z" fill="#231F20"/>
<rect x="290" y="196" width="70" height="50" rx="4" fill="#003D5E"/>
<path fill-rule="evenodd" clip-rule="evenodd" d="M308.32 220.782L307.358 215.651C307.196 214.96 306.484 215 306.484 215L304.908 215.055C303.245 215.11 302.182 216.784 302.182 216.784L299.616 220.782H308.32ZM327.259 218.434H323.114C322.832 218.434 322.599 218.223 322.567 217.951H322.562V217.887V216.472V215.539C322.562 215.237 322.81 215 323.114 215H332.46C332.765 215 333.012 215.237 333.012 215.539V217.015C333.012 217.015 333.057 217.65 332.461 218.241L330.538 220.782H325.477C326.174 219.863 326.837 218.99 327.182 218.535L327.259 218.434ZM328.128 223.966H332.46C332.754 223.966 332.994 224.194 333.01 224.481L333.012 224.481V226.796C333.012 227.098 332.765 227.297 332.46 227.297H323.114C322.81 227.297 322.562 227.098 322.562 226.796V225.092C322.562 225.092 322.627 224.577 323.049 223.998C323.228 223.753 324.04 222.679 324.916 221.522H329.978L328.128 223.966ZM305.103 226.507L304.262 221.521H308.459L309.447 226.724C309.447 226.724 309.659 227.297 309.074 227.297H306.141C306.141 227.297 305.269 227.334 305.103 226.507ZM299.147 221.521L296.276 226.056C295.529 227.214 296.535 227.297 296.535 227.297H299.716C300.17 227.361 300.689 226.571 300.689 226.571L303.796 221.521H299.147ZM317.694 220.782L318.149 221.522H321.394V226.732C321.394 227.034 321.147 227.297 320.842 227.297H317.987C317.479 227.318 317.093 226.941 316.786 226.475L314.157 221.972V226.732C314.157 227.034 313.91 227.297 313.605 227.297H310.847C310.542 227.297 310.295 227.034 310.295 226.732V221.521H313.93L313.476 220.782H310.295V215.539C310.295 215.237 310.542 215 310.847 215H313.605C314.127 215 314.66 215.33 314.968 215.925C315.138 216.253 317.435 220.265 317.435 220.265V215.572C317.435 215.269 317.682 215 317.987 215H320.842C321.147 215 321.394 215.237 321.394 215.539V220.782H317.694Z" fill="white"/>
<path fill-rule="evenodd" clip-rule="evenodd" d="M345.764 216.281C345.764 215.23 344.929 214.379 343.869 214.379C342.81 214.379 341.975 215.23 341.975 216.281C341.975 216.682 342.101 217.054 342.315 217.361C342.401 217.512 342.494 217.644 342.581 217.767C342.711 217.952 342.826 218.114 342.875 218.286C343 218.719 342.868 219.01 342.655 219.097C342.38 219.209 341.947 219.018 341.947 219.018C339.998 218.263 338.617 216.384 338.617 214.185C338.617 211.322 340.979 209 343.869 209C346.759 209 349.122 211.322 349.122 214.185C349.122 216.384 347.741 218.263 345.791 219.018C345.791 219.018 345.359 219.209 345.084 219.097C344.871 219.01 344.739 218.719 344.864 218.286C344.913 218.115 345.028 217.952 345.158 217.768C345.245 217.644 345.338 217.512 345.424 217.361C345.638 217.054 345.764 216.682 345.764 216.281ZM340.31 226.885C341.294 226.281 341.579 224.921 341.579 223.684C341.579 221.086 339.454 218.98 336.833 218.98C335.837 218.98 334.935 219.133 334.308 219.685C333.814 220.12 333.993 220.581 334.299 220.926L339.157 226.728C339.157 226.728 339.607 227.318 340.31 226.885ZM347.428 226.885C346.445 226.281 346.159 224.921 346.159 223.684C346.159 221.086 348.284 218.98 350.906 218.98C351.902 218.98 352.804 219.133 353.431 219.685C353.925 220.12 353.746 220.581 353.439 220.926L348.581 226.728C348.581 226.728 348.132 227.318 347.428 226.885Z" fill="#169CD4"/>
<rect x="380" y="196" width="70" height="50" rx="4" fill="#003D79"/>
<path fill-rule="evenodd" clip-rule="evenodd" d="M385.063 222.481C385.063 221.584 385.047 220.832 385 220.161H386.643L386.72 221.314H386.767C387.139 220.704 387.82 219.984 389.091 219.984C390.082 219.984 390.857 220.562 391.182 221.425H391.214C391.478 220.993 391.786 220.674 392.143 220.449C392.561 220.145 393.042 219.984 393.661 219.984C394.916 219.984 396.186 220.864 396.186 223.361V227.954H394.327V223.65C394.327 222.353 393.894 221.584 392.98 221.584C392.328 221.584 391.848 222.065 391.648 222.626C391.6 222.817 391.554 223.057 391.554 223.28V227.954H389.695V223.441C389.695 222.353 389.277 221.584 388.394 221.584C387.681 221.584 387.201 222.161 387.03 222.704C386.952 222.898 386.921 223.121 386.921 223.345V227.954H385.063V222.481Z" fill="white"/>
<path fill-rule="evenodd" clip-rule="evenodd" d="M403.43 226.082C403.43 226.786 403.461 227.472 403.539 227.954H401.818L401.695 227.09H401.648C401.183 227.699 400.393 228.13 399.417 228.13C397.899 228.13 397.047 226.995 397.047 225.81C397.047 223.841 398.735 222.85 401.524 222.865V222.737C401.524 222.225 401.322 221.377 399.99 221.377C399.246 221.377 398.471 221.617 397.96 221.953L397.588 220.674C398.147 220.321 399.124 219.984 400.315 219.984C402.733 219.984 403.43 221.57 403.43 223.265V226.082ZM401.57 224.146C400.223 224.113 398.937 224.417 398.937 225.602C398.937 226.369 399.417 226.722 400.022 226.722C400.78 226.722 401.338 226.21 401.508 225.65C401.554 225.506 401.57 225.345 401.57 225.218V224.146Z" fill="white"/>
<path fill-rule="evenodd" clip-rule="evenodd" d="M404.746 222.481C404.746 221.584 404.729 220.832 404.684 220.161H406.355L406.449 221.329H406.495C406.82 220.722 407.641 219.984 408.896 219.984C410.213 219.984 411.577 220.864 411.577 223.329V227.954H409.671V223.554C409.671 222.433 409.269 221.584 408.23 221.584C407.471 221.584 406.945 222.145 406.743 222.737C406.682 222.913 406.666 223.154 406.666 223.376V227.954H404.746V222.481Z" fill="white"/>
<path fill-rule="evenodd" clip-rule="evenodd" d="M419.839 217.03V225.761C419.839 226.561 419.869 227.427 419.901 227.954H418.196L418.12 226.722H418.088C417.639 227.586 416.723 228.13 415.625 228.13C413.828 228.13 412.402 226.546 412.402 224.146C412.387 221.537 413.967 219.984 415.779 219.984C416.817 219.984 417.561 220.433 417.902 221.01H417.933V217.03H419.839ZM417.933 223.408C417.933 223.25 417.917 223.057 417.887 222.898C417.717 222.129 417.112 221.505 416.244 221.505C415.021 221.505 414.339 222.626 414.339 224.082C414.339 225.506 415.021 226.546 416.229 226.546C417.003 226.546 417.685 226.002 417.871 225.154C417.917 224.978 417.933 224.786 417.933 224.577V223.408Z" fill="white"/>
<path fill-rule="evenodd" clip-rule="evenodd" d="M421.184 227.954H423.107V220.161H421.184V227.954Z" fill="white"/>
<path fill-rule="evenodd" clip-rule="evenodd" d="M424.453 222.673C424.453 221.617 424.437 220.864 424.391 220.161H426.049L426.109 221.648H426.174C426.545 220.544 427.428 220.161 428.233 220.161C428.419 220.161 428.527 220.128 428.683 220.161V221.889C428.527 221.857 428.357 221.826 428.125 221.826C427.211 221.826 426.591 222.433 426.42 223.313C426.39 223.489 426.359 223.698 426.359 223.923V227.954H424.453V222.673Z" fill="white"/>
<path fill-rule="evenodd" clip-rule="evenodd" d="M429.566 227.954H431.487V220.161H429.566V227.954Z" fill="white"/>
<path fill-rule="evenodd" clip-rule="evenodd" d="M429.113 210.74C427.96 211.429 425.239 213.041 424.224 213.641C423.605 213.967 422.171 214.109 421.36 212.98C421.346 212.96 420.282 211.587 420.239 211.535C420.208 211.498 419.52 210.445 417.988 210.412C417.761 210.406 416.636 210.4 415.537 211.045C414.077 211.906 410.681 213.912 410.681 213.912C410.68 213.912 410.68 213.913 410.679 213.913C409.283 214.738 408.195 215.381 408.195 215.381L409.48 217.011C410.081 217.782 411.437 218.378 412.612 217.681C412.612 217.681 416.956 215.083 416.972 215.075C418.85 214.011 420.3 214.011 421.262 214.407C422.125 214.784 422.877 215.723 422.877 215.723C422.877 215.723 423.858 216.98 424.032 217.2C424.59 217.91 425.515 217.631 425.515 217.631C425.515 217.631 425.858 217.591 426.374 217.274C426.374 217.274 430.581 214.754 430.584 214.754C431.92 213.944 433.145 213.793 433.771 213.852C435.733 214.037 436.342 215.452 437.193 216.439C437.693 217.02 438.145 217.35 438.836 217.333C439.29 217.323 439.803 217.039 439.879 216.987L444.917 213.984C444.917 213.984 444.4 213.18 443.342 211.929C442.394 210.812 441.388 211.317 440.585 211.728C440.248 211.9 439.027 212.739 437.817 213.325C436.954 213.742 435.716 213.617 435.037 212.75C434.996 212.698 433.898 211.324 433.783 211.155C433.34 210.582 432.475 210.068 431.367 210.068C430.693 210.068 429.928 210.258 429.113 210.74Z" fill="url(#paint0_linear_1132_44230)"/>
<rect x="470" y="196" width="70" height="50" rx="4" fill="white"/>
<path fill-rule="evenodd" clip-rule="evenodd" d="M478.02 221.63H478.951C479.486 221.63 479.916 221.672 480.389 222.217C480.722 222.591 481.091 223.426 481.091 224.769C481.091 225.254 481.098 225.732 481.007 226.223C480.856 227 480.498 228.242 478.441 228.242C477.893 228.242 478.02 228.228 478.02 228.228V221.63ZM479.081 229.387C481.847 229.387 483.087 228.159 483.087 224.804C483.087 223.916 482.824 222.43 481.992 221.521C481.134 220.591 480.024 220.473 479.083 220.473H476V229.387H479.081Z" fill="#004F38"/>
<path fill-rule="evenodd" clip-rule="evenodd" d="M487.816 227.079C487.816 227.374 487.803 227.771 487.492 228.053C487.227 228.285 486.857 228.304 486.711 228.304C486.361 228.304 486.049 228.176 485.914 227.747C485.88 227.609 485.865 227.472 485.865 227.339C485.865 226.688 486.299 226.413 486.782 226.298C487.038 226.241 487.205 226.227 487.816 226.177V227.079ZM487.816 225.373L486.807 225.471C485.717 225.598 485.305 225.696 484.838 226.002C484.088 226.51 484.078 227.253 484.078 227.498C484.078 228.106 484.262 228.565 484.515 228.83C484.85 229.215 485.377 229.358 485.888 229.358C487.14 229.358 487.736 228.792 487.736 228.792L487.749 229.195H489.431V224.977C489.431 224.501 489.444 223.837 488.896 223.363C488.611 223.117 488.36 223.006 487.974 222.949C487.587 222.882 487.451 222.855 487.078 222.855C485.941 222.855 485.081 223.053 484.59 223.92C484.379 224.295 484.394 224.67 484.394 224.958H485.941C485.954 224.707 485.964 224.361 486.164 224.12C486.263 223.982 486.497 223.787 486.929 223.787C487.069 223.787 487.48 223.787 487.689 224.125C487.803 224.325 487.816 224.587 487.816 224.882V225.373Z" fill="#004F38"/>
<path fill-rule="evenodd" clip-rule="evenodd" d="M501.249 227.079C501.249 227.374 501.237 227.771 500.922 228.053C500.665 228.285 500.291 228.304 500.141 228.304C499.793 228.304 499.481 228.176 499.348 227.747C499.313 227.609 499.302 227.472 499.302 227.339C499.302 226.688 499.732 226.413 500.218 226.298C500.473 226.241 500.64 226.227 501.249 226.177V227.079ZM501.249 225.373L500.242 225.471C499.148 225.598 498.741 225.696 498.271 226.002C497.525 226.51 497.512 227.253 497.512 227.498C497.512 228.106 497.696 228.565 497.947 228.83C498.284 229.215 498.815 229.358 499.324 229.358C500.576 229.358 501.171 228.792 501.171 228.792L501.181 229.195H502.864V224.977C502.864 224.501 502.876 223.837 502.332 223.363C502.046 223.117 501.79 223.006 501.408 222.949C501.022 222.882 500.887 222.855 500.511 222.855C499.374 222.855 498.514 223.053 498.026 223.92C497.814 224.295 497.828 224.67 497.828 224.958H499.374C499.388 224.707 499.399 224.361 499.598 224.12C499.694 223.982 499.929 223.787 500.365 223.787C500.504 223.787 500.915 223.787 501.126 224.125C501.237 224.325 501.249 224.587 501.249 224.882V225.373Z" fill="#004F38"/>
<path fill-rule="evenodd" clip-rule="evenodd" d="M526.669 229.195H524.91V225.42C524.91 225.177 524.91 224.977 524.886 224.771C524.873 224.574 524.811 223.931 524.045 223.931C523.842 223.931 523.67 223.982 523.559 224.028C523.04 224.266 523.027 224.684 523.016 225.019V229.195H521.25V223.016H523.016V223.72C523.461 223.325 523.86 222.894 524.848 222.894C525.679 222.894 526.091 223.213 526.261 223.41C526.653 223.847 526.653 224.416 526.669 224.859V229.195Z" fill="#004F38"/>
<path fill-rule="evenodd" clip-rule="evenodd" d="M496.218 229.195H494.458V225.42C494.458 225.177 494.458 224.977 494.43 224.771C494.42 224.574 494.358 223.931 493.583 223.931C493.39 223.931 493.216 223.982 493.106 224.028C492.584 224.266 492.569 224.684 492.558 225.019V229.195H490.793V223.016H492.558V223.72C493.007 223.325 493.402 222.894 494.393 222.894C495.226 222.894 495.633 223.213 495.807 223.41C496.204 223.847 496.204 224.416 496.218 224.859V229.195Z" fill="#004F38"/>
<path fill-rule="evenodd" clip-rule="evenodd" d="M504.152 223.013H505.918V223.733C506.255 223.43 506.851 222.887 507.912 222.887C509.121 222.887 509.458 223.607 509.542 223.841C510.261 223.15 510.736 222.887 511.428 222.887C511.764 222.887 511.999 222.943 512.223 223.024C513.169 223.385 513.192 224.226 513.207 224.77V229.189H511.417V225.165C511.406 224.726 511.394 224.481 511.276 224.286C511.257 224.236 511.08 223.927 510.636 223.927C510.486 223.927 510.198 223.964 510.062 224.039C509.571 224.275 509.551 224.679 509.542 225.01V229.189H507.793V225.189C507.793 224.715 507.802 223.927 507.001 223.927C506.824 223.927 506.511 223.977 506.356 224.064C505.918 224.333 505.905 224.726 505.918 225.276V229.189H504.152V223.013Z" fill="#004F38"/>
<path fill-rule="evenodd" clip-rule="evenodd" d="M518.414 225.971C518.414 226.324 518.4 226.658 518.365 227C518.327 227.339 518.27 228.024 517.739 228.313C517.587 228.385 517.427 228.423 517.263 228.423C516.263 228.423 516.173 227.381 516.151 227C516.129 226.715 516.112 226.435 516.112 226.159C516.112 225.913 516.129 225.57 516.166 225.165C516.201 224.838 516.272 224.211 516.782 223.916C516.957 223.829 517.124 223.792 517.318 223.792C518.27 223.792 518.354 224.781 518.376 225.165C518.4 225.435 518.414 225.708 518.414 225.971ZM520.212 226.002C520.212 225.456 520.212 224.431 519.602 223.732C518.859 222.855 517.799 222.855 517.427 222.855C516.992 222.855 515.991 222.873 515.208 223.579C514.32 224.369 514.32 225.623 514.32 226.261C514.32 227.467 514.594 228.745 516.129 229.189C516.575 229.327 516.814 229.349 517.263 229.349C517.686 229.349 518.736 229.349 519.517 228.483C520.212 227.721 520.212 226.572 520.212 226.002Z" fill="#004F38"/>
<path fill-rule="evenodd" clip-rule="evenodd" d="M476 208V212.24H485.179V209.931L476 208Z" fill="#F15B22"/>
<path fill-rule="evenodd" clip-rule="evenodd" d="M496.157 212.24L485.176 208L485.178 209.931L496.157 212.24Z" fill="#FFC222"/>
<path fill-rule="evenodd" clip-rule="evenodd" d="M485.176 212.24H496.153L485.176 209.931V212.24Z" fill="#F7931D"/>
<path fill-rule="evenodd" clip-rule="evenodd" d="M496.156 212.236V212.24L519.215 217.094V212.236H496.156Z" fill="#F15B22"/>
<path fill-rule="evenodd" clip-rule="evenodd" d="M534 220.207V212.236H519.215V217.096L534 220.207Z" fill="#F7931D"/>
<path fill-rule="evenodd" clip-rule="evenodd" d="M519.214 217.096L496.16 212.242L519.214 220.21V217.096Z" fill="#FFC222"/>
<rect x="560" y="196" width="70" height="50" rx="4" fill="white"/>
<path fill-rule="evenodd" clip-rule="evenodd" d="M599.306 228.235L597.766 231.267L596.226 228.235H594.57V235.108H596.255V231.672C596.255 231.672 597.083 233.121 597.207 233.338C597.331 233.554 597.542 233.666 597.766 233.666C597.99 233.666 598.202 233.554 598.326 233.338C598.45 233.121 599.277 231.672 599.277 231.672V235.108H600.962V228.235H599.306Z" fill="#595A59"/>
<path fill-rule="evenodd" clip-rule="evenodd" d="M602.379 235.108V228.235H607.04V229.741H604.064V230.889H606.606V232.396H604.064V233.604H607.04V235.108H602.379Z" fill="#595A59"/>
<path fill-rule="evenodd" clip-rule="evenodd" d="M612.605 234.453C612.018 235.06 611.363 235.224 610.612 235.224C609.813 235.224 609.206 234.955 608.706 234.453C607.983 233.728 608.012 232.684 608.012 231.652C608.012 230.619 607.983 229.584 608.706 228.859C609.206 228.357 609.785 228.088 610.612 228.088C612.373 228.088 613.125 229.236 613.288 230.366H611.595C611.459 229.844 611.189 229.592 610.612 229.592C610.304 229.592 610.072 229.729 609.948 229.893C609.793 230.095 609.698 230.397 609.698 231.652C609.698 232.906 609.793 233.226 609.948 233.429C610.072 233.595 610.304 233.719 610.612 233.719C610.968 233.719 611.209 233.613 611.363 233.448C611.556 233.255 611.624 232.912 611.624 232.652V232.555H610.612V231.143H613.298V232.1C613.298 233.212 613.125 233.922 612.605 234.453Z" fill="#595A59"/>
<path fill-rule="evenodd" clip-rule="evenodd" d="M616.161 232.709L616.792 230.719L617.422 232.709H616.161ZM617.442 228.235H616.142L613.648 235.108H615.381L615.718 234.085H617.866L618.202 235.108H619.935L617.442 228.235Z" fill="#595A59"/>
<path fill-rule="evenodd" clip-rule="evenodd" d="M572.682 231.932H570.814V234.452H572.682C573.53 234.452 574.06 233.959 574.06 233.187C574.06 232.414 573.53 231.932 572.682 231.932ZM572.605 228.89H570.814V231.275H572.605C573.366 231.275 573.954 230.898 573.954 230.077C573.954 229.257 573.366 228.89 572.605 228.89ZM572.75 235.108H570.082V228.233H572.663C573.857 228.233 574.686 228.919 574.686 230.068C574.686 230.792 574.252 231.362 573.674 231.574C574.329 231.816 574.792 232.385 574.792 233.206C574.792 234.452 573.963 235.108 572.75 235.108Z" fill="#595A59"/>
<path fill-rule="evenodd" clip-rule="evenodd" d="M578.095 229.286L576.805 232.916H579.366L578.095 229.286ZM580.127 235.108L579.578 233.554H576.583L576.034 235.108H575.254L577.777 228.233H578.394L580.907 235.108H580.127Z" fill="#595A59"/>
<path fill-rule="evenodd" clip-rule="evenodd" d="M586.001 235.108L582.361 229.595V235.108H581.629V228.233H582.322L585.963 233.728V228.233H586.695V235.108H586.001Z" fill="#595A59"/>
<path fill-rule="evenodd" clip-rule="evenodd" d="M592.56 235.108L590.47 231.449L589.025 233.187V235.108H588.293V228.233H589.025V232.182L592.222 228.233H593.118L590.961 230.889L593.426 235.108H592.56Z" fill="#595A59"/>
<path fill-rule="evenodd" clip-rule="evenodd" d="M597.531 206.024L595.008 211.706L599.004 220.703L605.523 206.024H597.531Z" fill="#949594"/>
<path fill-rule="evenodd" clip-rule="evenodd" d="M605.523 206.024H597.531L605.281 223.474H613.273L605.523 206.024Z" fill="#595A59"/>
<path fill-rule="evenodd" clip-rule="evenodd" d="M592.488 206.024H584.496L591.015 220.703L595.011 211.706L592.488 206.024Z" fill="#EC952D"/>
<path fill-rule="evenodd" clip-rule="evenodd" d="M584.497 206.024L576.746 223.474H584.739L592.488 206.024H584.497Z" fill="#F9C623"/>
<path fill-rule="evenodd" clip-rule="evenodd" d="M595.011 211.706L591.016 220.703C591.713 222.216 593.24 223.26 595.011 223.26C596.781 223.26 598.309 222.216 599.006 220.703L595.011 211.706Z" fill="#E3672A"/>
<path d="M26.784 281.192C25.9413 281.192 25.1573 281.037 24.432 280.728C23.7173 280.419 23.0933 279.992 22.56 279.448C22.0373 278.893 21.6267 278.243 21.328 277.496C21.0293 276.749 20.88 275.928 20.88 275.032C20.88 274.147 21.024 273.331 21.312 272.584C21.6107 271.827 22.0267 271.176 22.56 270.632C23.0933 270.077 23.7173 269.651 24.432 269.352C25.1467 269.043 25.9307 268.888 26.784 268.888C27.6267 268.888 28.3787 269.032 29.04 269.32C29.712 269.608 30.2773 269.987 30.736 270.456C31.1947 270.915 31.5253 271.416 31.728 271.96L30.032 272.76C29.776 272.12 29.3653 271.603 28.8 271.208C28.2453 270.803 27.5733 270.6 26.784 270.6C25.9947 270.6 25.296 270.787 24.688 271.16C24.08 271.533 23.6053 272.051 23.264 272.712C22.9333 273.373 22.768 274.147 22.768 275.032C22.768 275.917 22.9333 276.696 23.264 277.368C23.6053 278.029 24.08 278.547 24.688 278.92C25.296 279.283 25.9947 279.464 26.784 279.464C27.5733 279.464 28.2453 279.267 28.8 278.872C29.3653 278.477 29.776 277.96 30.032 277.32L31.728 278.12C31.5253 278.653 31.1947 279.155 30.736 279.624C30.2773 280.093 29.712 280.472 29.04 280.76C28.3787 281.048 27.6267 281.192 26.784 281.192ZM35.9293 281.192C35.3426 281.192 34.8253 281.091 34.3773 280.888C33.9399 280.675 33.5986 280.387 33.3533 280.024C33.1079 279.651 32.9853 279.213 32.9853 278.712C32.9853 278.243 33.0866 277.821 33.2893 277.448C33.5026 277.075 33.8279 276.76 34.2653 276.504C34.7026 276.248 35.2519 276.067 35.9133 275.96L38.9213 275.464V276.888L36.2653 277.352C35.7853 277.437 35.4333 277.592 35.2093 277.816C34.9853 278.029 34.8733 278.307 34.8733 278.648C34.8733 278.979 34.9959 279.251 35.2413 279.464C35.4973 279.667 35.8226 279.768 36.2173 279.768C36.7079 279.768 37.1346 279.661 37.4973 279.448C37.8706 279.235 38.1586 278.952 38.3613 278.6C38.5639 278.237 38.6653 277.837 38.6653 277.4V275.176C38.6653 274.749 38.5053 274.403 38.1853 274.136C37.8759 273.859 37.4599 273.72 36.9373 273.72C36.4573 273.72 36.0359 273.848 35.6733 274.104C35.3213 274.349 35.0599 274.669 34.8893 275.064L33.3853 274.312C33.5453 273.885 33.8066 273.512 34.1693 273.192C34.5319 272.861 34.9533 272.605 35.4333 272.424C35.9239 272.243 36.4413 272.152 36.9852 272.152C37.6679 272.152 38.2706 272.28 38.7933 272.536C39.3266 272.792 39.7373 273.149 40.0253 273.608C40.3239 274.056 40.4733 274.579 40.4733 275.176V281H38.7453V279.432L39.1133 279.48C38.9106 279.832 38.6493 280.136 38.3293 280.392C38.0199 280.648 37.6626 280.845 37.2573 280.984C36.8626 281.123 36.4199 281.192 35.9293 281.192ZM42.5872 281V272.344H44.3153V274.088L44.1553 273.832C44.3473 273.267 44.6566 272.861 45.0833 272.616C45.5099 272.36 46.0219 272.232 46.6193 272.232H47.1473V273.88H46.3953C45.7979 273.88 45.3126 274.067 44.9393 274.44C44.5766 274.803 44.3953 275.325 44.3953 276.008V281H42.5872ZM52.3841 281.192C51.5521 281.192 50.8055 280.995 50.1441 280.6C49.4935 280.195 48.9761 279.651 48.5921 278.968C48.2188 278.285 48.0321 277.517 48.0321 276.664C48.0321 275.811 48.2241 275.043 48.6081 274.36C48.9921 273.677 49.5095 273.139 50.1601 272.744C50.8108 272.349 51.5468 272.152 52.3681 272.152C53.0615 272.152 53.6748 272.291 54.2081 272.568C54.7415 272.845 55.1628 273.229 55.4721 273.72L55.2001 274.136V268.888H56.9921V281H55.2801V279.24L55.4881 279.576C55.1895 280.099 54.7628 280.499 54.2081 280.776C53.6535 281.053 53.0455 281.192 52.3841 281.192ZM52.5601 279.512C53.0615 279.512 53.5095 279.389 53.9041 279.144C54.3095 278.899 54.6241 278.563 54.8481 278.136C55.0828 277.699 55.2001 277.208 55.2001 276.664C55.2001 276.12 55.0828 275.635 54.8481 275.208C54.6241 274.781 54.3095 274.445 53.9041 274.2C53.5095 273.955 53.0615 273.832 52.5601 273.832C52.0588 273.832 51.6055 273.955 51.2001 274.2C50.7948 274.445 50.4801 274.781 50.2561 275.208C50.0321 275.635 49.9201 276.12 49.9201 276.664C49.9201 277.208 50.0321 277.699 50.2561 278.136C50.4801 278.563 50.7895 278.899 51.1841 279.144C51.5895 279.389 52.0481 279.512 52.5601 279.512Z" fill="#1B1B1B"/>
<rect x="20" y="294" width="70" height="50" rx="4" fill="#016FD0"/>
<path fill-rule="evenodd" clip-rule="evenodd" d="M33.5977 331.232V320.349H45.1819L46.4248 321.961L47.7087 320.349H89.7567V330.482C89.7567 330.482 88.6571 331.221 87.3853 331.232H64.1025L62.7012 329.517V331.232H58.1093V328.304C58.1093 328.304 57.482 328.712 56.1259 328.712H54.563V331.232H47.6105L46.3694 329.586L45.1092 331.232H33.5977Z" fill="white"/>
<path fill-rule="evenodd" clip-rule="evenodd" d="M20.0703 312.147L22.6826 306.089H27.2003L28.6828 309.482V306.089H34.2987L35.1812 308.541L36.0368 306.089H61.2464V307.322C61.2464 307.322 62.5717 306.089 64.7496 306.089L72.9292 306.117L74.3861 309.466V306.089H79.0858L80.3793 308.012V306.089H85.1221V316.972H80.3793L79.1397 315.042V316.972H72.2348L71.5405 315.256H69.6842L69.0011 316.972H64.3185C62.4444 316.972 61.2464 315.764 61.2464 315.764V316.972H54.1861L52.7848 315.256V316.972H26.531L25.8371 315.256H23.9868L23.2978 316.972H20.0703L20.0703 312.147Z" fill="white"/>
<path fill-rule="evenodd" clip-rule="evenodd" d="M20.082 315.579L23.6054 307.43H26.2766L29.7967 315.579H27.4522L26.8055 313.947H23.0261L22.376 315.579H20.082ZM26.0611 312.178L24.909 309.327L23.7537 312.178H26.0611Z" fill="#016FD0"/>
<path fill-rule="evenodd" clip-rule="evenodd" d="M30.0391 315.578V307.429L33.2989 307.441L35.1949 312.695L37.0455 307.429H40.2792V315.578H38.2312V309.573L36.0602 315.578H34.2641L32.0871 309.573V315.578H30.0391Z" fill="#016FD0"/>
<path fill-rule="evenodd" clip-rule="evenodd" d="M41.6836 315.578V307.429H48.3666V309.252H43.7532V310.646H48.2588V312.361H43.7532V313.809H48.3666V315.578H41.6836Z" fill="#016FD0"/>
<path fill-rule="evenodd" clip-rule="evenodd" d="M49.5508 315.579V307.43H54.1083C55.6184 307.43 56.9715 308.359 56.9715 310.074C56.9715 311.54 55.8307 312.484 54.7247 312.577L57.4195 315.579H54.9167L52.4611 312.684H51.5988V315.579H49.5508ZM53.9399 309.253H51.5988V310.969H53.9702C54.3807 310.969 54.91 310.652 54.91 310.111C54.91 309.69 54.5015 309.253 53.9399 309.253Z" fill="#016FD0"/>
<path fill-rule="evenodd" clip-rule="evenodd" d="M59.8997 315.578H57.8086V307.429H59.8997V315.578Z" fill="#016FD0"/>
<path fill-rule="evenodd" clip-rule="evenodd" d="M64.8558 315.578H64.4045C62.2205 315.578 60.8945 313.866 60.8945 311.537C60.8945 309.15 62.2057 307.429 64.9636 307.429H67.2272V309.359H64.8809C63.7613 309.359 62.9695 310.228 62.9695 311.557C62.9695 313.135 63.8749 313.798 65.1792 313.798H65.7182L64.8558 315.578Z" fill="#016FD0"/>
<path fill-rule="evenodd" clip-rule="evenodd" d="M65.7891 315.579L69.3125 307.43H71.9837L75.5037 315.579H73.1593L72.5125 313.947H68.7331L68.083 315.579H65.7891ZM71.7681 312.178L70.6161 309.327L69.4607 312.178H71.7681Z" fill="#016FD0"/>
<path fill-rule="evenodd" clip-rule="evenodd" d="M75.7461 315.578V307.429H78.3499L81.6746 312.549V307.429H83.7226V315.578H81.203L77.7941 310.324V315.578H75.7461Z" fill="#016FD0"/>
<path fill-rule="evenodd" clip-rule="evenodd" d="M35 329.838V321.689H41.683V323.512H37.0696V324.906H41.5752V326.622H37.0696V328.069H41.683V329.838H35Z" fill="#016FD0"/>
<path fill-rule="evenodd" clip-rule="evenodd" d="M67.7461 329.838V321.689H74.4291V323.512H69.8157V324.906H74.2998V326.622H69.8157V328.069H74.4291V329.838H67.7461Z" fill="#016FD0"/>
<path fill-rule="evenodd" clip-rule="evenodd" d="M41.9408 329.838L45.1947 325.814L41.8633 321.689H44.4435L46.4276 324.239L48.4183 321.689H50.8975L47.6099 325.764L50.8698 329.838H48.29L46.3636 327.329L44.4839 329.838H41.9408Z" fill="#016FD0"/>
<path fill-rule="evenodd" clip-rule="evenodd" d="M51.1133 329.84V321.691H55.6371C57.4934 321.691 58.5778 322.881 58.5778 324.432C58.5778 326.304 57.1951 327.266 55.371 327.266H53.2152V329.84H51.1133ZM55.4855 323.534H53.2152V325.41H55.4788C56.077 325.41 56.4961 325.016 56.4961 324.472C56.4961 323.893 56.0749 323.534 55.4855 323.534Z" fill="#016FD0"/>
<path fill-rule="evenodd" clip-rule="evenodd" d="M59.4688 329.838V321.689H64.0263C65.5364 321.689 66.8895 322.618 66.8895 324.333C66.8895 325.799 65.7487 326.743 64.6427 326.836L67.3375 329.838H64.8347L62.3791 326.943H61.5168V329.838H59.4688ZM63.8579 323.512H61.5168V325.228H63.8882C64.2987 325.228 64.828 324.911 64.828 324.37C64.828 323.949 64.4195 323.512 63.8579 323.512Z" fill="#016FD0"/>
<path fill-rule="evenodd" clip-rule="evenodd" d="M75.3772 329.838V328.069H79.476C80.0824 328.069 80.345 327.743 80.345 327.386C80.345 327.043 80.0833 326.697 79.476 326.697H77.6238C76.0138 326.697 75.1172 325.721 75.1172 324.256C75.1172 322.949 75.9383 321.689 78.3307 321.689H82.319L81.4566 323.523H78.0073C77.348 323.523 77.145 323.867 77.145 324.196C77.145 324.533 77.3958 324.906 77.8995 324.906H79.8398C81.6345 324.906 82.4133 325.919 82.4133 327.245C82.4133 328.67 81.5455 329.838 79.7421 329.838H75.3772Z" fill="#016FD0"/>
<path fill-rule="evenodd" clip-rule="evenodd" d="M82.8929 329.838V328.069H86.9916C87.5981 328.069 87.8607 327.743 87.8607 327.386C87.8607 327.043 87.5989 326.697 86.9916 326.697H85.1394C83.5294 326.697 82.6328 325.721 82.6328 324.256C82.6328 322.949 83.4539 321.689 85.8463 321.689H89.8346L88.9723 323.523H85.523C84.8636 323.523 84.6606 323.867 84.6606 324.196C84.6606 324.533 84.9115 324.906 85.4152 324.906H87.3554C89.1501 324.906 89.9289 325.919 89.9289 327.245C89.9289 328.67 89.0611 329.838 87.2577 329.838H82.8929Z" fill="#016FD0"/>
<rect x="110" y="294" width="70" height="50" rx="4" fill="#262626"/>
<g opacity="0.01">
<rect x="125" y="306" width="39.8152" height="25.9701" fill="white"/>
</g>
<rect x="139.656" y="310.525" width="10.503" height="16.9179" fill="#FF5F00"/>
<path fill-rule="evenodd" clip-rule="evenodd" d="M140.741 318.985C140.738 315.684 142.275 312.566 144.908 310.528C140.435 307.061 134.012 307.566 130.152 311.688C126.293 315.809 126.293 322.164 130.152 326.286C134.012 330.407 140.435 330.912 144.908 327.446C142.274 325.407 140.737 322.287 140.741 318.985Z" fill="#EB001B"/>
<path fill-rule="evenodd" clip-rule="evenodd" d="M161.535 325.379V326.082H161.461V325.379H161.305V325.234H161.701V325.379H161.535ZM162.305 325.234V326.082H162.221V325.44L162.091 325.992H162.001L161.871 325.44V326.082H161.785V325.234H161.905L162.045 325.84L162.185 325.234H162.305Z" fill="#F79E1B"/>
<path fill-rule="evenodd" clip-rule="evenodd" d="M162.558 318.985C162.558 323.104 160.173 326.862 156.416 328.662C152.659 330.462 148.19 329.988 144.906 327.443C147.538 325.403 149.075 322.285 149.075 318.984C149.075 315.683 147.538 312.564 144.906 310.525C148.19 307.979 152.659 307.505 156.416 309.305C160.173 311.105 162.558 314.863 162.558 318.982V318.985Z" fill="#F79E1B"/>
<rect x="200" y="294" width="70" height="50" rx="4" fill="#0742A6"/>
<path fill-rule="evenodd" clip-rule="evenodd" d="M232.02 325.744H228.48L230.694 312.412H234.234L232.02 325.744Z" fill="white"/>
<path fill-rule="evenodd" clip-rule="evenodd" d="M244.852 312.738C244.154 312.468 243.047 312.17 241.678 312.17C238.182 312.17 235.721 313.986 235.705 316.581C235.676 318.496 237.468 319.559 238.808 320.198C240.177 320.85 240.643 321.276 240.643 321.858C240.629 322.751 239.536 323.163 238.517 323.163C237.104 323.163 236.347 322.95 235.196 322.453L234.73 322.24L234.234 325.233C235.065 325.601 236.594 325.928 238.182 325.943C241.896 325.943 244.314 324.155 244.343 321.39C244.357 319.872 243.411 318.709 241.372 317.759C240.134 317.149 239.375 316.737 239.375 316.113C239.39 315.546 240.017 314.965 241.414 314.965C242.565 314.936 243.41 315.206 244.051 315.475L244.371 315.617L244.852 312.738Z" fill="white"/>
<path fill-rule="evenodd" clip-rule="evenodd" d="M251.19 312.412H253.928L256.783 325.744H253.506C253.506 325.744 253.185 324.212 253.084 323.744H248.539C248.408 324.098 247.796 325.744 247.796 325.744H244.082L249.34 313.518C249.704 312.653 250.346 312.412 251.19 312.412ZM250.972 317.291C250.972 317.291 249.85 320.255 249.559 321.021H252.501C252.355 320.354 251.685 317.163 251.685 317.163L251.437 316.014C251.333 316.31 251.183 316.717 251.081 316.991C251.012 317.177 250.966 317.302 250.972 317.291Z" fill="white"/>
<path fill-rule="evenodd" clip-rule="evenodd" d="M225.524 312.412L222.058 321.503L221.679 319.659C221.038 317.532 219.028 315.22 216.785 314.071L219.96 325.73H223.704L229.267 312.412H225.524V312.412Z" fill="white"/>
<path fill-rule="evenodd" clip-rule="evenodd" d="M218.839 312.412H213.144L213.086 312.681C217.528 313.788 220.471 316.454 221.679 319.66L220.441 313.533C220.238 312.681 219.611 312.44 218.839 312.412Z" fill="white"/>
<defs>
<linearGradient id="paint0_linear_1132_44230" x1="408.195" y1="217.99" x2="444.917" y2="217.99" gradientUnits="userSpaceOnUse">
<stop stop-color="#FFCA06"/>
<stop offset="0.330844" stop-color="#FBAA18"/>
<stop offset="0.694742" stop-color="#FFC907"/>
<stop offset="1" stop-color="#FAA619"/>
</linearGradient>
</defs>
</svg>
