<svg width="295" height="242" viewBox="0 0 295 242" fill="none" xmlns="http://www.w3.org/2000/svg">
<rect width="295" height="242" fill="#EDEDED"/>
<path d="M163.183 157.43C163.819 165.713 159.984 172.619 154.353 173.064L138.667 174.304C132.818 174.767 127.249 168.085 126.225 159.378C125.202 150.671 129.115 143.24 134.963 142.78L146.924 141.834L148.285 153.415C148.364 154.091 148.605 154.748 148.994 155.347C149.382 155.947 149.911 156.478 150.55 156.91C151.189 157.342 151.925 157.666 152.717 157.865C153.509 158.063 154.341 158.132 155.165 158.066L163.183 157.43Z" fill="#1B1B1B"/>
<path d="M151.529 157.451C152.523 166.126 148.616 173.518 142.785 173.979C136.954 174.44 131.367 167.759 130.343 159.052C129.32 150.345 133.231 142.914 139.08 142.452C142.189 142.21 145.222 143.98 147.532 147.004L148.285 153.417C148.384 154.256 148.731 155.061 149.297 155.765C149.862 156.468 150.628 157.047 151.529 157.451Z" fill="#1B1B1B"/>
<path d="M264.753 149.397C265.389 157.681 261.554 164.587 255.924 165.032L240.237 166.272C234.608 166.717 229.235 160.54 227.93 152.31L264.753 149.397Z" fill="#1B1B1B"/>
<path d="M253.185 150.312C253.82 158.596 249.985 165.502 244.355 165.947C238.725 166.392 233.353 160.215 232.048 151.985L253.185 150.312Z" fill="#1B1B1B"/>
<path d="M252.117 150.553C252.138 150.626 252.151 150.699 252.169 150.771C252.186 150.844 252.238 151.163 252.194 150.884C252.212 151 252.229 151.116 252.242 151.232C252.338 152.046 252.356 152.864 252.297 153.68C252.11 156.463 251.081 159.164 249.53 161.626C248.876 162.662 250.785 163.581 251.447 162.542C253.16 159.827 254.273 156.879 254.506 153.819C254.601 152.589 254.592 151.278 254.257 150.068C253.942 148.929 251.809 149.411 252.124 150.552L252.117 150.553Z" fill="white"/>
<path d="M151.706 158.495C151.726 158.567 151.74 158.64 151.757 158.713C151.775 158.785 151.827 159.105 151.783 158.825C151.801 158.941 151.817 159.057 151.831 159.174C151.927 159.987 151.945 160.805 151.886 161.621C151.698 164.404 150.67 167.105 149.119 169.567C148.465 170.603 150.374 171.523 151.036 170.483C152.749 167.768 153.862 164.821 154.095 161.761C154.19 160.53 154.181 159.22 153.846 158.01C153.53 156.871 151.398 157.352 151.713 158.494L151.706 158.495Z" fill="white"/>
<path d="M221.456 92.6858C225.656 92.3881 229.438 94.1475 231.371 97.204C232.306 98.6826 233.237 100.163 234.166 101.645L242.638 115.11C242.898 115.522 243.128 115.963 243.424 116.358C243.823 116.889 244.632 116.869 245.312 116.935L253.988 117.782L261.871 118.557C265.623 118.92 268.697 121.157 269.33 124.26C269.458 124.89 269.462 125.547 269.511 126.183L269.785 129.8L270.33 136.984C270.42 138.172 270.772 139.256 271.719 140.2C272.483 140.95 273.51 141.488 274.66 141.743C275.237 141.868 275.834 141.922 276.43 141.903C277.044 141.883 277.545 141.99 277.681 142.466C277.933 143.351 277.935 144.613 278.051 145.604C278.096 145.983 278.212 146.401 278.18 146.784C278.152 147.118 277.945 147.294 277.603 147.443C277.444 147.512 277.335 147.498 277.5 147.475H277.472C276.573 147.596 275.644 147.619 274.74 147.691L268.378 148.195L249.498 149.688L229.806 151.25L218.237 152.165L217.688 152.208L218.795 153.116C218.398 148.144 216.656 142.664 212.355 138.959C210.771 137.595 208.743 136.527 206.421 136.326C205.434 136.24 204.428 136.373 203.447 136.447L192.341 137.335C191.385 137.41 190.423 137.478 189.473 137.561C187.326 137.751 185.469 138.63 184.045 139.952C182.011 141.842 180.837 144.294 180.181 146.728C179.359 149.776 179.277 152.943 179.756 156.033L180.862 155.125L169.766 156.003C168.362 156.114 168.347 157.93 169.766 157.818L180.862 156.94C181.398 156.898 182.05 156.557 181.968 156.033C181.256 151.451 181.579 146.124 184.771 142.146C185.793 140.87 187.218 139.778 189.063 139.433C189.793 139.296 190.686 139.279 191.469 139.218L202.043 138.381C203.058 138.302 204.073 138.213 205.089 138.139C206.719 138.018 208.195 138.466 209.514 139.289C211.663 140.631 213.134 142.661 214.2 144.66C215.618 147.322 216.351 150.235 216.581 153.12C216.618 153.573 217.06 154.078 217.687 154.028L223.009 153.607L235.933 152.584L252.13 151.303L267.042 150.123L276.358 149.386C277.143 149.325 278.026 149.319 278.733 149.023C280.122 148.433 280.469 147.297 280.332 146.119L279.979 143.12C279.948 142.854 279.922 142.587 279.88 142.322C279.817 141.867 279.604 141.434 279.264 141.07C278.925 140.705 278.471 140.424 277.951 140.255C277.016 139.952 276.023 140.203 275.07 139.954C274.3 139.751 273.635 139.34 273.184 138.788C272.287 137.686 272.479 136.044 272.383 134.783C272.125 131.373 272.026 127.927 271.595 124.528C271.396 122.941 270.67 121.429 269.495 120.157C268.32 118.885 266.742 117.903 264.933 117.317C263.294 116.783 261.455 116.712 259.716 116.537L245.498 115.14L244.41 115.033L245.365 115.482L239.541 106.238C237.433 102.89 235.341 99.5344 233.219 96.1948C232.111 94.458 230.405 93.0271 228.312 92.0804C226.22 91.1336 223.834 90.713 221.453 90.8708C220.046 90.97 220.032 92.7862 221.453 92.6858H221.456Z" fill="#1B1B1B"/>
<path d="M149.36 102.026L155.333 152.855C155.494 154.22 156.309 155.477 157.599 156.349C158.889 157.221 160.549 157.637 162.213 157.506L120.028 160.842C120.003 160.519 119.972 160.196 119.935 159.874C118.911 151.168 113.342 144.486 107.495 144.948L91.808 146.189C85.9611 146.651 82.0494 154.083 83.0716 162.789C83.1099 163.111 83.1542 163.434 83.2044 163.757L72.0961 164.635C71.4151 164.689 70.7277 164.632 70.0734 164.468C69.419 164.304 68.8104 164.036 68.2824 163.679C67.7544 163.322 67.3173 162.883 66.996 162.388C66.6747 161.892 66.4756 161.35 66.41 160.791L58.7975 95.9471C58.7318 95.3884 58.8009 94.8246 59.0009 94.2879C59.2008 93.7512 59.5277 93.2521 59.9629 92.819C60.398 92.3859 60.933 92.0275 61.537 91.764C62.1411 91.5006 62.8026 91.3374 63.4836 91.2837L203.904 80.1796C204.585 80.1255 205.272 80.182 205.926 80.3459C206.581 80.5097 207.189 80.7778 207.717 81.1346C208.245 81.4915 208.682 81.9302 209.004 82.4258C209.325 82.9213 209.524 83.4639 209.59 84.0225L210.602 92.6377L154.326 97.0881C153.604 97.1445 152.904 97.317 152.263 97.5958C151.623 97.8745 151.056 98.2541 150.595 98.7127C150.134 99.1713 149.787 99.7 149.575 100.269C149.363 100.837 149.29 101.434 149.36 102.026Z" fill="#AD6B46"/>
<path d="M135.035 85.5374L135.823 92.2396L137.714 108.333L140.002 127.803L141.98 144.631C142.3 147.354 142.587 150.076 142.94 152.801C142.94 152.839 142.949 152.876 142.953 152.914C143.089 154.066 145.303 154.078 145.166 152.914L144.378 146.212L142.487 130.119L140.199 110.649L138.221 93.8199C137.901 91.0974 137.614 88.3749 137.261 85.65C137.261 85.6124 137.252 85.5749 137.248 85.5374C137.112 84.3855 134.898 84.3734 135.035 85.5374Z" fill="#1B1B1B"/>
<path d="M182.31 102.185L188.321 111.969C189.153 113.324 189.976 114.683 190.818 116.034C191.494 117.115 192.55 118.005 193.85 118.588C195.15 119.17 196.633 119.419 198.107 119.301C201.842 119.017 205.575 118.711 209.309 118.416L226.821 117.03L232.971 116.546C234.238 116.446 235.832 116.505 236.711 115.635C238.108 114.253 236.514 112.445 235.729 111.124L232.002 104.843L229.029 99.8251C227.641 97.4862 224.944 95.9047 221.669 96.1261C218.471 96.3427 215.279 96.6319 212.082 96.8836L194.553 98.269C191.193 98.5352 187.822 98.753 184.47 99.0664C182.518 99.2479 181.552 100.731 182.31 102.185C182.548 102.638 183.352 102.73 183.824 102.51C184.396 102.243 184.453 101.716 184.22 101.269C184.13 101.096 184.327 100.966 184.468 100.886C184.639 100.789 184.369 100.9 184.48 100.886C184.587 100.873 184.694 100.865 184.802 100.861L186.334 100.74L192.143 100.28L208.904 98.949L220.999 97.9931C221.225 97.975 221.451 97.9544 221.677 97.9399C223.616 97.8104 225.512 98.4784 226.565 99.8602C227.371 100.925 227.954 102.14 228.621 103.264L234.963 113.947C234.991 113.995 235.12 114.241 235.096 114.167C235.129 114.272 235.096 114.385 234.932 114.536C234.882 114.583 234.693 114.611 234.882 114.575H234.853C234.552 114.612 234.248 114.635 233.944 114.646L228.947 115.042L212.548 116.34L199.258 117.392C197.683 117.513 196.183 117.634 194.731 116.927C193.094 116.126 192.404 114.579 191.584 113.243L184.743 102.111L184.226 101.271C183.58 100.226 181.67 101.144 182.31 102.185Z" fill="#1B1B1B"/>
<path d="M19.8614 127.378L72.2018 123.239L86.822 122.082C88.2262 121.971 88.241 120.155 86.822 120.267L34.4816 124.407L19.8614 125.563C18.4572 125.675 18.4425 127.491 19.8614 127.378Z" fill="#1B1B1B"/>
<path d="M26.7268 108.227C35.6373 109.346 44.6142 110.135 53.6308 110.33C61.1268 110.492 68.6183 110.225 76.0892 109.739C80.408 109.457 84.7194 109.114 89.0308 108.771C90.435 108.659 90.4498 106.843 89.0308 106.956C81.5836 107.545 74.1333 108.141 66.6551 108.408C58.8187 108.691 50.9682 108.567 43.151 108.036C37.8513 107.673 32.5708 107.135 27.3154 106.474C26.7254 106.399 26.1354 106.595 25.9539 107.108C25.8064 107.536 26.1368 108.15 26.7268 108.225V108.227Z" fill="#1B1B1B"/>
<path d="M89.5715 130.51C84.3382 130.435 79.2686 132.285 75.559 135.268C73.7044 136.748 72.2163 138.509 71.1767 140.452C70.6376 141.455 70.2364 142.505 69.9805 143.581C69.7475 144.594 69.5601 145.689 70.0071 146.68C70.4746 147.717 71.7033 148.432 73.0765 148.203C74.3347 147.994 75.2699 147.032 75.6253 146.065C76.4174 143.91 74.4188 141.771 72.1812 140.836C69.2976 139.626 66.0467 140.06 63.0967 140.873C59.716 141.804 56.3943 142.904 53.0534 143.926L30.1422 150.944C28.8147 151.348 29.3929 153.104 30.7322 152.694L48.4322 147.276L57.2129 144.589C60.0729 143.713 62.9521 142.642 65.942 142.103C68.2607 141.684 70.8375 141.827 72.5795 143.302C73.1901 143.821 73.7226 144.608 73.5795 145.359C73.5072 145.733 72.8966 146.77 72.2933 146.347C71.69 145.925 71.9718 144.788 72.0883 144.238C72.2788 143.347 72.5752 142.473 72.9733 141.629C73.7845 139.955 74.9741 138.421 76.4794 137.109C79.8483 134.137 84.5919 132.26 89.5847 132.332C91.0096 132.352 91.0096 130.537 89.5847 130.517L89.5715 130.51Z" fill="#1B1B1B"/>
<path d="M225.484 146.64L239.066 145.565L260.69 143.856L265.621 143.466C267.025 143.355 267.04 141.538 265.621 141.651L252.039 142.725L230.415 144.435L225.484 144.825C224.08 144.936 224.066 146.752 225.484 146.64Z" fill="#1B1B1B"/>
<path d="M245.17 171.982C243.795 172.042 242.422 172.109 241.049 172.18C237.248 172.372 233.449 172.583 229.65 172.814C223.904 173.158 218.16 173.536 212.419 173.947C205.208 174.463 198.002 175.028 190.802 175.641C182.606 176.345 174.419 177.121 166.243 177.969C157.52 178.879 148.813 179.888 140.124 180.994C131.392 182.116 122.682 183.356 114.016 184.766C105.725 186.114 97.4666 187.613 89.2863 189.364C81.8995 190.937 74.5628 192.71 67.384 194.842C61.2982 196.649 55.2757 198.703 49.6206 201.3C48.4307 201.846 47.2611 202.419 46.1116 203.02C44.9153 203.647 46.0245 205.219 47.2281 204.593C52.3213 201.921 57.8481 199.821 63.4531 197.999C70.2912 195.778 77.3181 193.952 84.3981 192.331C92.3912 190.5 100.476 188.943 108.588 187.536C117.143 186.058 125.759 184.762 134.39 183.592C143.022 182.422 151.714 181.371 160.405 180.422C168.699 179.516 177.008 178.693 185.332 177.951C192.806 177.282 200.279 176.669 207.752 176.112C213.849 175.658 219.951 175.24 226.057 174.857C230.342 174.59 234.63 174.342 238.919 174.113C240.915 174.008 242.915 173.933 244.911 173.818L245.167 173.807C246.583 173.747 246.592 171.932 245.167 171.992L245.17 171.982Z" fill="#1B1B1B"/>
<path d="M121.206 162.207C121.081 157.112 119.56 151.652 115.643 147.581C114.256 146.139 112.47 144.88 110.31 144.314C109.116 143.998 107.927 144.014 106.701 144.11L96.3864 144.926C93.7506 145.134 90.6339 145.047 88.3418 146.283C83.905 148.695 82.3651 153.649 81.9285 157.731C81.3636 163.031 82.5686 168.848 85.967 173.433C88.0748 176.278 91.4584 178.945 95.8082 178.606C98.9775 178.359 102.147 178.109 105.316 177.855L110.11 177.476C111.306 177.382 112.46 177.289 113.578 176.882C118.357 175.143 120.259 170.16 120.904 166.271C121.123 164.926 121.222 163.57 121.199 162.213C121.183 161.045 118.97 161.043 118.986 162.213C119.02 164.663 118.691 167.115 117.789 169.457C117.101 171.235 116.056 173.015 114.364 174.297C112.457 175.749 110.03 175.667 107.599 175.86L97.4219 176.661C96.6003 176.726 95.7581 176.835 94.9306 176.834C93.0131 176.834 91.3124 175.898 90.0085 174.806C85.9611 171.409 84.3711 166.134 84.0761 161.536C83.9212 159.116 84.1203 156.679 84.8446 154.329C85.408 152.5 86.2753 150.63 87.7547 149.16C88.8064 148.113 90.2121 147.26 91.8375 147.103C92.6739 147.019 93.5176 146.97 94.3554 146.903L104.75 146.081C105.654 146.01 106.559 145.93 107.464 145.867C109.058 145.755 110.507 146.184 111.805 146.979C113.653 148.112 114.986 149.762 116.01 151.437C117.318 153.571 118.122 155.914 118.59 158.261C118.841 159.569 118.979 160.89 119.003 162.213C119.023 163.374 121.236 163.377 121.206 162.207Z" fill="#1B1B1B"/>
<path d="M99.1505 172.333C95.1813 172.593 92.8611 168.373 91.9422 165.812C90.5749 162.008 90.3595 157.295 92.6251 153.676C93.3449 152.525 94.4246 151.333 96.0176 150.992C97.4499 150.685 98.8895 151.257 99.9721 152.081C103.468 154.759 104.611 159.321 104.601 163.08C104.601 165.229 104.204 167.489 103.034 169.435C102.27 170.704 100.984 172.16 99.152 172.329C98.562 172.384 98.0458 172.707 98.0458 173.237C98.0458 173.685 98.5546 174.205 99.152 174.144C104.278 173.67 106.188 168.753 106.675 165.175C107.298 160.562 106.104 155.168 102.387 151.534C101.059 150.243 99.2361 149.195 97.1327 149.094C95.0589 148.993 93.1827 149.934 91.926 151.229C88.4361 154.828 88.2503 160.223 89.2887 164.539C89.8905 167.044 91.0587 169.537 93.0204 171.54C94.4954 173.052 96.6902 174.309 99.1549 174.147C100.559 174.056 100.571 172.24 99.1505 172.333Z" fill="#1B1B1B"/>
<path d="M218.957 154.493C218.832 149.398 217.311 143.938 213.394 139.867C212.007 138.426 210.221 137.166 208.061 136.6C206.867 136.284 205.678 136.3 204.452 136.396L194.137 137.212C191.502 137.42 188.385 137.333 186.093 138.57C181.656 140.981 180.116 145.935 179.679 150.017C179.115 155.317 180.32 161.134 183.718 165.72C185.826 168.564 189.209 171.231 193.559 170.892C196.728 170.646 199.898 170.395 203.067 170.141L207.861 169.762C209.057 169.668 210.21 169.575 211.329 169.168C216.108 167.429 218.01 162.447 218.655 158.558C218.874 157.213 218.972 155.856 218.95 154.499C218.934 153.332 216.721 153.329 216.737 154.499C216.771 156.95 216.442 159.401 215.54 161.744C214.852 163.521 213.807 165.301 212.115 166.584C210.208 168.036 207.781 167.953 205.35 168.146L195.164 168.952C194.342 169.017 193.5 169.126 192.673 169.125C190.755 169.125 189.055 168.189 187.751 167.097C183.703 163.703 182.109 158.431 181.812 153.829C181.657 151.409 181.857 148.972 182.581 146.622C183.144 144.794 184.012 142.923 185.491 141.453C186.543 140.406 187.948 139.553 189.574 139.396C190.41 139.313 191.254 139.263 192.092 139.196L202.486 138.375C203.39 138.303 204.296 138.224 205.2 138.161C206.794 138.048 208.243 138.478 209.541 139.273C211.389 140.405 212.722 142.056 213.746 143.73C215.054 145.865 215.858 148.207 216.326 150.555C216.577 151.862 216.715 153.183 216.739 154.507C216.774 155.66 218.987 155.663 218.957 154.493Z" fill="#1B1B1B"/>
<path d="M196.9 164.619C192.93 164.879 190.61 160.659 189.691 158.098C188.324 154.294 188.109 149.581 190.374 145.962C191.094 144.811 192.174 143.62 193.767 143.278C195.199 142.971 196.638 143.543 197.721 144.367C201.217 147.045 202.36 151.607 202.35 155.366C202.35 157.515 201.953 159.776 200.783 161.721C200.019 162.991 198.733 164.446 196.901 164.616C196.311 164.67 195.795 164.993 195.795 165.523C195.795 165.971 196.304 166.491 196.901 166.431C202.027 165.956 203.937 161.039 204.424 157.461C205.047 152.848 203.853 147.454 200.136 143.82C198.808 142.529 196.985 141.482 194.882 141.38C192.808 141.279 190.932 142.22 189.675 143.516C186.185 147.114 185.999 152.509 187.038 156.826C187.639 159.33 188.808 161.823 190.769 163.827C192.244 165.338 194.439 166.595 196.904 166.433C198.31 166.342 198.321 164.526 196.9 164.619Z" fill="#1B1B1B"/>
</svg>
