<svg width="295" height="242" viewBox="0 0 295 242" fill="none" xmlns="http://www.w3.org/2000/svg">
<rect width="295" height="242" fill="#EDEDED"/>
<path d="M82.9984 151.734C82.444 152.249 81.7398 152.642 80.9511 152.875C80.226 153.088 79.4441 153.136 78.6885 153.014C77.9244 152.887 77.2189 152.587 76.6515 152.149C76.3468 151.92 76.0707 151.666 75.827 151.392C75.5494 151.069 75.3252 150.716 75.1603 150.345C74.9321 149.824 74.7656 149.287 74.6632 148.74L73.6572 143.939L75.852 141.97L77.032 147.765L76.2812 147.69C76.3275 147.555 76.3872 147.423 76.4597 147.295C76.5251 147.182 76.6001 147.072 76.6839 146.966C76.7723 146.86 76.871 146.759 76.9789 146.665C77.4772 146.201 78.118 145.855 78.8345 145.663C79.5116 145.485 80.2347 145.461 80.9275 145.592C81.6463 145.731 82.3077 146.023 82.845 146.439C83.4477 146.877 83.8934 147.441 84.1342 148.071C84.3623 148.68 84.3848 149.328 84.1991 149.947C83.9928 150.617 83.5793 151.233 82.9984 151.734ZM81.1827 150.371C81.4169 150.168 81.5813 149.918 81.6591 149.645C81.7315 149.379 81.7163 149.101 81.6149 148.841C81.5046 148.56 81.3038 148.309 81.0337 148.115C80.7829 147.926 80.4766 147.795 80.1451 147.734C79.8135 147.673 79.4682 147.684 79.1433 147.766C78.8185 147.848 78.5253 147.998 78.2929 148.201C78.0605 148.404 77.8969 148.654 77.8182 148.925C77.7416 149.189 77.7503 149.465 77.8433 149.725C77.9508 150.007 78.1521 150.258 78.4244 150.451C78.6856 150.655 79.0093 150.797 79.3611 150.861C79.6885 150.921 80.0295 150.907 80.3478 150.82C80.6684 150.734 80.9561 150.581 81.1827 150.376V150.371Z" fill="black"/>
<path d="M87.8523 147.136L83.4479 137.94L79.3666 141.599L77.6807 140.334L83.6972 134.939L85.3831 136.205L89.8937 145.298L87.8523 147.136Z" fill="black"/>
<path d="M149.67 91.6561C149.116 92.1718 148.412 92.5643 147.623 92.7971C146.898 93.0102 146.116 93.0583 145.36 92.9362C144.596 92.8093 143.891 92.5096 143.323 92.0711C143.019 91.842 142.743 91.5887 142.499 91.3148C142.221 90.9912 141.997 90.6389 141.832 90.267C141.604 89.7465 141.437 89.2092 141.335 88.6625L140.329 83.8613L142.524 81.8926L143.704 87.6873L142.953 87.6123C142.999 87.477 143.059 87.3451 143.132 87.2178C143.197 87.104 143.272 86.994 143.356 86.8887C143.444 86.782 143.543 86.6812 143.651 86.5874C144.149 86.1234 144.79 85.7775 145.506 85.5855C146.184 85.4077 146.907 85.3831 147.599 85.5141C148.318 85.6533 148.98 85.9454 149.517 86.3611C150.12 86.7989 150.565 87.3632 150.806 87.9934C151.034 88.6022 151.057 89.2504 150.871 89.8689C150.665 90.5394 150.251 91.155 149.67 91.6561ZM147.855 90.2936C148.089 90.0904 148.253 89.8399 148.331 89.5676C148.403 89.3009 148.388 89.0232 148.287 88.763C148.176 88.4823 147.976 88.2315 147.706 88.037C147.455 87.8488 147.148 87.7176 146.817 87.6564C146.485 87.5952 146.14 87.6061 145.815 87.688C145.49 87.7699 145.197 87.92 144.965 88.1234C144.732 88.3268 144.569 88.5764 144.49 88.8477C144.414 89.1115 144.422 89.3872 144.515 89.6475C144.623 89.9291 144.824 90.1806 145.096 90.3735C145.357 90.5773 145.681 90.719 146.033 90.7837C146.36 90.8433 146.701 90.8291 147.02 90.7425C147.341 90.6551 147.629 90.5003 147.855 90.2936Z" fill="black"/>
<path d="M107.233 129.751L99.2682 123.775L97.5469 125.317L95.8477 124.042L99.4157 120.85L109.077 128.102L107.233 129.751Z" fill="black"/>
<path d="M112.733 124.825L104.768 118.849L103.05 120.395L101.351 119.12L104.911 115.918L114.572 123.169L112.733 124.825Z" fill="black"/>
<path d="M116.709 121.261L115.153 120.093L114.858 115.96C114.797 115.146 114.734 114.516 114.669 114.069C114.63 113.719 114.539 113.374 114.396 113.043C114.294 112.823 114.132 112.625 113.923 112.463C113.774 112.339 113.593 112.244 113.395 112.184C113.196 112.125 112.983 112.102 112.772 112.117C112.346 112.159 111.955 112.332 111.678 112.601C111.361 112.877 111.164 113.23 111.116 113.607C111.078 114.027 111.207 114.447 111.484 114.802L109.312 115.81C108.913 115.366 108.666 114.843 108.595 114.295C108.524 113.746 108.602 113.19 108.824 112.669C109.043 112.138 109.395 111.651 109.856 111.237C110.374 110.752 111.016 110.367 111.735 110.107C112.359 109.881 113.049 109.804 113.723 109.887C114.398 109.982 115.023 110.24 115.517 110.627C115.864 110.889 116.153 111.198 116.37 111.541C116.606 111.923 116.777 112.33 116.877 112.751C117.004 113.284 117.083 113.823 117.113 114.365L117.367 117.897L121.022 114.62L122.708 115.886L116.709 121.261Z" fill="black"/>
<path d="M127.494 111.846C127.015 112.278 126.436 112.627 125.789 112.872C125.167 113.112 124.487 113.236 123.799 113.235C123.122 113.234 122.458 113.085 121.873 112.806L122.906 110.9C123.384 111.083 123.918 111.144 124.439 111.074C124.922 110.995 125.359 110.787 125.683 110.482C125.952 110.254 126.148 109.976 126.255 109.67C126.344 109.399 126.338 109.113 126.236 108.844C126.124 108.558 125.921 108.303 125.646 108.105C125.387 107.9 125.066 107.756 124.715 107.69C124.388 107.634 124.048 107.657 123.736 107.756C123.373 107.877 123.051 108.067 122.795 108.31C122.619 108.468 122.466 108.641 122.338 108.827C122.212 109.004 122.113 109.192 122.043 109.389L120.643 109.041L120.212 104.987L116.759 108.082L115.073 106.816L120.591 101.87L122.147 103.037L122.714 107.293L121.956 106.626C122.424 106.186 123.023 105.853 123.695 105.658C124.309 105.486 124.969 105.46 125.6 105.583C126.278 105.722 126.9 106.004 127.406 106.4C128.021 106.848 128.471 107.429 128.704 108.077C128.929 108.71 128.942 109.382 128.741 110.02C128.519 110.705 128.09 111.333 127.494 111.846Z" fill="black"/>
<path d="M132.56 107.048L128.156 97.8597L124.075 101.519L122.389 100.253L128.405 94.8638L130.096 96.1258L134.606 105.219L132.56 107.048Z" fill="black"/>
<path d="M142.161 98.6973C141.606 99.213 140.902 99.6055 140.113 99.8384C139.388 100.051 138.606 100.1 137.851 99.9775C137.087 99.8505 136.381 99.5509 135.814 99.1124C135.509 98.8832 135.233 98.6299 134.989 98.3561C134.711 98.0325 134.487 97.6801 134.322 97.3083C134.094 96.7878 133.928 96.2505 133.825 95.7038L132.819 90.9025L135.014 88.9351L136.194 94.7297L135.443 94.6547C135.49 94.5195 135.549 94.3875 135.622 94.2603C135.687 94.1465 135.762 94.0365 135.846 93.9311C135.934 93.8244 136.033 93.7237 136.141 93.6299C136.639 93.1659 137.28 92.82 137.997 92.628C138.674 92.4502 139.397 92.4255 140.09 92.5566C140.808 92.6957 141.47 92.9879 142.007 93.4036C142.61 93.8414 143.056 94.4057 143.296 95.0359C143.524 95.6447 143.547 96.2929 143.361 96.9114C143.155 97.5815 142.741 98.1966 142.161 98.6973ZM140.345 97.3349C140.579 97.1317 140.743 96.8812 140.821 96.6089C140.894 96.3422 140.878 96.0645 140.777 95.8042C140.667 95.5236 140.466 95.2727 140.196 95.0782C139.945 94.8901 139.639 94.7589 139.307 94.6977C138.976 94.6365 138.63 94.6474 138.305 94.7293C137.981 94.8112 137.687 94.9612 137.455 95.1646C137.223 95.368 137.059 95.6177 136.98 95.8889C136.904 96.1528 136.912 96.4285 137.005 96.6887C137.113 96.9704 137.314 97.2218 137.587 97.4147C137.848 97.6185 138.171 97.7603 138.523 97.8249C138.851 97.8846 139.192 97.8703 139.51 97.7838C139.831 97.696 140.119 97.5408 140.345 97.3337V97.3349Z" fill="black"/>
<path d="M203.705 112.143L197.549 117.883L182.082 132.301L161.808 151.197L141.249 170.368L124.899 185.614C122.356 187.984 119.822 190.363 117.269 192.726C114.614 195.182 110.24 195.5 107.195 193.314C105.757 192.283 104.323 191.248 102.893 190.21L82.9367 175.797L60.3397 159.485L52.5591 153.868C51.4484 153.067 50.2448 152.303 49.2197 151.425C46.7771 149.333 46.7122 145.971 48.997 143.783C49.1445 143.639 49.3023 143.499 49.4542 143.356L52.6461 140.381L66.2796 127.676L85.8012 109.47L106.705 89.9817L124.49 73.4071L134.635 63.9485C134.905 63.6969 135.174 63.4452 135.445 63.1947C136.678 62.0537 138.31 61.2587 140.193 61.1377C142.187 61.007 144.047 61.5636 145.54 62.6357C146.038 62.9931 146.534 63.3512 147.03 63.7102L164.02 75.982L187.424 92.8772L202.322 103.633C202.713 103.916 203.118 104.192 203.48 104.502C205.924 106.595 205.987 109.953 203.704 112.144C202.783 113.027 204.341 114.322 205.269 113.428C207.821 110.98 208.366 107.48 206.366 104.655C205.776 103.808 204.965 103.128 204.084 102.493L198.931 98.7736L189.529 91.9867L177.9 83.5917L165.928 74.9487L155.532 67.4467L148.611 62.4506C148.105 62.0851 147.598 61.7197 147.092 61.3543C145.44 60.1673 143.484 59.4183 141.272 59.3215C138.501 59.192 135.787 60.1685 133.947 61.8516C133.722 62.0561 133.504 62.2642 133.283 62.4699L129.662 65.8458L123.434 71.6538L115.244 79.2889L105.646 88.2357L95.222 97.9532L84.5002 107.949L74.1752 117.579L64.7529 126.346L56.8396 133.727L50.9838 139.186L47.8258 142.13C47.5898 142.351 47.3509 142.567 47.1296 142.796C44.7283 145.267 44.4171 148.822 46.5027 151.508C47.5352 152.848 49.1961 153.858 50.6327 154.896L58.2437 160.39L69.0304 168.168L81.0767 176.865L92.4741 185.093L101.333 191.489C102.769 192.525 104.205 193.562 105.641 194.598C109.493 197.362 115.291 197.26 118.769 194.073C119.506 193.403 120.217 192.723 120.942 192.048L125.996 187.335L133.301 180.526L142.298 172.144L152.396 162.732L163.072 152.779L173.639 142.929L183.567 133.674L192.27 125.554L199.202 119.086L203.719 114.876L205.273 113.424C206.205 112.552 204.649 111.263 203.705 112.143Z" fill="#1B1B1B"/>
<path d="M125.639 42.1191C125.684 42.2486 125.715 42.3817 125.746 42.5148C125.784 42.6769 125.812 42.839 125.843 42.9988C125.883 43.2057 125.811 42.7422 125.843 42.9612C125.843 43.0109 125.858 43.0593 125.865 43.1089C125.881 43.2299 125.898 43.3509 125.911 43.4719C126.064 44.9911 126.027 46.5193 125.8 48.0324C125.732 48.5164 125.678 48.8382 125.552 49.4396C125.432 50.018 125.292 50.5931 125.134 51.1651C124.765 52.488 124.31 53.7939 123.771 55.077C122.377 58.4166 120.458 61.5965 118.251 64.6215C114.779 69.3804 110.572 73.7473 106.009 77.8286C105.047 78.6877 106.608 79.9752 107.574 79.1124C114.921 72.5482 121.536 65.1514 125.386 56.7516C127.243 52.6993 128.525 48.2429 128.166 43.8845C128.104 43.1379 128.028 42.3563 127.781 41.6315C127.399 40.5074 125.265 40.9853 125.648 42.1155L125.639 42.1191Z" fill="#1B1B1B"/>
<path d="M102.849 42.0389C103.623 47.1653 103.714 52.3456 103.121 57.4882C102.719 60.8593 101.989 64.5062 99.8018 67.4368C97.9108 69.9778 92.648 74.0918 88.8573 71.7843C87.6065 71.022 87.1168 69.6789 87.2244 68.3322C87.341 66.8863 88.074 65.3205 89.4841 64.3949C91.1892 63.2756 93.4312 63.5878 95.2499 64.3743C96.3812 64.8583 97.5008 65.4839 98.3858 66.2462C98.4226 66.2776 98.4566 66.3127 98.492 66.3466C98.6704 66.5172 98.3607 66.1869 98.5156 66.372C98.5908 66.4628 98.6631 66.5547 98.7339 66.6503C98.8047 66.7459 98.8489 66.827 98.905 66.9153C98.9345 66.9637 99.0082 67.1113 98.905 66.9153C98.9359 66.9782 98.9684 67.0363 98.9935 67.1065C99.0814 67.3295 99.1552 67.5561 99.2147 67.7853C99.2265 67.8325 99.2354 67.8809 99.2457 67.9281C99.3003 68.1701 99.225 67.7308 99.2545 67.9801C99.2722 68.1193 99.2855 68.2584 99.2944 68.3988C99.3091 68.6517 99.3047 68.9058 99.2944 69.1599C99.2855 69.2994 99.2722 69.439 99.2545 69.5785C99.2457 69.6503 99.2359 69.7217 99.225 69.7927C99.2142 69.8637 99.2142 69.8556 99.225 69.7685C99.2152 69.8274 99.2044 69.8859 99.1926 69.9439C98.9042 71.2622 98.4331 72.5491 97.7884 73.7796C96.2308 76.8288 93.9165 79.7546 91.4459 82.4069C88.7774 85.2905 85.7348 87.9277 82.3717 90.2719C79.6444 92.1571 76.4982 93.9782 73.1397 94.7671C72.5136 94.9182 71.8716 95.0207 71.2222 95.0732C69.8121 95.1652 69.8003 96.9814 71.2222 96.8882C74.9864 96.6462 78.4585 94.9788 81.4365 93.1784C85.2465 90.8794 88.6286 88.1072 91.6362 85.1149C94.564 82.2012 97.2412 79.048 99.2014 75.6213C100.643 73.1032 102.022 70.1327 101.356 67.3049C101.07 66.0852 100.268 65.1076 99.1041 64.3344C96.778 62.7892 93.8619 61.457 90.7689 61.9507C86.3439 62.6573 83.9957 67.3824 85.3527 70.6796C86.0208 72.3034 87.5652 73.6163 89.611 74.0676C92.0654 74.6036 94.6363 73.8474 96.6526 72.6991C98.9905 71.3681 101.048 69.5422 102.333 67.4477C103.357 65.7791 104.023 63.9726 104.494 62.1503C105.511 58.2081 105.742 54.1304 105.674 50.1096C105.628 47.5444 105.46 44.9744 105.122 42.4237C105.106 42.3027 105.088 42.172 105.07 42.0462C104.998 41.5622 104.615 41.1387 103.964 41.1387C103.423 41.1387 102.784 41.5561 102.858 42.0462L102.849 42.0389Z" fill="#1B1B1B"/>
<path d="M220.919 101.313L93.4938 126.313C89.1696 127.161 86.5024 130.724 87.5366 134.272L105.394 195.525C106.428 199.072 110.772 201.26 115.096 200.412L242.521 175.412C246.845 174.564 249.513 171.001 248.478 167.453L230.621 106.2C229.587 102.653 225.243 100.465 220.919 101.313Z" fill="#AD6B46"/>
<path d="M224.925 113.905L96.8662 139.028C96.1009 139.179 95.6288 139.809 95.8119 140.437L99.125 151.802C99.308 152.429 100.077 152.817 100.842 152.667L228.901 127.543C229.667 127.393 230.139 126.762 229.956 126.134L226.642 114.77C226.459 114.142 225.691 113.754 224.925 113.905Z" fill="#1B1B1B"/>
<path d="M254.263 188.466C251.571 187.306 248.373 186.742 245.413 186.299C236.635 184.986 227.593 185.255 218.79 186.248C210.963 187.133 203.26 188.66 195.72 190.582C194.364 190.928 194.943 192.68 196.31 192.332C208.052 189.338 220.296 187.232 232.638 187.226C238.802 187.226 244.836 187.658 250.708 189.248C251.101 189.354 251.495 189.467 251.888 189.588C252.042 189.635 252.196 189.684 252.35 189.735L252.541 189.799C252.811 189.887 252.311 189.715 252.493 189.782C252.713 189.864 252.935 189.939 253.151 190.031C254.41 190.573 255.53 189.007 254.267 188.458L254.263 188.466Z" fill="#1B1B1B"/>
<path d="M230.133 136.691L234.174 149.466C235.521 153.724 236.931 157.971 238.216 162.241C238.527 163.26 238.472 164.331 238.058 165.325C237.644 166.319 236.888 167.194 235.881 167.843C235.017 168.394 234.023 168.69 232.98 168.897L227.171 170.082L205.382 174.525C200.307 175.559 195.19 176.508 190.143 177.632C190.062 177.65 189.981 177.665 189.899 177.682C188.519 177.964 189.103 179.714 190.489 179.431L203.617 176.756L226.142 172.158L233.027 170.754C233.39 170.681 233.754 170.61 234.115 170.532C235.497 170.223 236.766 169.646 237.817 168.849C238.868 168.051 239.668 167.058 240.15 165.952C241.107 163.782 240.355 161.742 239.69 159.639L237.161 151.653L232.366 136.494L232.275 136.208C231.918 135.078 229.782 135.557 230.142 136.692L230.133 136.691Z" fill="#1B1B1B"/>
</svg>
