<svg width="295" height="242" viewBox="0 0 295 242" fill="none" xmlns="http://www.w3.org/2000/svg">
<rect width="295" height="242" fill="#EDEDED"/>
<path d="M145.14 94.8071C129.715 94.8125 114.771 99.2127 102.863 107.256C90.955 115.298 82.8218 126.485 79.854 138.902C76.8862 151.319 79.2681 164.197 86.5924 175.333C93.9167 186.469 105.729 195.173 120.009 199.956C126.38 202.091 133.117 203.397 139.978 203.828C147.02 204.274 154.103 203.803 160.966 202.433C170.758 200.458 179.877 196.686 187.636 191.402C195.396 186.119 201.593 179.46 205.763 171.928C211.544 161.43 213.144 149.704 210.335 138.417C208.979 132.966 206.608 127.719 203.307 122.86C196.763 113.234 186.833 105.449 174.814 100.523C168.716 98.0291 162.183 96.3242 155.449 95.469C152.037 95.0375 148.591 94.8179 145.139 94.812C143.715 94.812 143.713 96.627 145.139 96.627C158.391 96.6253 171.321 99.9812 182.161 106.236C193 112.49 201.22 121.339 205.698 131.571C210.175 141.803 210.691 152.92 207.176 163.402C203.66 173.884 196.284 183.219 186.055 190.132C175.884 197.034 163.359 201.185 150.198 202.017C143.389 202.451 136.539 202.002 129.901 200.686C123.521 199.41 117.418 197.338 111.805 194.543C100.698 189.011 91.8816 180.861 86.5062 171.157C83.7663 166.211 81.9866 160.945 81.2316 155.548C80.4458 149.968 80.7375 144.322 82.0959 138.817C85.0465 126.893 92.9385 116.174 104.431 108.482C115.924 100.79 130.308 96.5998 145.14 96.6221C146.564 96.6197 146.565 94.8047 145.14 94.8071Z" fill="#1B1B1B"/>
<path d="M162.365 180.215C162.332 180.571 160.778 180.403 160.495 180.403H129.685C129.295 180.403 128.062 180.579 127.915 180.209C127.767 179.839 127.915 179.191 127.915 178.79V173.151C127.915 172.927 127.767 172.165 127.975 171.992C128.232 171.785 129.254 171.94 129.562 171.94H136.362C137.055 171.94 137.853 172.016 138.493 171.762C139.716 171.278 139.722 170.332 139.722 169.402V131.977C139.718 131.738 139.6 131.509 139.393 131.339C139.187 131.17 138.908 131.073 138.616 131.07H128.313L129.419 131.977V127.181L128.313 128.088C131.611 128.059 134.353 126.706 136.293 124.571C137.123 123.627 137.807 122.602 138.327 121.519C138.559 121.058 138.767 120.589 138.951 120.112C139.114 119.688 139.19 119.144 139.516 118.781C140.014 118.233 140.78 118.297 141.51 118.297H148.209C148.789 118.297 149.491 118.215 150.059 118.342C151.119 118.584 151.149 119.359 151.149 120.076V165.027C151.149 166.686 151.119 168.347 151.149 170.006C151.132 170.374 151.234 170.739 151.444 171.064C152.024 171.876 153.034 171.939 154.041 171.939H160.756C161.064 171.939 162.114 171.795 162.324 172.018C162.533 172.242 162.363 173.008 162.363 173.278V180.214C162.363 181.381 164.576 181.384 164.576 180.214V173.151C164.576 172.614 164.65 172.014 164.446 171.496C164.039 170.462 162.868 170.124 161.672 170.124H154.969C154.674 170.124 153.474 170.23 153.333 170.13C153.413 170.187 153.358 170.043 153.363 169.955C153.373 169.724 153.363 169.491 153.363 169.26V123.495C153.363 122.173 153.416 120.843 153.363 119.52C153.308 118.164 152.268 116.966 150.649 116.593C149.928 116.427 149.118 116.483 148.374 116.483H141.6C140.691 116.483 139.83 116.483 138.983 116.833C137.471 117.472 137.2 118.691 136.713 119.888C135.903 121.882 134.594 124.008 132.422 125.227C131.212 125.908 129.779 126.273 128.312 126.274C128.019 126.278 127.74 126.375 127.534 126.544C127.327 126.713 127.209 126.942 127.205 127.182V131.978C127.209 132.218 127.327 132.447 127.534 132.616C127.74 132.786 128.019 132.882 128.312 132.886H138.613L137.507 131.978V169.747C137.507 169.84 137.564 170.082 137.507 170.166C137.541 170.116 137.583 170.115 137.442 170.124C137.147 170.141 136.852 170.124 136.557 170.124H129.615C128.98 170.124 128.281 170.062 127.651 170.168C125.182 170.583 125.701 173.072 125.701 174.587V179.927C125.701 180.94 126.261 181.893 127.556 182.159C127.903 182.216 128.257 182.236 128.609 182.221H153.627C156.429 182.221 159.267 182.303 162.076 182.221C163.492 182.18 164.474 181.374 164.583 180.219C164.692 179.063 162.468 179.055 162.365 180.215Z" fill="#1B1B1B"/>
<path d="M229.795 94.8639C226.465 95.2583 223.029 96.8737 220.931 99.0045C218.792 101.176 217.944 103.895 217.773 106.649C217.658 108.51 217.946 110.818 219.748 112.146C221.124 113.163 222.689 113.072 224.235 112.388C226.464 111.4 228.575 109.66 229.069 107.557C229.644 105.11 228.213 102.505 225.249 101.688C222.389 100.901 219.09 101.738 216.456 102.695C213.041 103.936 209.779 105.897 208.152 108.733C206.315 111.933 206.947 115.436 209.53 118.231C209.892 118.625 210.479 118.821 211.043 118.557C211.515 118.337 211.8 117.71 211.44 117.315C209.485 115.2 208.674 112.685 209.817 110.138C210.817 107.903 213.062 106.274 215.519 105.119C218.601 103.667 226.729 101.233 226.991 106.298C227.082 108.089 225.523 109.576 223.784 110.498C223.441 110.679 223.085 110.843 222.719 110.99C222.437 111.103 222.719 111.011 222.461 111.078C222.35 111.106 221.95 111.148 222.313 111.131C222.203 111.131 222.095 111.131 221.984 111.131C221.754 111.131 222.189 111.167 222.04 111.137C221.983 111.125 221.924 111.119 221.868 111.104L221.694 111.058C221.546 111.017 221.939 111.163 221.713 111.058C221.569 110.998 221.43 110.928 221.299 110.849C221.512 110.981 221.167 110.735 221.122 110.699C221.076 110.663 221.012 110.602 220.962 110.552C220.841 110.431 221.11 110.726 220.921 110.504C220.705 110.253 220.532 109.979 220.406 109.689C220.042 108.812 219.949 107.904 219.978 106.982C220.049 104.693 220.67 102.279 222.374 100.418C224.269 98.3474 227.347 96.9656 230.392 96.605C230.982 96.5349 231.311 95.919 231.165 95.4882C230.986 94.9679 230.401 94.784 229.803 94.8542L229.795 94.8639Z" fill="#1B1B1B"/>
<path d="M223.841 65.086L220.66 69.7275L212.963 80.9273L203.676 94.4285L195.626 106.144C194.331 108.029 192.949 109.895 191.732 111.81C191.714 111.837 191.695 111.863 191.677 111.89C190.977 112.909 192.888 113.826 193.595 112.806L196.784 108.166L204.48 96.9659L213.759 83.4635L221.803 71.7531C223.098 69.8679 224.48 68.0021 225.697 66.0866C225.714 66.06 225.734 66.0334 225.751 66.0068C226.452 64.988 224.54 64.0708 223.834 65.0908L223.841 65.086Z" fill="#1B1B1B"/>
<path d="M208.39 64.3286L200.214 75.9446L187.185 94.4576L184.2 98.6926C183.486 99.7054 185.398 100.621 186.117 99.6086L194.293 87.9926L207.322 69.4796L210.307 65.2446C211.021 64.2318 209.11 63.3158 208.39 64.3286Z" fill="#1B1B1B"/>
<path d="M176.853 41.123L168.557 52.9084L155.329 71.701L152.285 76.0255C151.571 77.0383 153.483 77.9542 154.202 76.9415L162.498 65.1561L175.726 46.3636L178.77 42.039C179.484 41.0262 177.572 40.1103 176.853 41.123Z" fill="#1B1B1B"/>
<path d="M161.99 38.6123L156.005 47.3243L146.506 61.1461L144.317 64.3309C143.616 65.3497 145.528 66.2669 146.234 65.2468L152.22 56.5348L161.712 42.713L163.9 39.5283C164.601 38.5095 162.689 37.5923 161.983 38.6123H161.99Z" fill="#1B1B1B"/>
<path d="M126.378 39.5283L130.538 45.5275L140.516 59.935L152.592 77.3699L163.032 92.4441C164.724 94.8858 166.321 97.3966 168.118 99.7876C168.144 99.8226 168.167 99.8577 168.192 99.894C168.895 100.909 170.807 99.9957 170.109 98.9781L165.954 92.9801L155.968 78.5775L143.894 61.1426L133.449 46.0623C131.758 43.6206 130.16 41.1098 128.364 38.7188C128.337 38.6838 128.315 38.6487 128.29 38.6124C127.586 37.5972 125.675 38.5107 126.372 39.5283H126.378Z" fill="#1B1B1B"/>
<path d="M111.49 43.076L114.393 47.0605L121.365 56.628L129.801 68.2065L137.096 78.218C138.276 79.837 139.388 81.508 140.645 83.0883C140.663 83.1113 140.679 83.1343 140.695 83.1572C141.425 84.1591 143.338 83.2468 142.613 82.2413L139.71 78.2567L132.738 68.6881L124.295 57.112L116.999 47.1005C115.819 45.4815 114.707 43.8105 113.45 42.2302C113.433 42.2072 113.417 42.1842 113.4 42.1612C112.67 41.1594 110.757 42.0717 111.483 43.0772L111.49 43.076Z" fill="#1B1B1B"/>
<path d="M75.3445 59.2212L78.2473 63.2058L85.2197 72.7745L93.6626 84.3529L100.958 94.3645C102.138 95.9835 103.25 97.6545 104.507 99.2347C104.524 99.2577 104.541 99.2807 104.557 99.3037C105.287 100.306 107.2 99.3932 106.474 98.3877L103.572 94.4032L96.5993 84.8345L88.1638 73.256L80.8684 63.2445C79.6884 61.6255 78.5763 59.9545 77.3196 58.3742C77.3019 58.3513 77.2856 58.3283 77.2694 58.3053C76.5393 57.3034 74.6262 58.2157 75.3519 59.2212H75.3445Z" fill="#1B1B1B"/>
<path d="M65.1627 65.7029L68.3679 70.3675L75.9907 81.4584L85.2832 94.9753L93.2807 106.613C94.5728 108.492 95.7793 110.439 97.1688 112.271C97.1879 112.296 97.2056 112.324 97.2233 112.351C97.9225 113.368 99.8341 112.455 99.1408 111.435L95.9357 106.77L88.304 95.6746L79.0145 82.1589L71.017 70.5212C69.7249 68.642 68.5184 66.6951 67.1289 64.8632C67.1097 64.8378 67.092 64.81 67.0743 64.7834C66.3752 63.7657 64.4636 64.6793 65.1568 65.6993L65.1627 65.7029Z" fill="#1B1B1B"/>
<path d="M185.48 138.283C185.777 139.023 186.023 139.776 186.217 140.539C186.743 142.458 187.066 144.411 187.185 146.375C187.616 152.621 186.206 158.943 182.708 164.525C180.053 168.76 176.325 172.43 171.932 175.525C170.851 176.287 172.422 177.566 173.497 176.809C180.987 171.531 186.427 164.515 188.471 156.555C189.79 151.343 189.809 145.967 188.529 140.749C188.306 139.75 188.002 138.764 187.62 137.799C187.161 136.7 185.023 137.172 185.487 138.283H185.48Z" fill="#1B1B1B"/>
<path d="M73.1171 170.368C73.1938 173.116 74.0581 175.934 75.0995 178.532C77.584 184.708 81.9539 190.26 87.7933 194.66C92.3245 198.066 97.6154 200.717 103.265 202.681C103.819 202.873 104.445 202.814 104.778 202.355C105.054 201.977 104.925 201.305 104.381 201.114C95.4147 197.997 87.4098 193.099 82.0807 186.342C78.8401 182.267 76.6571 177.687 75.6674 172.89C75.627 172.693 75.5892 172.495 75.5538 172.298C75.5464 172.253 75.4918 171.935 75.5199 172.109C75.5479 172.283 75.5022 171.995 75.4933 171.941C75.452 171.658 75.4137 171.376 75.3827 171.094C75.3576 170.852 75.3325 170.61 75.3252 170.368C75.2927 169.201 73.0802 169.198 73.1127 170.368H73.1171Z" fill="#1B1B1B"/>
<path d="M145.14 107.984C117.263 107.984 94.6582 126.525 94.6582 149.396C94.6582 172.268 117.263 190.808 145.14 190.808C173.018 190.808 195.622 172.268 195.622 149.396C195.622 126.525 173.018 107.984 145.14 107.984ZM163.471 180.215C163.472 180.358 163.439 180.501 163.372 180.633C163.306 180.766 163.209 180.887 163.085 180.989C162.962 181.091 162.815 181.171 162.654 181.226C162.492 181.282 162.319 181.31 162.144 181.31H128.144C127.968 181.311 127.794 181.283 127.632 181.228C127.469 181.173 127.322 181.093 127.198 180.991C127.073 180.889 126.975 180.768 126.908 180.635C126.842 180.502 126.808 180.359 126.809 180.215V172.126C126.809 171.982 126.843 171.84 126.911 171.708C126.978 171.575 127.076 171.455 127.2 171.354C127.324 171.253 127.471 171.173 127.633 171.118C127.795 171.064 127.969 171.036 128.144 171.037H137.569C137.847 171.037 138.113 170.946 138.309 170.785C138.506 170.624 138.616 170.406 138.616 170.178V131.978H128.315V127.182C134.75 127.182 137.312 121.737 138.205 118.968C138.352 118.516 138.678 118.116 139.132 117.832C139.586 117.547 140.141 117.394 140.712 117.395H149.671C150.358 117.395 151.017 117.619 151.503 118.018C151.989 118.416 152.261 118.957 152.261 119.52V170.178C152.261 170.406 152.372 170.624 152.568 170.785C152.765 170.946 153.031 171.037 153.309 171.037H162.142C162.494 171.037 162.832 171.152 163.081 171.356C163.33 171.56 163.47 171.837 163.47 172.126L163.471 180.215Z" fill="#AD6B46"/>
<path d="M163.471 172.126V180.215C163.472 180.359 163.439 180.501 163.372 180.634C163.306 180.767 163.208 180.887 163.085 180.989C162.962 181.091 162.815 181.172 162.653 181.227C162.492 181.282 162.319 181.31 162.144 181.31H128.143C127.968 181.311 127.794 181.283 127.632 181.228C127.469 181.174 127.322 181.093 127.197 180.991C127.073 180.889 126.975 180.768 126.908 180.635C126.842 180.502 126.808 180.359 126.809 180.215V172.126C126.809 171.983 126.843 171.841 126.91 171.708C126.978 171.576 127.076 171.455 127.2 171.354C127.324 171.253 127.471 171.173 127.633 171.118C127.795 171.064 127.969 171.036 128.143 171.037H137.569C137.846 171.037 138.113 170.947 138.309 170.786C138.506 170.625 138.616 170.406 138.616 170.178V131.978H128.315V127.182C134.75 127.182 137.312 121.737 138.204 118.969C138.352 118.516 138.678 118.116 139.132 117.832C139.585 117.547 140.141 117.394 140.712 117.396H149.671C150.358 117.396 151.017 117.619 151.503 118.018C151.988 118.416 152.261 118.957 152.261 119.52V170.178C152.261 170.406 152.372 170.625 152.568 170.786C152.764 170.947 153.031 171.037 153.308 171.037H162.142C162.317 171.037 162.489 171.065 162.651 171.12C162.812 171.174 162.958 171.255 163.082 171.356C163.205 171.457 163.303 171.577 163.37 171.709C163.437 171.841 163.471 171.983 163.471 172.126Z" fill="#1B1B1B"/>
</svg>
