<svg width="295" height="242" viewBox="0 0 295 242" fill="none" xmlns="http://www.w3.org/2000/svg">
<rect width="295" height="242" fill="#EDEDED"/>
<path d="M35.0898 119.79C40.7199 118.701 46.2762 117.27 51.7337 115.711C56.8265 114.274 61.8259 112.624 66.7124 110.766C71.6492 108.871 76.2866 106.652 80.8119 104.164C90.3153 98.9457 100.064 94.0004 110.128 89.5367C115.134 87.3176 120.225 85.2158 125.457 83.3778C129.841 81.8375 134.362 80.4388 139.035 79.6135C142.055 79.0799 145.132 78.6818 148.197 78.3588C150.79 78.0853 153.408 77.8857 156.025 77.9099C159.624 77.9437 163.705 78.3939 166.248 80.7146C166.783 81.2121 167.233 81.7664 167.586 82.3627C167.799 82.7111 168.434 82.405 168.223 82.0577C166.63 79.4417 163.568 78.0744 160.149 77.5904C155.181 76.8874 149.972 77.4924 145.038 78.1252C142.327 78.4737 139.601 78.8343 136.943 79.4018C134.652 79.9001 132.393 80.4938 130.176 81.1805C125.044 82.7438 120.065 84.6447 115.197 86.6751C104.666 91.0589 94.5235 96.0744 84.6366 101.369C80.1437 103.772 75.7748 106.29 71.0194 108.344C66.0044 110.511 60.7652 112.344 55.4507 113.973C48.8398 115.999 42.0725 117.772 35.2123 119.145L34.8937 119.208C34.432 119.298 34.6267 119.881 35.0898 119.792V119.79Z" fill="#1B1B1B"/>
<path d="M133.182 99.5109C133.182 99.5109 137.04 92.4627 150.978 89.9519C164.915 87.4412 165.499 86.7721 168.034 83.856C168.034 83.856 201.262 85.0212 221.77 95.835C242.279 106.649 259.2 124.672 265.492 131.906C265.492 131.906 263.937 139.626 249.69 145.337C235.443 151.048 225.337 156.979 220.071 163.035C220.071 163.035 204.698 125.467 174.175 115.126C143.651 104.785 133.182 99.5109 133.182 99.5109Z" fill="#AD6B46"/>
<path d="M234.161 114.357C232.378 112.71 229.901 111.679 227.228 111.471C224.483 111.235 221.575 111.723 218.505 112.934L218.239 113.038C217.893 112.727 217.545 112.417 217.194 112.11C214.432 109.701 211.487 107.438 208.378 105.334C209.201 105.074 210.059 104.896 210.934 104.804C212.48 104.64 214.051 104.725 215.558 105.056C216.196 105.197 216.876 105.142 217.468 104.9C218.06 104.659 218.524 104.249 218.773 103.746L218.824 103.642C218.962 103.362 219.028 103.062 219.019 102.76C219.01 102.459 218.926 102.161 218.771 101.887C218.617 101.613 218.395 101.368 218.121 101.167C217.846 100.966 217.524 100.814 217.174 100.719C214.957 100.127 212.598 99.9806 210.297 100.293C207.943 100.595 205.698 101.313 203.717 102.398C202.132 101.47 200.51 100.589 198.849 99.7558C197.498 99.0782 196.117 98.4139 194.69 97.85C193.533 97.3926 192.054 98.0557 191.626 98.979C191.136 100.034 191.844 101.036 193.002 101.492C193.215 101.576 193.423 101.666 193.631 101.756L193.684 101.78L194.184 102.008C194.606 102.203 195.027 102.404 195.445 102.613C197.019 103.381 198.554 104.201 200.056 105.062C198.987 106.074 198.125 107.223 197.505 108.462C196.659 110.115 196.384 111.928 196.71 113.701C197.039 115.462 198.022 117.075 199.66 118.541C201.322 120.07 203.608 121.049 206.088 121.291C208.634 121.562 211.644 120.998 215.118 119.597L217.759 118.539C219.482 120.271 221.105 122.068 222.626 123.928C222.832 124.179 223.035 124.431 223.235 124.684C223.356 124.837 223.477 124.99 223.598 125.144L223.666 125.231L223.747 125.339C224.19 125.92 224.62 126.502 225.041 127.092C225.188 127.304 225.336 127.517 225.483 127.731C224.201 128.273 222.808 128.618 221.374 128.749C219.573 128.921 217.749 128.812 215.999 128.426C215.357 128.282 214.673 128.337 214.077 128.581C213.482 128.825 213.017 129.24 212.77 129.747L212.745 129.8C212.61 130.081 212.547 130.382 212.56 130.684C212.572 130.985 212.659 131.282 212.816 131.555C212.973 131.828 213.196 132.072 213.472 132.272C213.748 132.472 214.071 132.624 214.421 132.717C216.651 133.321 219.012 133.535 221.349 133.344C223.686 133.153 225.949 132.562 227.991 131.609C229.502 134.141 230.825 136.747 231.953 139.41C232.374 140.405 234.028 140.768 235.108 140.356C236.367 139.872 236.684 138.765 236.261 137.768C235.021 134.848 233.547 131.999 231.849 129.239C233.758 127.753 235.146 126.155 236.015 124.446C236.929 122.643 237.232 120.854 236.923 119.078C236.615 117.309 235.651 115.661 234.161 114.357ZM212.195 115.424C211.406 115.732 210.593 115.996 209.761 116.215C208.775 116.481 207.729 116.56 206.701 116.444C205.625 116.334 204.617 115.856 203.677 115.011C203.089 114.505 202.646 113.897 202.382 113.231C202.118 112.566 202.039 111.861 202.15 111.167C202.322 109.912 203.031 108.736 204.276 107.64C205.384 108.36 206.472 109.101 207.54 109.862C207.933 110.146 208.326 110.432 208.72 110.722C208.931 110.878 209.14 111.035 209.35 111.193L209.364 111.205C209.512 111.315 209.65 111.424 209.792 111.534C210.666 112.211 211.524 112.902 212.366 113.608C212.836 114.002 213.301 114.401 213.76 114.803L212.195 115.424ZM231.255 121.824C230.932 123.09 230.225 124.269 229.2 125.253C227.097 122.312 224.745 119.496 222.161 116.825C222.511 116.713 222.883 116.602 223.28 116.492C224.37 116.19 225.524 116.073 226.672 116.146C227.838 116.218 228.909 116.691 229.885 117.566C231.208 118.753 231.664 120.173 231.253 121.824H231.255Z" fill="black"/>
<path d="M47.036 156.624C61.786 152.033 78.2543 149.069 94.0118 151.387C98.2836 152.002 102.441 153.066 106.381 154.552C106.809 154.716 107.184 154.189 106.753 154.03C92.1503 148.464 75.2424 149.351 60.0189 152.578C55.5516 153.533 51.1514 154.689 46.8383 156.04C46.3958 156.176 46.589 156.766 47.0345 156.623L47.036 156.624Z" fill="#1B1B1B"/>
<path d="M143.857 99.3221L155.469 103.618L174.054 110.493L178.303 112.066C178.852 112.269 179.483 112.187 179.817 111.74C180.098 111.354 179.964 110.7 179.42 110.499L167.809 106.203L149.224 99.3281L144.974 97.7551C144.425 97.5518 143.794 97.6341 143.461 98.0806C143.179 98.4666 143.313 99.1212 143.857 99.3221Z" fill="black"/>
<path d="M35.3862 120.666C40.2198 119.65 44.9575 118.223 49.6067 116.754C61.297 113.057 72.571 108.528 83.3001 103.221C89.886 99.9621 96.0943 96.2365 102.634 92.9211C107.902 90.2506 113.33 87.7834 118.957 85.6611C126.118 82.9592 133.662 80.8211 141.473 79.8374C141.796 79.7962 142.119 79.7587 142.442 79.7164C142.765 79.674 142.386 79.7164 142.709 79.6873L143.254 79.6305C143.823 79.5732 144.392 79.522 144.961 79.4768C145.955 79.3969 146.949 79.3352 147.945 79.2771C150.911 79.1065 153.895 79.0351 156.863 79.2142C159.575 79.3824 162.457 79.7454 164.866 80.8441C165.788 81.2652 166.648 81.8036 167.269 82.5115C167.62 82.912 168.228 83.0959 168.782 82.837C169.265 82.6119 169.52 81.99 169.179 81.5955C165.787 77.7235 158.845 77.3181 153.532 77.2939C150.244 77.2936 146.959 77.4552 143.694 77.7779C136.466 78.464 129.448 80.112 122.714 82.3626C117.415 84.1511 112.262 86.2172 107.287 88.5482C104.222 89.9727 101.211 91.4731 98.2537 93.0494C94.9231 94.8135 91.6914 96.6963 88.3712 98.4726C77.0939 104.506 65.1415 109.644 52.6762 113.817C46.9117 115.753 41.0266 117.438 35.0455 118.865C34.9629 118.884 34.8788 118.901 34.7947 118.919C33.4171 119.208 34.0012 120.96 35.3847 120.669L35.3862 120.666Z" fill="black"/>
<path d="M185.296 80.4277L185.532 80.452C185.852 80.4846 185.222 80.4157 185.554 80.452L185.97 80.5003C186.835 80.602 187.698 80.7129 188.56 80.8331C191.469 81.2364 194.36 81.7164 197.233 82.273C205.242 83.8242 213.254 85.903 220.485 89.17C224.448 90.9656 228.203 93.1557 231.105 96.0392C231.488 96.4203 232.271 96.3586 232.67 96.0392C233.131 95.6689 233.047 95.1317 232.67 94.7554C227.239 89.3491 218.995 86.122 211.135 83.7552C204.26 81.6849 197.103 80.216 189.895 79.1839C188.368 78.9649 186.837 78.7604 185.299 78.6067C184.709 78.5474 184.192 79.0665 184.192 79.5142C184.192 80.0539 184.703 80.3612 185.299 80.4217L185.296 80.4277Z" fill="#1B1B1B"/>
<path d="M187.068 74.9331C190.377 75.9422 193.9 76.615 197.393 77.0264C203.026 77.6907 209.708 77.8008 214.341 74.6463C215.612 73.7812 216.534 72.6764 217.319 71.5003C218.188 70.1911 218.941 68.7827 219.154 67.2907C219.405 65.558 218.5 63.7249 216.248 63.3219C214.435 62.9977 212.344 63.6075 211.335 64.9167C211.017 65.3102 210.848 65.7725 210.851 66.2447C210.853 66.717 211.027 67.1779 211.35 67.569C212.122 68.4838 213.459 68.9872 214.724 69.286C217.517 69.9479 221.198 69.9092 223.492 68.2624C224.903 67.2484 225.999 65.8787 226.974 64.5755C227.779 63.4916 228.512 62.3727 229.169 61.2238C229.272 61.0447 229.374 60.8608 229.464 60.6841C229.706 60.2316 229.622 59.7161 229.067 59.4427C228.601 59.214 227.793 59.3217 227.554 59.7682C226.609 61.548 225.458 63.2498 224.119 64.8502C223.328 65.7903 222.386 66.8987 221.142 67.3827C220.071 67.8002 218.794 67.8836 217.614 67.8437C216.434 67.8038 215.16 67.609 214.146 67.1734C213.925 67.0825 213.715 66.976 213.516 66.8551C213.592 66.9035 213.109 66.5042 213.221 66.6216C213.163 66.5576 213.113 66.4882 213.074 66.4147C213.151 66.5551 213.074 66.405 213.052 66.3421C213 66.1703 213.052 66.4571 213.043 66.278C213.034 66.0989 213.043 66.2356 213.027 66.278C213.04 66.2235 213.052 66.1679 213.072 66.1146C213.139 65.9331 213.016 66.1812 213.093 66.0505C213.125 65.9936 213.165 65.9416 213.201 65.8859C213.238 65.8318 213.28 65.7797 213.326 65.7298C213.179 65.8944 213.326 65.7298 213.4 65.6718C213.474 65.6137 213.808 65.3874 213.586 65.5193C213.727 65.4369 213.875 65.3618 214.028 65.2942C214.109 65.2567 214.195 65.2241 214.28 65.1938C214.106 65.2567 214.207 65.2168 214.316 65.1938C214.484 65.1502 214.652 65.1152 214.823 65.0813C214.866 65.0728 215.118 65.045 214.955 65.0607C214.791 65.0764 215.092 65.0607 215.127 65.0547H215.366C215.415 65.0547 215.699 65.074 215.534 65.0547C215.369 65.0353 215.615 65.0656 215.658 65.0752L215.885 65.1224C215.972 65.1425 216.058 65.1668 216.142 65.195C215.934 65.1261 216.098 65.1781 216.192 65.2277C216.257 65.2616 216.325 65.2942 216.39 65.3293C216.455 65.3644 216.258 65.2229 216.41 65.3475L216.58 65.4854C216.751 65.6282 216.528 65.3898 216.657 65.5689C216.747 65.6899 216.854 65.8908 216.817 65.8109C216.888 65.9725 216.94 66.1389 216.974 66.3082C216.943 66.1485 216.983 66.4208 216.984 66.4692C216.984 66.566 216.984 66.6628 216.984 66.7608C216.979 66.9522 216.957 67.143 216.919 67.3319C216.635 68.681 215.866 69.9406 215.036 71.1143C214.432 72.0073 213.625 72.7971 212.659 73.4412C208.73 75.9822 202.882 75.8297 198.204 75.307C194.644 74.9089 191.259 74.097 187.837 73.2391C187.778 73.2246 187.72 73.2052 187.661 73.1871C186.325 72.7793 185.744 74.5326 187.071 74.9367L187.068 74.9331Z" fill="#1B1B1B"/>
<path d="M47.3996 156.824C47.6755 156.715 47.9557 156.614 48.236 156.512L48.6947 156.349L48.8422 156.297L49.0885 156.213C49.5556 156.052 50.0246 155.898 50.4957 155.751C53.3759 154.836 56.3133 154.048 59.2955 153.389C68.4184 151.361 77.9793 150.455 87.409 151.231C93.7663 151.753 100.039 153.107 105.827 155.336C107.109 155.83 108.233 154.265 106.944 153.763C96.6779 149.811 85.2467 148.567 74.0057 149.379C66.0473 149.962 58.222 151.428 50.7435 153.735C49.2404 154.199 47.733 154.68 46.286 155.254C45.0042 155.762 46.1252 157.327 47.4026 156.827L47.3996 156.824Z" fill="black"/>
<path d="M47.4117 164.821C51.6494 163.818 55.9387 162.948 60.2354 162.132C68.5308 160.559 76.9486 159.172 85.4431 158.578C89.1631 158.318 92.9656 158.177 96.6767 158.565C97.2122 158.62 98.0957 158.746 98.7639 158.875C99.7521 159.067 100.726 159.316 101.705 159.535C104.235 160.1 106.777 160.627 109.331 161.116C114.936 162.19 120.598 163.08 126.308 163.694C131.587 164.26 136.965 164.621 142.285 164.29C144.48 164.154 146.688 163.907 148.808 163.409C151.864 162.692 154.868 161.753 157.83 160.809C161.382 159.677 164.91 158.456 168.303 157.029C168.462 156.962 168.621 156.895 168.778 156.826C170.031 156.272 168.916 154.705 167.661 155.253C165.366 156.267 162.956 157.129 160.553 157.955C157.775 158.909 154.962 159.79 152.115 160.597C149.703 161.285 147.319 161.937 144.788 162.247C139.806 162.859 134.639 162.61 129.649 162.193C123.952 161.709 118.302 160.883 112.71 159.879C110.09 159.408 107.485 158.897 104.892 158.344C102.86 157.912 100.845 157.361 98.7875 157.013C95.2475 156.422 91.56 156.439 87.9713 156.606C79.3558 157.005 70.7934 158.335 62.383 159.863C57.2603 160.795 52.0978 161.759 47.071 163.009L46.8262 163.066C45.4603 163.389 46.0415 165.141 47.4162 164.815L47.4117 164.821Z" fill="black"/>
<path d="M191.325 145.039C191.384 145.281 191.325 144.797 191.325 144.987C191.325 145.149 191.353 145.312 191.352 145.471C191.352 145.573 191.352 145.675 191.337 145.776C191.337 145.833 191.324 145.889 191.319 145.946C191.299 146.175 191.371 145.747 191.319 145.978C191.252 146.286 191.161 146.589 191.046 146.887C191.015 146.963 190.98 147.038 190.948 147.113C190.93 147.152 190.911 147.191 190.892 147.234C190.83 147.355 191.007 147.029 190.892 147.222C190.776 147.416 190.675 147.585 190.551 147.764C190.328 148.106 190.049 148.421 189.722 148.701C188.759 149.578 187.692 150.153 186.375 150.694C181.704 152.595 176.178 152.647 171.11 153.187C166.144 153.717 161.192 154.339 156.273 155.108C152.567 155.686 148.885 156.361 145.211 157.073C143.826 157.341 144.411 159.091 145.801 158.822C153.985 157.226 162.262 155.97 170.6 155.057C176.091 154.463 181.885 154.366 187.003 152.451C189.568 151.491 191.906 149.959 192.993 147.774C193.485 146.785 193.731 145.619 193.467 144.558C193.172 143.414 191.045 143.898 191.334 145.042L191.325 145.039Z" fill="black"/>
<path d="M152.345 147.551C154.146 146.765 155.796 146.255 157.74 145.695C162.188 144.397 166.821 143.574 171.524 143.247C174.471 143.05 177.434 143.081 180.374 143.339C183.099 143.581 185.832 143.772 188.569 143.729C192.224 143.671 196.253 143.308 199.408 141.658C202.114 140.244 203.576 137.972 203.685 135.359C203.731 134.19 201.518 134.193 201.473 135.359C201.399 137.224 200.44 138.895 198.548 139.957C195.71 141.545 191.963 141.862 188.575 141.915C185.832 141.958 183.105 141.771 180.38 141.525C177.52 141.273 174.638 141.237 171.771 141.418C167.032 141.716 162.358 142.499 157.855 143.748C155.606 144.369 153.33 145.067 151.231 145.984C149.975 146.533 151.084 148.1 152.348 147.557L152.345 147.551Z" fill="black"/>
<path d="M186.98 125.88C184.637 125.88 182.285 126.009 179.953 126.171C174.378 126.548 168.844 127.255 163.394 128.289C159.714 128.987 156.094 129.88 152.555 130.961C151.228 131.367 151.806 133.123 153.145 132.71C163.158 129.628 173.952 128.099 184.62 127.743C185.407 127.717 186.194 127.694 186.98 127.695C188.404 127.695 188.407 125.88 186.98 125.88Z" fill="black"/>
</svg>
