<svg width="79" height="21" viewBox="0 0 79 21" fill="none" xmlns="http://www.w3.org/2000/svg">
<path d="M17.5 5.48307C14.725 5.20807 11.9333 5.06641 9.15 5.06641C7.5 5.06641 5.85 5.14974 4.2 5.31641L2.5 5.48307" stroke="#F04438" stroke-width="1.5" stroke-linecap="round" stroke-linejoin="round"/>
<path d="M7.08398 4.64199L7.26732 3.55033C7.40065 2.75866 7.50065 2.16699 8.90898 2.16699H11.0923C12.5007 2.16699 12.609 2.79199 12.734 3.55866L12.9173 4.64199" stroke="#F04438" stroke-width="1.5" stroke-linecap="round" stroke-linejoin="round"/>
<path d="M15.7077 8.11621L15.166 16.5079C15.0743 17.8162 14.9993 18.8329 12.6743 18.8329H7.32435C4.99935 18.8329 4.92435 17.8162 4.83268 16.5079L4.29102 8.11621" stroke="#F04438" stroke-width="1.5" stroke-linecap="round" stroke-linejoin="round"/>
<path d="M8.60742 14.25H11.3824" stroke="#F04438" stroke-width="1.5" stroke-linecap="round" stroke-linejoin="round"/>
<path d="M7.91602 10.917H12.0827" stroke="#F04438" stroke-width="1.5" stroke-linecap="round" stroke-linejoin="round"/>
<path d="M25.162 16V5.57H28.844C29.5347 5.57 30.1413 5.70067 30.664 5.962C31.1867 6.22333 31.5927 6.59667 31.882 7.082C32.1807 7.56733 32.33 8.13667 32.33 8.79C32.33 9.52733 32.1433 10.1527 31.77 10.666C31.3967 11.1793 30.8927 11.548 30.258 11.772L32.68 16H31.084L28.536 11.478L29.446 12.01H26.534V16H25.162ZM26.534 10.75H28.886C29.2967 10.75 29.656 10.6707 29.964 10.512C30.272 10.3533 30.51 10.1247 30.678 9.826C30.8553 9.52733 30.944 9.182 30.944 8.79C30.944 8.38867 30.8553 8.04333 30.678 7.754C30.51 7.45533 30.272 7.22667 29.964 7.068C29.656 6.90933 29.2967 6.83 28.886 6.83H26.534V10.75ZM37.1343 16.168C36.4063 16.168 35.7576 15.9953 35.1883 15.65C34.619 15.3047 34.171 14.8333 33.8443 14.236C33.5176 13.6293 33.3543 12.9527 33.3543 12.206C33.3543 11.45 33.513 10.778 33.8303 10.19C34.157 9.602 34.5956 9.14 35.1463 8.804C35.7063 8.45867 36.3316 8.286 37.0223 8.286C37.5823 8.286 38.077 8.38867 38.5063 8.594C38.945 8.79 39.3136 9.06067 39.6123 9.406C39.9203 9.742 40.1536 10.1293 40.3123 10.568C40.4803 10.9973 40.5643 11.4453 40.5643 11.912C40.5643 12.0147 40.555 12.1313 40.5363 12.262C40.527 12.3833 40.513 12.5 40.4943 12.612H34.3063V11.492H39.7383L39.1223 11.996C39.2063 11.5107 39.1596 11.0767 38.9823 10.694C38.805 10.3113 38.5436 10.008 38.1983 9.784C37.853 9.56 37.461 9.448 37.0223 9.448C36.5836 9.448 36.1823 9.56 35.8183 9.784C35.4543 10.008 35.1696 10.33 34.9643 10.75C34.7683 11.1607 34.689 11.6507 34.7263 12.22C34.689 12.7707 34.773 13.256 34.9783 13.676C35.193 14.0867 35.4916 14.4087 35.8743 14.642C36.2663 14.866 36.691 14.978 37.1483 14.978C37.6523 14.978 38.077 14.8613 38.4223 14.628C38.7676 14.3947 39.0476 14.096 39.2623 13.732L40.3543 14.292C40.205 14.6373 39.9716 14.9547 39.6543 15.244C39.3463 15.524 38.9776 15.748 38.5483 15.916C38.1283 16.084 37.657 16.168 37.1343 16.168ZM42.2619 16V8.454H43.5359V9.994L43.3539 9.756C43.5406 9.28 43.8392 8.916 44.2499 8.664C44.6606 8.412 45.1226 8.286 45.6359 8.286C46.2239 8.286 46.7512 8.44933 47.2179 8.776C47.6939 9.10267 48.0206 9.532 48.1979 10.064L47.8339 10.078C48.0299 9.49 48.3612 9.04667 48.8279 8.748C49.2946 8.44 49.8126 8.286 50.3819 8.286C50.9046 8.286 51.3759 8.40733 51.7959 8.65C52.2252 8.89267 52.5659 9.22867 52.8179 9.658C53.0699 10.0873 53.1959 10.5727 53.1959 11.114V16H51.8799V11.534C51.8799 11.114 51.8052 10.7593 51.6559 10.47C51.5066 10.1807 51.3012 9.95667 51.0399 9.798C50.7879 9.63 50.4892 9.546 50.1439 9.546C49.8079 9.546 49.5046 9.63 49.2339 9.798C48.9726 9.95667 48.7626 10.1853 48.6039 10.484C48.4546 10.7733 48.3799 11.1233 48.3799 11.534V16H47.0639V11.534C47.0639 11.114 46.9892 10.7593 46.8399 10.47C46.6906 10.1807 46.4852 9.95667 46.2239 9.798C45.9719 9.63 45.6732 9.546 45.3279 9.546C44.9919 9.546 44.6886 9.63 44.4179 9.798C44.1566 9.95667 43.9466 10.1853 43.7879 10.484C43.6386 10.7733 43.5639 11.1233 43.5639 11.534V16H42.2619ZM58.6291 16.168C57.9011 16.168 57.2431 16 56.6551 15.664C56.0671 15.3187 55.6004 14.8473 55.2551 14.25C54.9098 13.6527 54.7371 12.976 54.7371 12.22C54.7371 11.464 54.9051 10.792 55.2411 10.204C55.5864 9.616 56.0531 9.14933 56.6411 8.804C57.2291 8.45867 57.8918 8.286 58.6291 8.286C59.3571 8.286 60.0151 8.45867 60.6031 8.804C61.1911 9.14 61.6531 9.602 61.9891 10.19C62.3344 10.778 62.5071 11.4547 62.5071 12.22C62.5071 12.9853 62.3298 13.6667 61.9751 14.264C61.6204 14.852 61.1491 15.3187 60.5611 15.664C59.9824 16 59.3384 16.168 58.6291 16.168ZM58.6291 14.908C59.0958 14.908 59.5158 14.7913 59.8891 14.558C60.2718 14.3247 60.5704 14.0027 60.7851 13.592C61.0091 13.1813 61.1211 12.724 61.1211 12.22C61.1211 11.7067 61.0091 11.254 60.7851 10.862C60.5704 10.4607 60.2718 10.1433 59.8891 9.91C59.5158 9.66733 59.0958 9.546 58.6291 9.546C58.1531 9.546 57.7238 9.66733 57.3411 9.91C56.9678 10.1433 56.6691 10.4607 56.4451 10.862C56.2211 11.254 56.1091 11.7067 56.1091 12.22C56.1091 12.724 56.2211 13.1813 56.4451 13.592C56.6691 14.0027 56.9678 14.3247 57.3411 14.558C57.7238 14.7913 58.1531 14.908 58.6291 14.908ZM66.1685 16L63.2145 8.454H64.6705L67.0365 14.838H66.5325L68.9125 8.454H70.3685L67.4005 16H66.1685ZM74.8687 16.168C74.1407 16.168 73.492 15.9953 72.9227 15.65C72.3533 15.3047 71.9053 14.8333 71.5787 14.236C71.252 13.6293 71.0887 12.9527 71.0887 12.206C71.0887 11.45 71.2473 10.778 71.5647 10.19C71.8913 9.602 72.33 9.14 72.8807 8.804C73.4407 8.45867 74.066 8.286 74.7567 8.286C75.3167 8.286 75.8113 8.38867 76.2407 8.594C76.6793 8.79 77.048 9.06067 77.3467 9.406C77.6547 9.742 77.888 10.1293 78.0467 10.568C78.2147 10.9973 78.2987 11.4453 78.2987 11.912C78.2987 12.0147 78.2893 12.1313 78.2707 12.262C78.2613 12.3833 78.2473 12.5 78.2287 12.612H72.0407V11.492H77.4727L76.8567 11.996C76.9407 11.5107 76.894 11.0767 76.7167 10.694C76.5393 10.3113 76.278 10.008 75.9327 9.784C75.5873 9.56 75.1953 9.448 74.7567 9.448C74.318 9.448 73.9167 9.56 73.5527 9.784C73.1887 10.008 72.904 10.33 72.6987 10.75C72.5027 11.1607 72.4233 11.6507 72.4607 12.22C72.4233 12.7707 72.5073 13.256 72.7127 13.676C72.9273 14.0867 73.226 14.4087 73.6087 14.642C74.0007 14.866 74.4253 14.978 74.8827 14.978C75.3867 14.978 75.8113 14.8613 76.1567 14.628C76.502 14.3947 76.782 14.096 76.9967 13.732L78.0887 14.292C77.9393 14.6373 77.706 14.9547 77.3887 15.244C77.0807 15.524 76.712 15.748 76.2827 15.916C75.8627 16.084 75.3913 16.168 74.8687 16.168Z" fill="#F04438"/>
</svg>
