<svg width="16" height="14" viewBox="0 0 16 14" fill="none" xmlns="http://www.w3.org/2000/svg">
<path d="M7.99967 13.0307C7.79301 13.0307 7.59301 13.0041 7.42634 12.9441C4.87967 12.0707 0.833008 8.97073 0.833008 4.39073C0.833008 2.0574 2.71967 0.164062 5.03967 0.164062C6.16634 0.164062 7.21967 0.604063 7.99967 1.39073C8.77967 0.604063 9.83301 0.164062 10.9597 0.164062C13.2797 0.164062 15.1663 2.06406 15.1663 4.39073C15.1663 8.9774 11.1197 12.0707 8.57301 12.9441C8.40634 13.0041 8.20634 13.0307 7.99967 13.0307ZM5.03967 1.16406C3.27301 1.16406 1.83301 2.61073 1.83301 4.39073C1.83301 8.94406 6.21301 11.4774 7.75301 12.0041C7.87301 12.0441 8.13301 12.0441 8.25301 12.0041C9.78634 11.4774 14.173 8.95073 14.173 4.39073C14.173 2.61073 12.733 1.16406 10.9663 1.16406C9.95301 1.16406 9.01301 1.6374 8.40634 2.4574C8.21967 2.71073 7.79301 2.71073 7.60634 2.4574C6.98634 1.63073 6.05301 1.16406 5.03967 1.16406Z" fill="#1B1B1B"/>
</svg>
