<svg width="400" height="300" viewBox="0 0 400 300" fill="none" xmlns="http://www.w3.org/2000/svg">
<g clip-path="url(#clip0_1542_11784)">
<path d="M196.297 284.065C243.147 284.065 281.126 246.086 281.126 199.237C281.126 152.387 243.147 114.408 196.297 114.408C149.448 114.408 111.469 152.387 111.469 199.237C111.469 246.086 149.448 284.065 196.297 284.065Z" fill="#FCFBD9"/>
<path d="M226.923 101.538L159.06 140.719L91.1975 101.538L159.06 62.3574L226.923 101.538Z" fill="white" stroke="#081F2D" stroke-width="2.036" stroke-linejoin="round"/>
<path d="M159.06 62.3574V140.719" stroke="#081F2D" stroke-width="2.036" stroke-linejoin="round"/>
<path d="M184.061 94.4173C187.171 96.0453 196.799 101.255 201.161 110.993C201.89 112.621 203.582 116.5 202.053 118.151C200.176 120.177 194.452 117.817 192.241 116.73C185.135 113.238 164.548 98.9803 137.596 78.4678C148.068 80.7138 166.985 85.4788 184.061 94.4173Z" fill="#081F2D" stroke="#081F2D" stroke-width="2.036" stroke-linecap="round" stroke-linejoin="round"/>
<path d="M185.783 16.0998C183.512 15.4668 181.206 16.7728 179.293 18.1498C178.856 17.0758 177.489 16.6943 177.051 16.5713C171.851 15.1183 163.797 21.9513 158.451 28.6338C158.539 28.2493 158.474 27.8455 158.271 27.5078C157.832 26.8508 156.874 26.7818 156.521 26.7578C153.595 26.5473 148.887 29.9303 144.589 36.4278C136.312 48.9388 136.122 63.0388 136.207 67.0948C136.221 67.7638 137.094 74.5643 138.839 88.1383C140.483 100.932 140.62 101.86 140.701 103.934C140.927 109.734 140.475 118.295 136.956 128.993L174.05 136.174C175.092 127.36 177.593 118.782 181.45 110.789C187.369 98.6143 192.53 96.1993 199.915 81.1023C202.76 75.2848 210.708 59.0373 205.609 54.3923C204.109 53.0278 202.009 53.1383 201.397 53.1703C195.079 53.5013 189.156 62.5268 186.415 75.5203C186.773 67.6577 188.052 59.8643 190.224 52.2993C194.45 37.7358 195.435 34.5818 195.435 34.5818C197.954 26.5353 199.656 21.7533 197.211 18.8728C196.605 18.1819 195.845 17.6425 194.993 17.2978C194.141 16.9531 193.22 16.8127 192.304 16.8878C190.965 17.0318 189.777 17.7488 188.55 19.2538C188.574 18.5898 188.367 17.9381 187.963 17.4103C187.373 16.7785 186.618 16.3246 185.783 16.0998Z" fill="url(#paint0_linear_1542_11784)"/>
<path d="M174.711 53.3951C176.385 47.6911 178.458 41.5351 181.04 35.0521C183.757 28.2286 186.637 22.0521 189.49 16.5361" stroke="#081F2D" stroke-width="2.036" stroke-miterlimit="10"/>
<path d="M160.364 50.9232C162.397 37.3141 169.639 25.0276 180.561 16.6572" stroke="#081F2D" stroke-width="2.036" stroke-miterlimit="10"/>
<path d="M148.324 52.2322C149.769 43.1452 153.473 34.5663 159.094 27.2822" stroke="#081F2D" stroke-width="2.036" stroke-miterlimit="10"/>
<path d="M186.331 78.6685C186.17 76.2153 186.537 73.756 187.408 71.457" stroke="#081F2D" stroke-width="2.036" stroke-miterlimit="10"/>
<path d="M95.897 241.276L156.619 274.232C161.269 258.918 195.533 137.044 197.969 130.103C199.444 125.898 200.93 121.727 202.428 117.591C202.413 117.619 202.367 117.704 202.312 117.791C202.273 117.863 202.229 117.933 202.179 117.998C202.141 118.053 202.098 118.105 202.05 118.152C200.18 120.176 194.456 117.82 192.243 116.732C185.138 113.242 164.552 98.9876 137.597 78.4736C133.818 95.5951 99.6765 224.15 95.897 241.276Z" fill="#DAA080"/>
<path d="M198.378 128.937C192.059 129.568 185.712 128.035 180.378 124.587L134.031 94.6309" stroke="#081F2D" stroke-width="2.036" stroke-miterlimit="10"/>
<path d="M201.163 110.993C201.892 112.621 203.584 116.5 202.054 118.151C200.177 120.177 194.454 117.817 192.243 116.73C185.137 113.238 164.55 98.9803 137.598 78.4678" stroke="#081F2D" stroke-width="2.036" stroke-linecap="round" stroke-linejoin="round"/>
<path d="M226.923 179.899L159.06 219.08V140.719L226.923 101.538V179.899Z" fill="#DAA080"/>
<path d="M159.06 219.08L91.1975 179.899V101.538L159.06 140.719V219.08Z" fill="#DAA080"/>
<path d="M226.923 101.538L159.06 140.719L176.026 170.104L243.889 130.924L226.923 101.538Z" fill="white" stroke="#081F2D" stroke-width="2.036" stroke-linejoin="round"/>
<path d="M226.923 179.9L159.06 219.08L176.026 248.466L243.889 209.285L226.923 179.9Z" fill="white" stroke="#081F2D" stroke-width="2.036" stroke-linejoin="round"/>
<path d="M91.1969 101.538L74.2311 130.924L142.094 170.104L159.059 140.719L91.1969 101.538Z" fill="white" stroke="#081F2D" stroke-width="2.036" stroke-linejoin="round"/>
<path d="M91.1974 179.9L74.2317 209.285L142.094 248.466L159.06 219.08L91.1974 179.9Z" fill="white" stroke="#081F2D" stroke-width="2.036" stroke-linejoin="round"/>
<path d="M95.897 171.415L108.837 178.886" stroke="#081F2D" stroke-width="2.036" stroke-linejoin="round"/>
<path d="M95.897 175.826L108.837 183.298" stroke="#081F2D" stroke-width="2.036" stroke-linejoin="round"/>
<path d="M159.06 140.719V219.08" stroke="#081F2D" stroke-width="2.036" stroke-linejoin="round"/>
<path d="M291.837 103.707C310.577 103.707 325.769 88.5151 325.769 69.7753C325.769 51.0354 310.577 35.8438 291.837 35.8438C273.097 35.8438 257.906 51.0354 257.906 69.7753C257.906 88.5151 273.097 103.707 291.837 103.707Z" fill="#1BB5C8"/>
<path d="M297.895 65.3068C299.301 65.3068 300.44 64.1674 300.44 62.7618C300.44 61.3562 299.301 60.2168 297.895 60.2168C296.49 60.2168 295.35 61.3562 295.35 62.7618C295.35 64.1674 296.49 65.3068 297.895 65.3068Z" fill="#081F2D"/>
<path d="M284.929 80.3C287.137 78.0904 289.912 76.5332 292.948 75.8001C295.984 75.0669 299.164 75.1863 302.136 76.145" stroke="#081F2D" stroke-width="3.393" stroke-miterlimit="10"/>
<path d="M282.386 65.3068C283.791 65.3068 284.931 64.1674 284.931 62.7618C284.931 61.3562 283.791 60.2168 282.386 60.2168C280.98 60.2168 279.841 61.3562 279.841 62.7618C279.841 64.1674 280.98 65.3068 282.386 65.3068Z" fill="#081F2D"/>
</g>
<defs>
<linearGradient id="paint0_linear_1542_11784" x1="230.307" y1="183.361" x2="152.21" y2="48.0928" gradientUnits="userSpaceOnUse">
<stop stop-color="#FF5607"/>
<stop offset="1" stop-color="#FFA700"/>
</linearGradient>
<clipPath id="clip0_1542_11784">
<rect width="400" height="300" fill="white"/>
</clipPath>
</defs>
</svg>
