<svg width="400" height="300" viewBox="0 0 400 300" fill="none" xmlns="http://www.w3.org/2000/svg">
<path d="M233.019 259.008C279.868 259.008 317.847 221.029 317.847 174.179C317.847 127.33 279.868 89.3506 233.019 89.3506C186.169 89.3506 148.19 127.33 148.19 174.179C148.19 221.029 186.169 259.008 233.019 259.008Z" fill="#FCFBD9"/>
<path d="M256.616 216.483C256.358 219.983 255.705 230.912 261.675 239.756C262.675 241.235 265.075 244.718 267.285 244.29C269.997 243.765 271.012 237.656 271.255 235.206C272.037 227.327 270.788 202.317 267.582 168.599C263.965 178.678 258.033 197.262 256.616 216.483Z" fill="#081F2D" stroke="#081F2D" stroke-width="2.036" stroke-linecap="round" stroke-linejoin="round"/>
<path d="M271.777 225.565C260.549 224.306 249.213 224.368 238 225.75C226.98 227.133 217.2 229.731 203.938 226.619C191.818 223.782 190.692 219.438 190.515 218.56C190.045 216.228 191.339 214.171 191.942 213.205C192.575 212.21 193.355 211.317 194.256 210.555C189.106 210.599 184.45 209.411 182.323 206.53C180.987 204.65 180.368 202.354 180.576 200.058C180.957 196.086 183.892 193.621 184.69 192.983C181.49 191.866 179.007 190.199 177.952 187.991C177.427 186.853 177.227 185.592 177.376 184.348C178.218 178.204 188.156 175.561 188.981 175.358C184.326 172.955 180.798 169.205 180.39 164.967C180.115 162.156 181.259 159.567 182.722 157.484C182.234 156.056 182.194 154.512 182.606 153.06C185.381 144.815 204.47 143.245 215.384 143.822C220.384 144.088 234.871 145.027 249.287 154.257C258.445 160.117 259.537 164.178 269.437 169.666L271.777 225.565Z" fill="url(#paint0_linear_1470_2990)"/>
<path d="M248.779 196.982C244.929 195.583 241.39 193.445 238.361 190.688C233.958 186.626 230.784 181.409 229.2 175.632" stroke="#081F2D" stroke-width="2.036" stroke-miterlimit="10"/>
<path d="M317.85 174.18L313.16 255.039C297.698 250.909 286.776 248.719 279.594 247.126C275.244 246.159 270.917 245.222 266.613 244.313C266.645 244.313 266.74 244.32 266.841 244.318C266.924 244.323 267.006 244.322 267.088 244.314C267.155 244.311 267.222 244.302 267.288 244.286C269.993 243.765 271.012 237.66 271.255 235.205C272.039 227.329 270.792 202.32 267.586 168.6L317.85 174.18Z" fill="#DAA080"/>
<path d="M278.388 246.859C282.258 241.823 284.303 235.622 284.188 229.272L283.125 170.322" stroke="#081F2D" stroke-width="2.036" stroke-miterlimit="10"/>
<path d="M261.676 239.756C262.676 241.235 265.076 244.718 267.285 244.29C269.997 243.765 271.012 237.656 271.255 235.206C272.037 227.327 270.788 202.317 267.582 168.599" stroke="#081F2D" stroke-width="2.036" stroke-linecap="round" stroke-linejoin="round"/>
<path d="M214.478 69.6497C205.497 63.0552 193.986 60.7497 182.769 62.7997L182.288 62.8822C171.233 64.7737 161.333 70.7322 155.15 79.8032C146.393 92.6532 146.282 109.986 153.96 122.794C161.257 134.989 175.189 142.371 190.368 142.594C192.376 156.469 197.61 194.156 198.312 198.398C198.443 199.186 198.732 199.94 199.163 200.613C199.594 201.285 200.157 201.863 200.819 202.312C201.48 202.76 202.226 203.069 203.01 203.219C203.795 203.37 204.602 203.36 205.382 203.189L205.5 203.163C207 202.834 208.311 201.933 209.156 200.652C210.001 199.371 210.312 197.81 210.023 196.303C209.33 192.684 203.425 150.609 201.877 140.676C208.021 138.472 213.63 134.994 218.336 130.471C224.187 124.905 228.215 117.699 229.893 109.8C232.876 95.1697 227.009 78.8587 214.478 69.6497ZM205.167 126.58C201.897 128.688 198.234 130.114 194.399 130.77C190.564 131.427 186.635 131.301 182.85 130.4C172.294 127.9 162.21 119.27 160.209 107.263C159.573 103.147 159.859 98.9409 161.046 94.9487C162.232 90.9565 164.29 87.2775 167.071 84.1772C171.521 79.2772 177.798 76.1627 184.871 75.0697C191.913 73.7477 198.859 74.6012 204.685 77.7422C208.34 79.7399 211.505 82.5249 213.952 85.8957C216.398 89.2664 218.065 93.1388 218.832 97.2327C220.942 109.219 214.3 120.709 205.167 126.58Z" fill="#DAA080"/>
<path d="M205.167 126.58C201.897 128.689 198.234 130.114 194.399 130.771C190.564 131.427 186.635 131.301 182.85 130.4C172.294 127.9 162.21 119.271 160.21 107.263C159.573 103.147 159.859 98.9413 161.046 94.9491C162.232 90.9568 164.29 87.2779 167.072 84.1776C171.522 79.2776 177.798 76.1631 184.872 75.0701C191.913 73.7481 198.859 74.6016 204.685 77.7426C208.34 79.7403 211.505 82.5253 213.952 85.896C216.398 89.2668 218.065 93.1392 218.832 97.2331C220.942 109.22 214.3 120.709 205.167 126.58Z" fill="white" stroke="#081F2D" stroke-width="2.036" stroke-linecap="round" stroke-linejoin="round"/>
<path d="M209.361 222.246C211.566 221.156 217.755 218.1 217.879 213.296C217.884 211.809 217.391 210.364 216.479 209.19C212.033 203.708 196.857 205.405 191.943 213.214C191.436 214.02 190.014 216.135 190.514 218.564C191.174 221.768 194.703 223.337 195.64 223.753C201.256 226.25 207.177 223.324 209.361 222.246Z" fill="url(#paint1_linear_1470_2990)"/>
<path d="M209.173 191.717C210.206 191.963 211.174 192.428 212.011 193.082C214.652 195.194 215.575 199.196 215.064 201.442C213.22 209.55 188.198 214.472 182.317 206.529C180.99 204.645 180.37 202.353 180.567 200.057C180.949 196.235 183.788 193.769 184.687 192.988C191.536 187.04 202.107 189.843 209.173 191.717Z" fill="url(#paint2_linear_1470_2990)"/>
<path d="M207.165 176.736C209.605 177.865 212.841 179.419 213.731 182.586C214.473 185.22 213.225 187.672 212.989 188.112C208.218 197.03 182.087 196.657 177.945 187.996C177.411 186.86 177.212 185.595 177.371 184.35C178.171 178.667 187.007 175.962 188.98 175.359C189.682 175.142 198.313 172.639 207.165 176.736Z" fill="url(#paint3_linear_1470_2990)"/>
<path d="M193.896 158.645C195.058 158.312 202.012 156.437 207.812 160.578C208.457 161.038 214.468 165.449 213.394 170.571C212.421 175.218 206.318 177.096 205.333 177.399C195.497 180.426 181.236 173.755 180.387 164.968C180.306 164.102 180.35 163.228 180.519 162.375C180.776 161.129 181.231 159.932 181.865 158.83" fill="url(#paint4_linear_1470_2990)"/>
<path d="M209.367 222.244C214.474 220.381 217.817 216.913 217.885 213.294C217.891 211.807 217.398 210.361 216.485 209.187C215.268 207.687 213.249 206.725 210.856 206.278" stroke="#081F2D" stroke-width="2.036" stroke-miterlimit="10"/>
<path d="M209.179 191.715C210.212 191.962 211.179 192.428 212.017 193.08C214.756 195.244 215.567 199.262 215.071 201.44C213.757 207.216 200.678 211.376 191.138 210.418" stroke="#081F2D" stroke-width="2.036" stroke-miterlimit="10"/>
<path d="M207.172 176.735C207.892 176.962 212.632 178.535 213.738 182.585C214.176 184.456 213.912 186.422 212.996 188.111C208.996 195.583 190.004 196.533 181.514 191.549" stroke="#081F2D" stroke-width="2.036" stroke-miterlimit="10"/>
<path d="M210.369 162.815C212.137 164.677 214.046 167.495 213.401 170.57C212.427 175.217 206.325 177.095 205.339 177.398C199.021 179.342 190.877 177.285 185.635 173.236" stroke="#081F2D" stroke-width="2.036" stroke-miterlimit="10"/>
<path d="M232.209 170.14C229.321 167.525 224.654 164.09 218.314 162.871C212.264 161.706 210.264 163.629 200.195 163.283C193.179 163.042 185.237 162.676 182.952 158.056C182.246 156.485 182.122 154.713 182.605 153.059C185.377 144.815 204.464 143.245 215.376 143.825C220.38 144.091 234.865 145.033 249.277 154.256C258.442 160.121 259.527 164.182 269.427 169.666" fill="url(#paint5_linear_1470_2990)"/>
<path d="M232.215 170.139C229.328 167.524 224.66 164.089 218.32 162.87C212.27 161.704 210.27 163.628 200.201 163.282C193.184 163.04 185.243 162.675 182.958 158.054C182.252 156.483 182.129 154.711 182.611 153.058" stroke="#081F2D" stroke-width="2.036" stroke-miterlimit="10"/>
<path d="M143.189 143.246L129.816 146.83L135.261 167.15L128.05 169.082L122.605 148.762L83.2765 159.3L82.1525 155.105L90.867 87.9942L98.7335 85.8867L89.85 150.794L120.92 142.469L113.81 111.213L119.84 109.597L128.13 140.537L141.502 136.954L143.189 143.246Z" fill="#F1E302"/>
<path d="M310.736 98.3522L297.363 101.935L302.809 122.256L295.6 124.187L290.155 103.867L250.826 114.406L249.702 110.211L258.414 43.0997L266.28 40.9922L257.397 105.9L288.467 97.5742L281.357 66.3187L287.388 64.7032L295.677 95.6422L309.049 92.0592L310.736 98.3522Z" fill="#F1E302"/>
<defs>
<linearGradient id="paint0_linear_1470_2990" x1="375.098" y1="185.9" x2="177.945" y2="185.9" gradientUnits="userSpaceOnUse">
<stop stop-color="#FF5607"/>
<stop offset="1" stop-color="#FFA700"/>
</linearGradient>
<linearGradient id="paint1_linear_1470_2990" x1="252.155" y1="215.36" x2="196.724" y2="215.36" gradientUnits="userSpaceOnUse">
<stop stop-color="#FF5607"/>
<stop offset="1" stop-color="#FFA700"/>
</linearGradient>
<linearGradient id="paint2_linear_1470_2990" x1="247.943" y1="199.975" x2="193.857" y2="199.975" gradientUnits="userSpaceOnUse">
<stop stop-color="#FF5607"/>
<stop offset="1" stop-color="#FFA700"/>
</linearGradient>
<linearGradient id="paint3_linear_1470_2990" x1="245.072" y1="184.525" x2="190.759" y2="184.525" gradientUnits="userSpaceOnUse">
<stop stop-color="#FF5607"/>
<stop offset="1" stop-color="#FFA700"/>
</linearGradient>
<linearGradient id="paint4_linear_1470_2990" x1="247.285" y1="168.037" x2="186.064" y2="168.037" gradientUnits="userSpaceOnUse">
<stop stop-color="#FF5607"/>
<stop offset="1" stop-color="#FFA700"/>
</linearGradient>
<linearGradient id="paint5_linear_1470_2990" x1="331.559" y1="156.929" x2="203.438" y2="156.929" gradientUnits="userSpaceOnUse">
<stop stop-color="#FF5607"/>
<stop offset="1" stop-color="#FFA700"/>
</linearGradient>
</defs>
</svg>
