<svg width="234" height="203" viewBox="0 0 234 203" fill="none" xmlns="http://www.w3.org/2000/svg">
<mask id="mask0_410_26152" style="mask-type:alpha" maskUnits="userSpaceOnUse" x="0" y="0" width="234" height="203">
<path d="M0 8C0 3.58172 3.58172 0 8 0H233.509V203H0V8Z" fill="#F2E4D5"/>
</mask>
<g mask="url(#mask0_410_26152)">
<path d="M0 8C0 3.58172 3.58172 0 8 0H233.509V203H0V8Z" fill="#AD6B46"/>
<path d="M-94.4262 47.7969C-106.774 34.2154 -117.7 22.3826 -122.593 4.37592C-134.301 -38.7067 -108.695 -52.2453 -67.6635 -54.5187C-35.3523 -56.309 -39.2081 -45.9142 -20.9938 -26.5714C12.2313 8.71231 49.7333 -10.3415 74.741 45.4285C97.5325 96.2562 147.435 68.5173 157.064 104.842C170.683 156.219 71.6909 132.856 49.0612 193.569C32.389 238.298 82.8593 307.235 25.3455 310.533C-17.8922 313.013 -67.341 254.487 -84.0185 221.797C-99.5985 191.258 -86.3711 151.123 -70.9675 123.27C-56.915 97.8606 -77.4884 66.4266 -94.4262 47.7969Z" stroke="white" stroke-linecap="round" stroke-linejoin="round"/>
<path d="M169.778 -7.18463C179.727 7.44179 172.361 24.0343 172.713 39.9864C173.51 76.1311 205.245 85.338 223.407 110.88C241.946 136.954 198.378 158.976 169.145 175.075C103.798 211.062 -10.4769 173.007 -7.79451 101.051C-6.98857 79.431 13.4734 67.8114 10.3885 48.4431C5.93115 20.4572 -43.2556 -1.54448 -26.553 -34.0375C7.4687 -100.223 52.1726 -15.3829 84.2716 -2.51694C112.208 8.68051 145.884 -42.314 169.778 -7.18463Z" stroke="white" stroke-linecap="round" stroke-linejoin="round"/>
<path d="M22.62 117.4C21.8867 117.4 21.2067 117.287 20.58 117.06C19.9667 116.833 19.4333 116.52 18.98 116.12C18.54 115.733 18.2 115.28 17.96 114.76L19.34 114.02C19.5533 114.527 19.9333 114.967 20.48 115.34C21.0267 115.713 21.7267 115.9 22.58 115.9C23.2333 115.9 23.8333 115.773 24.38 115.52C24.9267 115.267 25.3667 114.893 25.7 114.4C26.0333 113.907 26.2 113.3 26.2 112.58V110.2L26.44 110.42C26.0667 111.193 25.5133 111.793 24.78 112.22C24.0467 112.633 23.2467 112.84 22.38 112.84C21.38 112.84 20.48 112.6 19.68 112.12C18.88 111.64 18.2467 110.993 17.78 110.18C17.3267 109.353 17.1 108.44 17.1 107.44C17.1 106.427 17.3267 105.513 17.78 104.7C18.2467 103.887 18.8733 103.24 19.66 102.76C20.46 102.28 21.3667 102.04 22.38 102.04C23.2467 102.04 24.0333 102.24 24.74 102.64C25.46 103.04 26.0267 103.58 26.44 104.26L26.2 104.68V102.28H27.7V112.58C27.7 113.5 27.48 114.32 27.04 115.04C26.6133 115.773 26.0133 116.347 25.24 116.76C24.48 117.187 23.6067 117.4 22.62 117.4ZM22.46 111.34C23.1533 111.34 23.78 111.167 24.34 110.82C24.9 110.46 25.3467 109.987 25.68 109.4C26.0267 108.8 26.2 108.147 26.2 107.44C26.2 106.733 26.0267 106.087 25.68 105.5C25.3467 104.9 24.9 104.427 24.34 104.08C23.78 103.72 23.1533 103.54 22.46 103.54C21.7533 103.54 21.1133 103.72 20.54 104.08C19.9667 104.427 19.5133 104.893 19.18 105.48C18.86 106.067 18.7 106.72 18.7 107.44C18.7 108.147 18.86 108.8 19.18 109.4C19.5133 109.987 19.96 110.46 20.52 110.82C21.0933 111.167 21.74 111.34 22.46 111.34ZM30.7822 113V102.28H32.2822V113H30.7822ZM30.7822 100.3V98.1H32.2822V100.3H30.7822ZM36.4525 113V103.78H34.3125V102.28H36.4525V101.32C36.4525 100.573 36.6192 99.9467 36.9525 99.44C37.2858 98.92 37.7258 98.5267 38.2725 98.26C38.8192 97.9933 39.4058 97.86 40.0325 97.86C40.1658 97.86 40.3192 97.8733 40.4925 97.9C40.6658 97.9133 40.8058 97.9333 40.9125 97.96V99.32C40.8192 99.2933 40.6925 99.28 40.5325 99.28C40.3725 99.2667 40.2592 99.26 40.1925 99.26C39.5525 99.26 39.0192 99.4133 38.5925 99.72C38.1658 100.027 37.9525 100.56 37.9525 101.32V102.28H40.5725V103.78H37.9525V113H36.4525ZM47.4994 113.12C46.5394 113.12 45.7994 112.84 45.2794 112.28C44.7594 111.72 44.4994 110.92 44.4994 109.88V103.78H42.5194V102.28H43.0194C43.4727 102.28 43.8327 102.133 44.0994 101.84C44.366 101.533 44.4994 101.153 44.4994 100.7V99.8H45.9994V102.28H48.3594V103.78H45.9994V109.88C45.9994 110.24 46.0527 110.56 46.1594 110.84C46.266 111.107 46.446 111.32 46.6994 111.48C46.966 111.64 47.3194 111.72 47.7594 111.72C47.866 111.72 47.9927 111.713 48.1394 111.7C48.286 111.687 48.4127 111.673 48.5194 111.66V113C48.3594 113.04 48.1794 113.067 47.9794 113.08C47.7794 113.107 47.6194 113.12 47.4994 113.12ZM54.8733 113.24C53.8466 113.24 52.9466 112.98 52.1733 112.46C51.3999 111.94 50.8399 111.233 50.4933 110.34L51.7533 109.74C52.0599 110.393 52.4866 110.913 53.0333 111.3C53.5933 111.687 54.2066 111.88 54.8733 111.88C55.5133 111.88 56.0533 111.727 56.4933 111.42C56.9333 111.1 57.1533 110.687 57.1533 110.18C57.1533 109.807 57.0466 109.513 56.8333 109.3C56.6199 109.073 56.3733 108.9 56.0933 108.78C55.8133 108.66 55.5666 108.573 55.3533 108.52L53.8133 108.08C52.8266 107.8 52.1133 107.407 51.6733 106.9C51.2333 106.393 51.0133 105.807 51.0133 105.14C51.0133 104.513 51.1733 103.967 51.4933 103.5C51.8133 103.033 52.2466 102.673 52.7933 102.42C53.3399 102.167 53.9466 102.04 54.6133 102.04C55.5199 102.04 56.3399 102.28 57.0733 102.76C57.8199 103.227 58.3466 103.88 58.6533 104.72L57.3733 105.32C57.1066 104.72 56.7199 104.253 56.2133 103.92C55.7199 103.573 55.1666 103.4 54.5533 103.4C53.9533 103.4 53.4733 103.553 53.1133 103.86C52.7533 104.167 52.5733 104.553 52.5733 105.02C52.5733 105.38 52.6666 105.667 52.8533 105.88C53.0399 106.093 53.2533 106.253 53.4933 106.36C53.7466 106.467 53.9666 106.547 54.1533 106.6L55.9333 107.12C56.7999 107.373 57.4733 107.767 57.9533 108.3C58.4466 108.833 58.6933 109.46 58.6933 110.18C58.6933 110.767 58.5266 111.293 58.1933 111.76C57.8733 112.227 57.4266 112.593 56.8533 112.86C56.2799 113.113 55.6199 113.24 54.8733 113.24ZM65.8275 113V103.78H63.6875V102.28H65.8275V101.32C65.8275 100.573 65.9942 99.9467 66.3275 99.44C66.6608 98.92 67.1008 98.5267 67.6475 98.26C68.1942 97.9933 68.7808 97.86 69.4075 97.86C69.5408 97.86 69.6942 97.8733 69.8675 97.9C70.0408 97.9133 70.1808 97.9333 70.2875 97.96V99.32C70.1942 99.2933 70.0675 99.28 69.9075 99.28C69.7475 99.2667 69.6342 99.26 69.5675 99.26C68.9275 99.26 68.3942 99.4133 67.9675 99.72C67.5408 100.027 67.3275 100.56 67.3275 101.32V102.28H69.9475V103.78H67.3275V113H65.8275ZM76.9936 113.24C75.9803 113.24 75.0603 113 74.2336 112.52C73.4069 112.027 72.7469 111.36 72.2536 110.52C71.7736 109.667 71.5336 108.7 71.5336 107.62C71.5336 106.553 71.7736 105.6 72.2536 104.76C72.7336 103.92 73.3803 103.26 74.1936 102.78C75.0203 102.287 75.9536 102.04 76.9936 102.04C78.0336 102.04 78.9603 102.28 79.7736 102.76C80.6003 103.24 81.2469 103.9 81.7136 104.74C82.1936 105.58 82.4336 106.54 82.4336 107.62C82.4336 108.713 82.1869 109.687 81.6936 110.54C81.2003 111.38 80.5403 112.04 79.7136 112.52C78.9003 113 77.9936 113.24 76.9936 113.24ZM76.9936 111.74C77.7136 111.74 78.3603 111.56 78.9336 111.2C79.5203 110.84 79.9803 110.347 80.3136 109.72C80.6603 109.093 80.8336 108.393 80.8336 107.62C80.8336 106.847 80.6603 106.153 80.3136 105.54C79.9803 104.927 79.5203 104.44 78.9336 104.08C78.3603 103.72 77.7136 103.54 76.9936 103.54C76.2736 103.54 75.6203 103.72 75.0336 104.08C74.4603 104.44 74.0003 104.927 73.6536 105.54C73.3069 106.153 73.1336 106.847 73.1336 107.62C73.1336 108.393 73.3069 109.093 73.6536 109.72C74.0003 110.347 74.4603 110.84 75.0336 111.2C75.6203 111.56 76.2736 111.74 76.9936 111.74ZM85.0791 113V102.28H86.5791V104.04L86.3791 103.78C86.6324 103.273 87.0124 102.873 87.5191 102.58C88.0391 102.287 88.6657 102.14 89.3991 102.14H90.0791V103.64H89.1391C88.3657 103.64 87.7457 103.88 87.2791 104.36C86.8124 104.84 86.5791 105.52 86.5791 106.4V113H85.0791ZM95.2353 113V97.86H96.7353V104.36L96.3953 104.28C96.662 103.587 97.0953 103.04 97.6953 102.64C98.3086 102.24 99.0153 102.04 99.8153 102.04C100.575 102.04 101.255 102.213 101.855 102.56C102.469 102.907 102.949 103.387 103.295 104C103.655 104.6 103.835 105.28 103.835 106.04V113H102.335V106.62C102.335 105.967 102.215 105.413 101.975 104.96C101.735 104.507 101.402 104.16 100.975 103.92C100.562 103.667 100.089 103.54 99.5553 103.54C99.022 103.54 98.542 103.667 98.1153 103.92C97.6886 104.16 97.3486 104.513 97.0953 104.98C96.8553 105.433 96.7353 105.98 96.7353 106.62V113H95.2353ZM106.7 113V102.28H108.2V113H106.7ZM106.7 100.3V98.1H108.2V100.3H106.7ZM111.27 113V102.28H112.77V104.32L112.53 104.02C112.824 103.393 113.257 102.907 113.83 102.56C114.417 102.213 115.057 102.04 115.75 102.04C116.577 102.04 117.324 102.273 117.99 102.74C118.657 103.207 119.13 103.813 119.41 104.56L118.99 104.58C119.257 103.753 119.717 103.127 120.37 102.7C121.037 102.26 121.77 102.04 122.57 102.04C123.29 102.04 123.95 102.213 124.55 102.56C125.164 102.907 125.65 103.387 126.01 104C126.384 104.6 126.57 105.28 126.57 106.04V113H125.07V106.62C125.07 105.967 124.95 105.413 124.71 104.96C124.484 104.507 124.17 104.16 123.77 103.92C123.37 103.667 122.91 103.54 122.39 103.54C121.884 103.54 121.424 103.667 121.01 103.92C120.597 104.16 120.27 104.513 120.03 104.98C119.79 105.433 119.67 105.98 119.67 106.62V113H118.17V106.62C118.17 105.967 118.05 105.413 117.81 104.96C117.584 104.507 117.27 104.16 116.87 103.92C116.47 103.667 116.01 103.54 115.49 103.54C114.97 103.54 114.504 103.667 114.09 103.92C113.69 104.16 113.37 104.513 113.13 104.98C112.89 105.433 112.77 105.98 112.77 106.62V113H111.27Z" fill="white"/>
</g>
</svg>
