<svg width="10" height="15" viewBox="0 0 10 15" fill="none" xmlns="http://www.w3.org/2000/svg">
<path d="M4.99957 14.9305C3.99768 14.9304 3.01891 14.6293 2.19018 14.0663C1.36145 13.5033 0.720975 12.7043 0.351805 11.7729C-0.0173651 10.8415 -0.0982065 9.82062 0.119763 8.84272C0.337732 7.86482 0.844458 6.97495 1.57424 6.2885C2.46891 5.4465 4.66624 3.9305 4.33291 0.597168C8.33291 3.26383 10.3329 5.9305 6.33291 9.9305C6.99957 9.9305 7.99957 9.9305 9.66624 8.28383C9.84624 8.79917 9.99957 9.35317 9.99957 9.9305C9.99957 11.2566 9.47279 12.5284 8.53511 13.466C7.59743 14.4037 6.32566 14.9305 4.99957 14.9305Z" fill="#FB941B"/>
</svg>
