<svg width="800" height="600" viewBox="0 0 800 600" fill="none" xmlns="http://www.w3.org/2000/svg">
<g clip-path="url(#clip0_3_50520)">
<path d="M398.415 499.496C492.114 499.496 568.072 423.538 568.072 329.839C568.072 236.14 492.114 160.182 398.415 160.182C304.716 160.182 228.758 236.14 228.758 329.839C228.758 423.538 304.716 499.496 398.415 499.496Z" fill="#FCFBD9"/>
<path d="M591.247 375.863C596.168 375.965 600.926 377.648 604.817 380.663C609.655 384.54 612.372 389.908 612.017 394.783C611.342 404.136 599.229 413.6 584.99 409.938L457.338 371.138L591.247 375.863Z" fill="#081F2D" stroke="#081F2D" stroke-width="2.036" stroke-linecap="round" stroke-linejoin="round"/>
<path d="M735.726 318.216C729.998 338.022 647.457 362.492 647.457 362.492C596.141 377.724 575.257 379.798 559.88 380.348C550.5 380.685 542.166 380.472 535.251 380.064C532.333 384.104 529.64 388.301 527.183 392.636C523.991 398.262 521.194 404.104 518.813 410.119L448.649 392.636C454.191 376.275 461.807 360.692 471.31 346.267C483.492 327.867 494.964 310.502 515.586 303.055C524.505 299.957 534.008 298.915 543.386 300.005C556.647 301.269 570.008 301.02 583.212 299.261C587.514 298.718 591.778 297.907 595.979 296.831H596C603.092 295.005 610.1 292.416 627.775 288.001C670.509 277.308 685.403 278.851 695.794 286.387C697.496 287.615 699.076 289.004 700.511 290.536L699.766 290.59C706.308 290.276 712.862 290.884 719.235 292.398C726.63 294.349 727.711 297.115 727.977 298.161C728.777 301.406 725.707 304.704 724.643 305.768L723.843 305.803C730.013 306.229 733.737 307.718 735.404 310.697C737.056 313.588 736.063 317.028 735.726 318.216Z" fill="url(#paint0_linear_3_50520)"/>
<path d="M638.1 322.109C667.894 310.272 699.773 304.58 731.823 305.374" stroke="#081F2D" stroke-width="2.036" stroke-miterlimit="10"/>
<path d="M621.31 310.057C648.151 298.895 676.525 291.855 705.47 289.175" stroke="#081F2D" stroke-width="2.036" stroke-miterlimit="10"/>
<path d="M448.66 392.631C454.194 376.267 461.81 360.682 471.319 346.26C483.492 327.852 494.963 310.505 515.582 303.05C530.241 297.75 543.498 299.856 552.198 301.13C574.945 304.461 577.129 312.957 599.638 320.33C637.807 332.83 667.57 320.208 674.172 334.694C675.373 337.533 675.602 340.69 674.824 343.673C669.984 363.862 621.624 368.173 598.378 368C586.421 367.907 574.504 366.593 562.814 364.078" fill="url(#paint1_linear_3_50520)"/>
<path d="M552.2 301.13C574.947 304.461 577.131 312.957 599.64 320.33C637.809 332.83 667.572 320.208 674.174 334.694C675.375 337.533 675.604 340.69 674.826 343.673C669.986 363.862 621.626 368.173 598.38 368C586.423 367.907 574.506 366.593 562.816 364.078" stroke="#081F2D" stroke-width="2.036" stroke-miterlimit="10"/>
<path d="M441.278 463.7C438.784 439.757 441.294 415.556 448.649 392.634C451.045 385.277 453.95 378.095 457.341 371.14C523.26 392.579 572.362 406.511 584.993 409.94C590.081 411.361 595.501 411.001 600.357 408.921C606.213 406.291 609.562 401.341 611.288 398.183L574.676 518.283" fill="#DAA080"/>
<path d="M602.015 428.6C586.288 433.535 569.431 433.565 553.686 428.685L447.65 395.819" stroke="#081F2D" stroke-width="2.036" stroke-miterlimit="10"/>
<path d="M457.341 371.142L584.993 409.942C590.086 411.307 595.488 410.948 600.357 408.923C606.957 406.142 610.257 401.259 611.35 397.99C611.328 398.055 611.308 398.12 611.288 398.185" stroke="#081F2D" stroke-width="2.036" stroke-miterlimit="10"/>
<path d="M208.753 375.863C203.832 375.965 199.074 377.648 195.183 380.663C190.345 384.54 187.628 389.908 187.983 394.783C188.658 404.136 200.771 413.6 215.01 409.938L342.662 371.138L208.753 375.863Z" fill="#081F2D" stroke="#081F2D" stroke-width="2.036" stroke-linecap="round" stroke-linejoin="round"/>
<path d="M64.274 318.216C70.002 338.022 152.543 362.492 152.543 362.492C203.859 377.724 224.743 379.798 240.12 380.348C249.5 380.685 257.834 380.472 264.749 380.064C267.666 384.104 270.36 388.301 272.817 392.636C276.009 398.262 278.806 404.104 281.187 410.119L351.351 392.636C345.809 376.275 338.193 360.692 328.69 346.267C316.508 327.867 305.036 310.502 284.414 303.055C275.495 299.957 265.992 298.915 256.614 300.005C243.353 301.269 229.992 301.02 216.788 299.261C212.486 298.718 208.222 297.907 204.021 296.831H204C196.908 295.005 189.9 292.416 172.225 288.001C129.491 277.308 114.597 278.851 104.206 286.387C102.504 287.615 100.924 289.004 99.489 290.536L100.234 290.59C93.6916 290.276 87.1376 290.886 80.765 292.4C73.37 294.351 72.289 297.117 72.023 298.163C71.223 301.408 74.293 304.706 75.357 305.77L76.157 305.805C69.987 306.231 66.263 307.72 64.596 310.699C62.944 313.588 63.937 317.028 64.274 318.216Z" fill="url(#paint2_linear_3_50520)"/>
<path d="M161.9 322.109C132.106 310.272 100.227 304.58 68.177 305.374" stroke="#081F2D" stroke-width="2.036" stroke-miterlimit="10"/>
<path d="M178.69 310.057C151.849 298.895 123.475 291.855 94.53 289.175" stroke="#081F2D" stroke-width="2.036" stroke-miterlimit="10"/>
<path d="M351.34 392.631C345.806 376.267 338.19 360.682 328.681 346.26C316.508 327.852 305.037 310.505 284.418 303.05C269.759 297.75 256.502 299.856 247.802 301.13C225.055 304.461 222.871 312.957 200.362 320.33C162.193 332.83 132.43 320.208 125.828 334.694C124.627 337.533 124.398 340.69 125.176 343.673C130.016 363.862 178.376 368.173 201.622 368C213.579 367.907 225.496 366.593 237.186 364.078" fill="url(#paint3_linear_3_50520)"/>
<path d="M247.8 301.13C225.053 304.461 222.869 312.957 200.36 320.33C162.191 332.83 132.428 320.208 125.826 334.694C124.625 337.533 124.396 340.69 125.174 343.673C130.014 363.862 178.374 368.173 201.62 368C213.577 367.907 225.494 366.593 237.184 364.078" stroke="#081F2D" stroke-width="2.036" stroke-miterlimit="10"/>
<path d="M358.722 463.7C361.216 439.757 358.706 415.556 351.351 392.634C348.955 385.277 346.05 378.095 342.659 371.14C276.74 392.579 227.638 406.511 215.007 409.94C209.919 411.361 204.499 411.001 199.643 408.921C193.787 406.291 190.438 401.341 188.712 398.183L225.324 518.283" fill="#DAA080"/>
<path d="M197.985 428.6C213.712 433.535 230.569 433.565 246.314 428.685L352.35 395.819" stroke="#081F2D" stroke-width="2.036" stroke-miterlimit="10"/>
<path d="M342.659 371.142L215.007 409.942C209.914 411.307 204.512 410.948 199.643 408.923C193.043 406.142 189.743 401.259 188.65 397.99C188.672 398.055 188.692 398.12 188.712 398.185" stroke="#081F2D" stroke-width="2.036" stroke-miterlimit="10"/>
<path d="M550.078 246.392C548.291 238.019 543.266 209.415 558.7 178.761C575.558 145.28 605.162 132.515 612.568 129.568L536.157 92.1998C532.934 90.619 529.378 89.8349 525.789 89.9136C522.2 89.9922 518.682 90.9313 515.531 92.6518C497.101 102.64 482.138 117.989 472.621 136.667C457.187 167.323 462.212 195.927 464 204.3L550.078 246.392Z" fill="#FFECAF"/>
<path d="M357.83 86.943C337.067 78.852 313.636 80.362 293.025 90.12L292.139 90.527C271.762 99.903 255.72 116.537 248.471 137.264C238.205 166.62 246.964 200.164 268.427 220.932C288.836 240.714 319.572 247.763 349.011 240.337C360.071 266.102 389.691 336.198 393.243 344.03C393.903 345.486 394.852 346.792 396.032 347.869C397.213 348.946 398.6 349.772 400.11 350.296C401.62 350.82 403.22 351.031 404.814 350.916C406.408 350.802 407.963 350.364 409.382 349.63L409.596 349.519C412.322 348.108 414.39 345.689 415.358 342.777C416.327 339.864 416.12 336.688 414.782 333.926C411.57 327.293 378.382 249.068 370.25 230.68C380.979 223.241 390.015 213.619 396.765 202.444C405.186 188.665 409.239 172.66 408.392 156.534C406.581 126.718 386.8 98.244 357.83 86.943ZM369.311 201.743C364.085 207.51 357.746 212.16 350.676 215.413C343.606 218.666 335.951 220.455 328.171 220.673C306.483 221.304 282.536 209.856 272.456 187.695C269.097 180.073 267.471 171.8 267.697 163.474C267.923 155.147 269.994 146.975 273.762 139.546C279.824 127.778 290.335 118.511 303.431 112.739C316.35 106.539 330.211 104.593 343.092 107.645C351.187 109.612 358.743 113.354 365.214 118.599C371.685 123.845 376.91 130.463 380.51 137.975C390.8 160.037 383.915 185.671 369.311 201.74V201.743Z" fill="#DAA080"/>
<path d="M369.311 201.74C364.085 207.507 357.746 212.156 350.676 215.41C343.606 218.663 335.951 220.452 328.171 220.67C306.483 221.301 282.536 209.853 272.456 187.692C269.097 180.07 267.471 171.797 267.697 163.471C267.923 155.144 269.994 146.972 273.762 139.543C279.824 127.775 290.335 118.508 303.431 112.736C316.35 106.536 330.211 104.59 343.092 107.642C351.187 109.609 358.743 113.351 365.214 118.596C371.685 123.842 376.91 130.46 380.51 137.972C390.8 160.037 383.915 185.671 369.311 201.74Z" fill="white" stroke="#081F2D" stroke-width="2.036" stroke-linecap="round" stroke-linejoin="round"/>
</g>
<defs>
<linearGradient id="paint0_linear_3_50520" x1="389.824" y1="345.239" x2="677.506" y2="345.239" gradientUnits="userSpaceOnUse">
<stop stop-color="#FF5607"/>
<stop offset="1" stop-color="#FFA700"/>
</linearGradient>
<linearGradient id="paint1_linear_3_50520" x1="413.777" y1="346.128" x2="640.397" y2="346.128" gradientUnits="userSpaceOnUse">
<stop stop-color="#FF5607"/>
<stop offset="1" stop-color="#FFA700"/>
</linearGradient>
<linearGradient id="paint2_linear_3_50520" x1="410.176" y1="345.239" x2="122.495" y2="345.239" gradientUnits="userSpaceOnUse">
<stop stop-color="#FF5607"/>
<stop offset="1" stop-color="#FFA700"/>
</linearGradient>
<linearGradient id="paint3_linear_3_50520" x1="386.223" y1="346.128" x2="159.603" y2="346.128" gradientUnits="userSpaceOnUse">
<stop stop-color="#FF5607"/>
<stop offset="1" stop-color="#FFA700"/>
</linearGradient>
<clipPath id="clip0_3_50520">
<rect width="800" height="600" fill="white"/>
</clipPath>
</defs>
</svg>
