<svg width="215" height="214" viewBox="0 0 215 214" fill="none" xmlns="http://www.w3.org/2000/svg">
<path d="M105.201 0.918787C106.532 -0.192279 108.468 -0.192281 109.799 0.918785L123.501 12.3576C124.46 13.1578 125.766 13.4019 126.949 13.002L143.858 7.28564C145.501 6.7304 147.305 7.42947 148.145 8.9463L156.79 24.5627C157.395 25.6552 158.524 26.3545 159.772 26.4089L177.605 27.187C179.337 27.2626 180.767 28.5663 181.002 30.2841L183.422 47.969C183.591 49.2061 184.392 50.2662 185.536 50.7676L201.883 57.9351C203.471 58.6313 204.333 60.3636 203.932 62.0502L199.8 79.4152C199.511 80.63 199.875 81.9076 200.76 82.7883L213.414 95.3772C214.644 96.6 214.822 98.5269 213.839 99.9547L203.713 114.654C203.005 115.683 202.882 117.005 203.389 118.146L210.642 134.457C211.346 136.041 210.816 137.902 209.384 138.878L194.631 148.927C193.599 149.63 193.007 150.82 193.068 152.067L193.939 169.895C194.023 171.627 192.857 173.171 191.168 173.564L173.782 177.605C172.566 177.888 171.584 178.783 171.191 179.968L165.562 196.907C165.015 198.552 163.37 199.571 161.654 199.327L143.981 196.815C142.745 196.64 141.506 197.119 140.711 198.082L129.344 211.844C128.24 213.181 126.337 213.536 124.825 212.689L109.253 203.963C108.164 203.352 106.836 203.352 105.747 203.963L90.1752 212.689C88.6627 213.536 86.7605 213.181 85.6563 211.844L74.2887 198.082C73.4935 197.119 72.2549 196.64 71.0186 196.815L53.3465 199.327C51.63 199.571 49.9847 198.552 49.438 196.907L43.8094 179.968C43.4156 178.783 42.4339 177.888 41.2177 177.605L23.8315 173.564C22.1428 173.171 20.9766 171.627 21.0612 169.895L21.9318 152.067C21.9927 150.82 21.4006 149.63 20.3686 148.927L5.61648 138.878C4.18359 137.902 3.65401 136.041 4.35842 134.457L11.6106 118.146C12.118 117.005 11.9954 115.683 11.2871 114.654L1.16136 99.9547C0.177842 98.5269 0.356395 96.6 1.58553 95.3772L14.2399 82.7883C15.1251 81.9076 15.4887 80.63 15.1996 79.4152L11.0679 62.0502C10.6665 60.3636 11.5291 58.6313 13.117 57.9351L29.4645 50.7676C30.608 50.2662 31.4085 49.2061 31.5778 47.969L33.9981 30.2841C34.2331 28.5663 35.6632 27.2626 37.3953 27.187L55.2281 26.4089C56.4756 26.3545 57.605 25.6552 58.2098 24.5627L66.8551 8.94631C67.6948 7.42947 69.4993 6.7304 71.1418 7.28564L88.0514 13.002C89.2343 13.4019 90.5401 13.1578 91.4986 12.3576L105.201 0.918787Z" fill="#DEBC8A"/>
</svg>
