<svg width="120" height="119" viewBox="0 0 120 119" fill="none" xmlns="http://www.w3.org/2000/svg">
<path d="M58.3619 0.66709C59.104 0.047556 60.1831 0.047555 60.9252 0.667089L68.566 7.04543C69.1005 7.49162 69.8286 7.62772 70.4881 7.40474L79.917 4.21727C80.8329 3.90767 81.8391 4.29747 82.3073 5.14327L87.128 13.851C87.4652 14.4602 88.0949 14.8501 88.7905 14.8805L98.7342 15.3143C99.7 15.3565 100.497 16.0834 100.629 17.0413L101.978 26.9025C102.072 27.5923 102.519 28.1834 103.156 28.463L112.272 32.4596C113.157 32.8478 113.638 33.8137 113.414 34.7542L111.111 44.437C110.949 45.1143 111.152 45.8268 111.646 46.3178L118.702 53.3374C119.387 54.0193 119.487 55.0937 118.938 55.8899L113.292 64.0865C112.897 64.6599 112.829 65.3975 113.112 66.0337L117.156 75.1282C117.548 76.0116 117.253 77.0495 116.454 77.5937L108.228 83.1973C107.653 83.5893 107.323 84.2523 107.357 84.9477L107.842 94.889C107.889 95.8546 107.239 96.7157 106.297 96.9346L96.6028 99.1882C95.9246 99.3459 95.3772 99.8449 95.1577 100.506L92.0192 109.951C91.7143 110.868 90.7969 111.436 89.8398 111.3L79.9857 109.9C79.2964 109.802 78.6057 110.069 78.1623 110.606L71.8237 118.28C71.208 119.025 70.1473 119.223 69.3039 118.751L60.6213 113.885C60.0139 113.545 59.2732 113.545 58.6658 113.885L49.9832 118.751C49.1398 119.223 48.0791 119.025 47.4635 118.28L41.1248 110.606C40.6814 110.069 39.9907 109.802 39.3014 109.9L29.4474 111.3C28.4902 111.436 27.5728 110.868 27.2679 109.951L24.1294 100.506C23.9099 99.8449 23.3625 99.3459 22.6843 99.1882L12.9897 96.9346C12.0481 96.7157 11.3978 95.8546 11.4449 94.889L11.9304 84.9477C11.9644 84.2523 11.6342 83.5893 11.0588 83.1973L2.83293 77.5937C2.03395 77.0495 1.73865 76.0116 2.13143 75.1282L6.1753 66.0337C6.45818 65.3975 6.38984 64.6599 5.99487 64.0865L0.348736 55.8899C-0.199679 55.0937 -0.100115 54.0193 0.585254 53.3374L7.64138 46.3178C8.13499 45.8268 8.33769 45.1143 8.17652 44.437L5.87264 34.7542C5.64886 33.8137 6.12983 32.8478 7.01522 32.4596L16.1306 28.463C16.7683 28.1834 17.2147 27.5923 17.3091 26.9025L18.6586 17.0413C18.7897 16.0834 19.5871 15.3565 20.5529 15.3143L30.4966 14.8805C31.1922 14.8501 31.8219 14.4602 32.1591 13.851L36.9798 5.14327C37.448 4.29747 38.4542 3.90767 39.3701 4.21727L48.799 7.40474C49.4585 7.62772 50.1866 7.49162 50.7211 7.04543L58.3619 0.66709Z" fill="#AD6B46"/>
</svg>
